<svg xmlns="http://www.w3.org/2000/svg" width="512" height="512" viewBox="0 0 512 512"><path d="M415.886 64a.953.953 0 0 1 .114.115v383.771a1.023 1.023 0 0 1-.114.114H96.114a.944.944 0 0 1-.114-.114V64.114a.885.885 0 0 1 .115-.114H32v384c0 35.2 28.8 64 64 64h320c35.2 0 64-28.8 64-64V64h-64.114zM128 160h64v64h-64zm96 0h160v64H224zm-96 96h64v64h-64zm96 0h160v64H224zm-96 96h64v64h-64zm96 0h160v64H224zm96-288V32c0-17.673-14.327-32-32-32h-64c-17.673 0-32 14.327-32 32v32h-64v64h256V64h-64zm-32 0h-64V32h64v32z"/></svg>