<svg xmlns="http://www.w3.org/2000/svg" id="Layer_1" width="512" height="512" viewBox="0 0 512 512"><path d="M256 64C64 64 0 256 0 256s64 192 256 192 256-192 256-192S448 64 256 64zm0 144c0 26.5-21.5 48-48 48s-48-21.5-48-48 21.5-48 48-48 48 21.5 48 48zm148.4 105.9c-17.9 20.9-38.1 37.3-59.9 48.9C318 376.9 288.2 384 256 384s-62-7.1-88.5-21.2c-21.8-11.6-41.9-28-59.9-48.9-18.1-21.1-30.5-42.7-38-57.9 7.5-15.2 19.9-36.8 38-57.9 6.8-7.9 13.9-15.2 21.3-21.8-.6 5.2-1 10.4-1 15.8 0 70.7 57.3 128 128 128s128-57.3 128-128c0-5.3-.3-10.6-1-15.8 7.4 6.6 14.5 13.9 21.3 21.8 18.1 21.1 30.5 42.7 38 57.9-7.3 15.2-19.7 36.8-37.8 57.9z"/></svg>