<svg id="Layer_1" xmlns="http://www.w3.org/2000/svg" viewBox="0 0 281 127"><style>.st0{fill:#2b2241}.st1{fill:#93cd88}</style><path class="st0" d="M42.7 54.9c-.5.2-.8.5-1 1.1-.2.5-.3 1.3-.3 2.5v22.6c0 1.1.1 2 .3 2.5.2.5.5.9 1 1.1.5.2 1.3.3 2.4.4v.9c-1.4-.1-3.3-.1-5.8-.1-2.6 0-4.5 0-5.8.1v-1c1.1 0 1.9-.2 2.4-.4s.8-.5 1-1.1c.2-.5.3-1.3.3-2.5V56.7l-11 29.4h-.7L14 56.6v24c0 1.2.1 2.1.3 2.6.2.6.6 1 1.2 1.3s1.5.4 2.7.5v.9c-1.1-.1-2.6-.1-4.6-.1-1.8 0-3.2 0-4.2.1V85c1.1 0 1.8-.2 2.3-.5s.9-.7 1.1-1.3c.2-.6.3-1.5.3-2.6V58.5c0-1.1-.1-2-.3-2.5-.2-.5-.5-.9-1-1.1-.5-.2-1.3-.3-2.4-.4v-.9c1 .1 2.4.1 4.2.1 1.6 0 2.9 0 3.9-.1l10 26.4 9.8-26.2h2.2c2.4 0 4.4 0 5.8-.1v.9c-1.3 0-2.1.2-2.6.3zM79.6 85v.9c-1.2-.1-2.9-.1-4.9-.1-2.6 0-4.5 0-5.8.1V85c1.2 0 2-.2 2.5-.4s.7-.7.7-1.3c0-.5-.2-1.2-.5-2.1l-2.8-7.5h-11L56 78.5c-.6 1.5-1 2.8-1 3.7 0 1 .3 1.7 1 2.1.6.4 1.6.6 3 .7v.9c-1.7-.1-3.5-.1-5.2-.1-1.4 0-2.5 0-3.4.1V85c1.5-.3 2.7-1.7 3.6-4l10.7-27.6h.7L76.5 82c.7 1.9 1.7 2.9 3.1 3zM63.4 59.2l-5.2 13.6h10.3l-5.1-13.6zm28.4 21.9c0 1.1.1 2 .4 2.5.2.5.7.9 1.3 1.1s1.6.3 3 .4v.9c-1.6-.1-3.8-.1-6.7-.1-2.6 0-4.5 0-5.8.1v-1c1.1 0 1.9-.2 2.4-.4s.8-.5 1-1.1c.2-.5.3-1.3.3-2.5V58.5c0-1.1-.1-2-.3-2.5-.2-.5-.5-.9-1-1.1-.5-.2-1.3-.3-2.4-.4v-.9c1.3.1 3.1.1 5.6.1.5 0 2.2 0 4.9-.1h1.9c2.4 0 4.4.4 6 1.1 1.6.7 2.9 1.8 3.7 3.1.8 1.3 1.2 2.9 1.2 4.7 0 1.7-.4 3.3-1.1 4.8-.7 1.5-2 2.8-3.8 3.8-1.8 1-4.1 1.5-7.1 1.5h-3.5v8.5zm1.3-26.2c-.5.2-.8.6-1 1.1-.2.5-.3 1.4-.3 2.4V72h3.1c3 0 5-.8 6.1-2.4s1.7-3.7 1.7-6.4c0-2-.3-3.6-.8-4.8-.5-1.3-1.3-2.2-2.4-2.8-1.1-.6-2.6-.9-4.4-.9-.8-.1-1.6 0-2 .2zm44.8-1.2v1.1h-17.6V69h14.8v1h-14.8v14.6H138v1.1h-19v-32h18.9zm12.8 9.2c1 0 1.9.1 2.7.4s1.6.6 2.2 1h5.6v.4c0 .1 0 .2-.1.3s-.2.1-.3.1l-4 .2c.6.6 1 1.3 1.3 2.1s.5 1.7.5 2.6c0 1.1-.2 2.1-.6 2.9-.4.9-.9 1.6-1.6 2.3s-1.5 1.1-2.4 1.5c-1 .3-2 .5-3.2.5-.7 0-1.4-.1-2-.2-.6-.1-1.2-.3-1.8-.6-.7.4-1.3.9-1.7 1.5-.4.6-.6 1.1-.6 1.7 0 .7.2 1.3.7 1.6.5.4 1.1.7 1.8.8s1.6.3 2.6.4c1 .1 2 .1 3 .1s2 .1 3 .2 1.8.3 2.6.7 1.4.8 1.8 1.4.7 1.4.7 2.4c0 .9-.2 1.8-.7 2.6-.5.8-1.1 1.6-2 2.2-.9.6-1.9 1.1-3.1 1.5-1.2.4-2.6.6-4.1.6-1.5 0-2.9-.2-4.1-.5s-2.2-.8-3-1.3c-.8-.6-1.4-1.2-1.8-1.9-.4-.7-.6-1.5-.6-2.3 0-1.2.4-2.3 1.2-3.2.8-.9 2-1.6 3.4-2.1-.8-.2-1.5-.6-2-1.1-.5-.5-.7-1.1-.7-2 0-.3.1-.6.2-1 .1-.3.3-.7.5-1 .2-.3.5-.6.9-.9.3-.3.7-.6 1.1-.8-1-.6-1.9-1.4-2.4-2.5-.6-1-.9-2.2-.9-3.6 0-1.1.2-2 .5-2.9.4-.9.9-1.6 1.6-2.3.7-.6 1.5-1.1 2.4-1.5s2.2-.3 3.4-.3zm9.1 24.5c0-.8-.2-1.4-.6-1.9s-.9-.8-1.6-1.1c-.7-.3-1.4-.5-2.3-.6s-1.8-.2-2.7-.2c-.9-.1-1.9-.1-2.8-.1-.9 0-1.8-.1-2.6-.3-.7.2-1.3.5-1.8.9-.6.3-1 .7-1.4 1.1-.4.4-.7.9-.9 1.4-.2.5-.3 1-.3 1.6 0 .7.2 1.4.6 2 .4.6.9 1.2 1.6 1.6.7.5 1.6.8 2.6 1.1 1 .3 2.2.4 3.5.4 1.2 0 2.3-.1 3.4-.4 1.1-.3 2-.7 2.8-1.2.8-.5 1.4-1.1 1.9-1.9s.6-1.6.6-2.4zm-9.1-11.1c1 0 2-.2 2.8-.5.8-.3 1.5-.7 2.1-1.3.6-.6 1-1.2 1.3-2s.4-1.6.4-2.6c0-.9-.2-1.8-.5-2.5-.3-.8-.7-1.4-1.3-2s-1.3-1-2.1-1.3c-.8-.3-1.8-.5-2.8-.5-1 0-2 .2-2.8.5-.8.3-1.5.7-2.1 1.3s-1 1.2-1.3 2c-.3.8-.5 1.6-.5 2.5 0 .9.2 1.8.5 2.6s.7 1.4 1.3 2c.6.6 1.3 1 2.1 1.3.9.4 1.9.5 2.9.5zM171 93.2c-.1.2-.2.3-.3.4-.1.1-.3.2-.5.2h-.8l3.9-8.7-9.6-21.9h.9c.2 0 .3 0 .4.1s.2.2.2.3l8.4 19.2c.1.3.2.7.3 1 .1-.3.2-.7.4-1l8.3-19.2c.1-.1.1-.2.2-.3.1-.1.2-.1.3-.1h.8l-12.9 30zm18.1.6V63.3h.6c.3 0 .4.2.5.5l.1 3.9c1-1.5 2.2-2.6 3.6-3.5 1.4-.8 2.9-1.3 4.6-1.3 2.8 0 5 .9 6.6 2.8 1.5 1.9 2.3 4.8 2.3 8.6 0 1.6-.2 3.2-.6 4.6-.4 1.4-1 2.6-1.9 3.7s-1.8 1.9-3.1 2.5c-1.2.6-2.6.9-4.2.9-3.2 0-5.6-1.2-7.2-3.7v11.5h-1.3zm9.1-30c-1.6 0-3 .4-4.4 1.3-1.3.9-2.5 2.1-3.5 3.6V81c.9 1.5 2 2.5 3.1 3.1 1.1.6 2.4.9 3.9.9s2.8-.3 3.8-.8c1.1-.5 2-1.3 2.7-2.2.7-1 1.3-2.1 1.6-3.4.4-1.3.5-2.7.5-4.3 0-3.6-.7-6.2-2-7.9-1.2-1.7-3.1-2.6-5.7-2.6zM219.4 86c-1.4 0-2.5-.4-3.3-1.1-.8-.8-1.2-2-1.2-3.7V65h-3.5c-.3 0-.4-.1-.4-.3v-.4l3.9-.2.3-8.6c0-.1.1-.2.1-.3.1-.1.1-.1.2-.1h.5v9h7.4v.9H216v16.1c0 .7.1 1.3.3 1.8s.4.9.7 1.2c.3.3.7.5 1.1.7.4.1.9.2 1.4.2.6 0 1.1-.1 1.6-.3.4-.2.8-.4 1.1-.6s.6-.4.8-.6c.2-.2.3-.3.4-.3.1 0 .2 0 .2.1l.3.4-.9.9c-.3.3-.7.5-1.1.7s-.8.3-1.3.4c-.3.3-.7.3-1.2.3z"/><path class="st1" d="M11.6 36.9l-2.1-2.4 23.9-21.2 20.9 13.3-1.7 2.7-18.9-12z"/><path transform="rotate(56.312 53.064 27.058)" class="st1" d="M51.5 25.5h3.2v3.2h-3.2z"/><path class="st1" d="M60.2 24.3l-1.8-2.7 4.9-3.2L65 21l-4.8 3.3zm9.7-6.5l-1.8-2.7 4.9-3.2 1.8 2.7-4.9 3.2z"/><path transform="rotate(56.312 80.056 9.077)" class="st1" d="M78.5 7.5h3.2v3.2h-3.2z"/><path class="st1" d="M81.2 14.2l-3-.8.9-3.5h-3.3l-.1-3.2 7.6-.1z"/><path class="st0" d="M16.8 111.6c0 .1 0 .1.1.2.1-.1.1-.3.2-.4l6-9.3c.1-.1.1-.1.2-.1h.8l-1.6 13.2h-.8l1.4-11.3v-.5l-5.9 9.2c-.1.2-.2.2-.4.2h-.1c-.2 0-.3-.1-.3-.2l-3.7-9.3v.5l-1.4 11.3h-.8l1.6-13.2h.8l.1.1 3.8 9.3v.3zm13 3.6c-.5 0-.9-.1-1.4-.3-.4-.2-.8-.4-1-.8-.3-.3-.5-.7-.7-1.2-.2-.5-.2-1-.2-1.6 0-.8.1-1.5.3-2.2.2-.7.5-1.3.9-1.8s.9-.9 1.5-1.3c.6-.3 1.2-.5 1.8-.5.5 0 .9.1 1.4.3.4.2.8.4 1 .8.3.3.5.7.7 1.2.2.5.2 1 .2 1.6 0 .8-.1 1.5-.3 2.2s-.5 1.3-.9 1.8-.9 1-1.4 1.3c-.6.3-1.3.5-1.9.5zm0-.7c.5 0 1-.1 1.5-.4.4-.3.8-.7 1.1-1.1.3-.5.6-1 .7-1.6.2-.6.3-1.2.3-1.9 0-1-.2-1.8-.7-2.3-.4-.5-1.1-.8-1.8-.8-.5 0-1 .1-1.5.4-.4.3-.8.7-1.1 1.1-.3.5-.6 1-.7 1.6-.2.6-.3 1.2-.3 1.9 0 1 .2 1.8.7 2.3.4.5 1.1.8 1.8.8zm7.3.6l1.1-9.3h.4c.2 0 .3.1.3.3l-.3 2.7c.3-.5.5-.9.8-1.3.3-.4.6-.7 1-1 .3-.3.7-.5 1.1-.6.4-.1.7-.2 1.1-.2.4 0 .7.1 1 .2.3.2.5.4.7.7.2.3.3.7.3 1.1.1.4 0 .9 0 1.5l-.7 5.9H43l.7-5.9c.1-.9 0-1.6-.2-2-.2-.5-.6-.7-1.3-.7-.3 0-.7.1-1.1.3-.4.2-.7.4-1 .8-.3.3-.6.7-.9 1.2-.3.5-.5 1-.8 1.6l-.6 4.9h-.7zm12.8-9.3l-1.1 9.3h-.9l1.1-9.3h.9zm.7-3.2c0 .1 0 .2-.1.3 0 .1-.1.2-.2.3-.1.1-.2.1-.3.2-.1 0-.2.1-.3.1-.1 0-.2 0-.3-.1-.1 0-.2-.1-.2-.2-.1-.1-.1-.2-.2-.3 0-.1-.1-.2-.1-.3 0-.1 0-.2.1-.3 0-.1.1-.2.2-.3.1-.1.2-.1.2-.2.1 0 .2-.1.3-.1.1 0 .2 0 .3.1.1 0 .2.1.3.2.1.1.1.2.2.3.1.1.1.2.1.3zm2.9 10.9v-.8c0-.2 0-.4.1-.7l.6-5.3H53c-.1 0-.1 0-.1-.1v-.5l1.5-.1.6-3.3c0-.1 0-.1.1-.1 0 0 .1-.1.2-.1h.4l-.4 3.5H58l-.1.7h-2.7l-.6 5.2c0 .3-.1.5-.1.6v.7c0 .4.1.7.3.9.2.2.4.3.7.3.2 0 .4 0 .5-.1.2-.1.3-.1.4-.2.1-.1.2-.1.3-.2.1-.1.1-.1.2-.1s.1 0 .1.1l.2.4c-.2.3-.6.5-.9.6-.4.2-.7.2-1.1.2-.5 0-.9-.1-1.2-.4s-.5-.6-.5-1.2zm9.8 1.7c-.5 0-.9-.1-1.4-.3-.4-.2-.8-.4-1-.8-.3-.3-.5-.7-.7-1.2-.2-.5-.2-1-.2-1.6 0-.8.1-1.5.3-2.2.2-.7.5-1.3.9-1.8s.9-.9 1.5-1.3c.6-.3 1.2-.5 1.8-.5.5 0 .9.1 1.4.3.4.2.8.4 1 .8.3.3.5.7.7 1.2.2.5.2 1 .2 1.6 0 .8-.1 1.5-.3 2.2s-.5 1.3-.9 1.8-.9 1-1.4 1.3-1.2.5-1.9.5zm.1-.7c.5 0 1-.1 1.5-.4.4-.3.8-.7 1.1-1.1.3-.5.6-1 .7-1.6.2-.6.3-1.2.3-1.9 0-1-.2-1.8-.7-2.3-.4-.5-1.1-.8-1.8-.8-.5 0-1 .1-1.5.4-.4.3-.8.7-1.1 1.1-.3.5-.6 1-.7 1.6-.2.6-.3 1.2-.3 1.9 0 1 .2 1.8.7 2.3.4.5 1 .8 1.8.8zm7.3.6l1.1-9.3h.4c.2 0 .3.1.3.3l-.3 2.8c.3-.6.5-1.1.8-1.6.3-.4.6-.8 1-1.1.3-.3.7-.4 1.1-.5.4-.1.7 0 1.1.1l-.2.8c-.4-.2-.8-.2-1.2-.1-.4.1-.7.3-1.1.6-.3.3-.6.7-.9 1.3-.3.5-.5 1.2-.8 1.9l-.6 4.7h-.7zm9.3-9.3l-1.1 9.3H78l1.1-9.3h.9zm.6-3.2c0 .1 0 .2-.1.3 0 .1-.1.2-.2.3-.1.1-.2.1-.3.2-.1 0-.2.1-.3.1-.1 0-.2 0-.3-.1-.1 0-.2-.1-.2-.2-.1-.1-.1-.2-.2-.3 0-.1-.1-.2-.1-.3 0-.1 0-.2.1-.3 0-.1.1-.2.2-.3.1-.1.2-.1.2-.2.1 0 .2-.1.3-.1.1 0 .2 0 .3.1.1 0 .2.1.3.2.1.1.1.2.2.3.1.1.1.2.1.3zm2.3 12.5l1.1-9.3h.4c.2 0 .3.1.3.3l-.3 2.7c.3-.5.5-.9.8-1.3.3-.4.6-.7 1-1 .3-.3.7-.5 1.1-.6.4-.1.7-.2 1.1-.2.4 0 .7.1 1 .2.3.2.5.4.7.7.2.3.3.7.3 1.1.1.4 0 .9 0 1.5l-.7 5.9h-.9l.7-5.9c.1-.9 0-1.6-.2-2-.2-.5-.6-.7-1.3-.7-.3 0-.7.1-1.1.3-.4.2-.7.4-1 .8-.3.3-.6.7-.9 1.2-.3.5-.5 1-.8 1.6l-.6 4.9h-.7zm17.1-6.9c0 .3-.1.7-.1.9-.1.3-.2.5-.3.8-.1.2-.3.5-.4.7-.1.2-.3.4-.4.6l-.3.6c-.1.2-.1.4-.1.6 0 .2 0 .3.1.5.1.1.2.3.3.4.1.2.2.3.4.4.1.1.2.3.4.5l.3.6c.1.2.1.4.1.7 0 .4-.1.8-.3 1.1-.2.4-.5.7-.8 1-.4.3-.8.5-1.3.7-.5.2-1.1.3-1.7.3-.5 0-.9 0-1.3-.1s-.8-.2-1.1-.4c-.3-.2-.5-.4-.7-.7s-.2-.6-.2-.9c0-.5.2-1 .5-1.4.3-.4.7-.7 1.3-.9s1.1-.4 1.8-.5c.7-.1 1.4-.1 2.1 0-.1-.1-.2-.3-.3-.5-.1-.2-.1-.3-.1-.5s0-.4.1-.7c.1-.2.2-.5.4-.8-.3.2-.5.3-.8.4-.3.1-.6.1-.9.1-.4 0-.7-.1-1-.2-.3-.1-.6-.3-.8-.5-.2-.2-.4-.5-.5-.8-.1-.3-.2-.7-.2-1.1 0-.4.1-.9.2-1.3.2-.4.4-.8.7-1.1.3-.3.6-.6 1.1-.8.4-.2.9-.3 1.4-.3.6 0 1.2.2 1.6.5h2.4v.3c0 .1 0 .1-.1.2 0 0-.1.1-.2.1l-1.5.1.3.6c-.1.3-.1.5-.1.8zm-1 7.4c0-.3 0-.6-.1-.8-.1-.2-.2-.4-.4-.6-.9-.1-1.7-.2-2.3-.1-.7.1-1.2.2-1.7.4-.4.2-.8.5-1 .8-.2.3-.3.6-.3 1 0 .3.1.5.2.7.1.2.3.4.5.5.2.1.5.2.8.3.3.1.7.1 1.1.1.5 0 .9-.1 1.3-.2s.7-.3 1-.5c.3-.2.5-.5.7-.7.1-.4.2-.6.2-.9zm-2.3-4.5c.4 0 .8-.1 1.1-.3.3-.2.6-.4.8-.7.2-.3.4-.6.5-.9.1-.3.2-.7.2-1 0-.6-.2-1.1-.5-1.5-.3-.3-.8-.5-1.4-.5-.4 0-.8.1-1.1.2-.3.2-.6.4-.8.6-.2.3-.4.6-.5.9-.1.3-.2.7-.2 1 0 .7.2 1.2.5 1.5.4.5.8.7 1.4.7zm21.4 4h-.7c-.1 0-.2 0-.2-.1 0 0-.1-.1-.1-.2l-.9-3.9h-5.9l-1.9 3.9c0 .1-.1.1-.1.2-.1 0-.1.1-.2.1h-.7l6.6-13.2h.9l3.2 13.2zm-7.5-4.8h5.4l-1.6-6.7c0-.1 0-.2-.1-.4 0-.1 0-.3-.1-.4-.1.1-.1.3-.2.4-.1.1-.1.3-.2.4l-3.2 6.7zm16.8-2.1c0 .3-.1.7-.1.9-.1.3-.2.5-.3.8-.1.2-.3.5-.4.7-.1.2-.3.4-.4.6l-.3.6c-.1.2-.1.4-.1.6 0 .2 0 .3.1.5.1.1.2.3.3.4.1.2.2.3.4.4.1.1.2.3.4.5l.3.6c.1.2.1.4.1.7 0 .4-.1.8-.3 1.1-.2.4-.5.7-.8 1-.4.3-.8.5-1.3.7-.5.2-1.1.3-1.7.3-.5 0-.9 0-1.3-.1s-.8-.2-1.1-.4c-.3-.2-.5-.4-.7-.7s-.2-.6-.2-.9c0-.5.2-1 .5-1.4.3-.4.7-.7 1.3-.9s1.1-.4 1.8-.5c.7-.1 1.4-.1 2.1 0-.1-.1-.2-.3-.3-.5-.1-.2-.1-.3-.1-.5s0-.4.1-.7c.1-.2.2-.5.4-.8-.3.2-.5.3-.8.4-.3.1-.6.1-.9.1-.4 0-.7-.1-1-.2-.3-.1-.6-.3-.8-.5-.2-.2-.4-.5-.5-.8-.1-.3-.2-.7-.2-1.1 0-.4.1-.9.2-1.3.2-.4.4-.8.7-1.1.3-.3.6-.6 1.1-.8.4-.2.9-.3 1.4-.3.6 0 1.2.2 1.6.5h2.4v.3c0 .1 0 .1-.1.2 0 0-.1.1-.2.1l-1.5.1.3.6c-.2.3-.1.5-.1.8zm-1 7.4c0-.3 0-.6-.1-.8-.1-.2-.2-.4-.4-.6-.9-.1-1.7-.2-2.3-.1-.7.1-1.2.2-1.7.4-.4.2-.8.5-1 .8-.2.3-.3.6-.3 1 0 .3.1.5.2.7.1.2.3.4.5.5.2.1.5.2.8.3.3.1.7.1 1.1.1.5 0 .9-.1 1.3-.2s.7-.3 1-.5c.3-.2.5-.5.7-.7.1-.4.2-.6.2-.9zm-2.4-4.5c.4 0 .8-.1 1.1-.3.3-.2.6-.4.8-.7.2-.3.4-.6.5-.9.1-.3.2-.7.2-1 0-.6-.2-1.1-.5-1.5-.3-.3-.8-.5-1.4-.5-.4 0-.8.1-1.1.2-.3.2-.6.4-.8.6-.2.3-.4.6-.5.9-.1.3-.2.7-.2 1 0 .7.2 1.2.5 1.5.4.5.9.7 1.4.7zm6.6 4l1.1-9.3h.4c.2 0 .3.1.3.3l-.3 2.8c.3-.6.5-1.1.8-1.6.3-.4.6-.8 1-1.1.3-.3.7-.4 1.1-.5.4-.1.7 0 1.1.1l-.2.8c-.4-.2-.8-.2-1.2-.1-.4.1-.7.3-1.1.6-.3.3-.6.7-.9 1.3-.3.5-.5 1.2-.8 1.9l-.6 4.7h-.7zm9.3-9.3l-1.1 9.3h-.9l1.1-9.3h.9zm.7-3.2c0 .1 0 .2-.1.3 0 .1-.1.2-.2.3-.1.1-.2.1-.3.2-.1 0-.2.1-.3.1-.1 0-.2 0-.3-.1-.1 0-.2-.1-.2-.2-.1-.1-.1-.2-.2-.3 0-.1-.1-.2-.1-.3 0-.1 0-.2.1-.3 0-.1.1-.2.2-.3.1-.1.2-.1.2-.2.1 0 .2-.1.3-.1.1 0 .2 0 .3.1.1 0 .2.1.3.2.1.1.1.2.2.3 0 .1.1.2.1.3zm8 11.7l-.9.6-.9.3c-.3 0-.6.1-.9.1-.5 0-1-.1-1.4-.3-.4-.2-.7-.4-1-.8-.3-.3-.5-.7-.6-1.2-.1-.5-.2-.9-.2-1.5 0-.5.1-1 .2-1.5s.3-.9.4-1.4c.2-.4.4-.8.7-1.2.3-.4.6-.7.9-1 .3-.3.7-.5 1.1-.6.4-.2.8-.2 1.3-.2.3 0 .6 0 .8.1.2.1.5.1.7.3.2.1.4.2.6.4l.5.5-.3.3c-.1.1-.1.1-.2.1s-.1-.1-.2-.1c-.1-.1-.2-.2-.4-.3-.2-.1-.3-.2-.6-.3-.2-.1-.5-.1-.9-.1-.5 0-1 .1-1.5.4-.5.3-.8.7-1.2 1.1-.3.5-.6 1-.8 1.6-.2.6-.3 1.3-.3 1.9 0 .4 0 .8.1 1.2.1.4.2.7.4 1 .2.3.5.5.8.6.3.1.7.2 1.1.2.3 0 .6 0 .9-.1.3-.1.5-.2.7-.3.2-.1.4-.2.5-.3.2-.1.3-.2.4-.3l.3-.3c.1-.1.2-.1.2-.1.1 0 .1 0 .2.1l.2.2c-.1.3-.4.6-.7.9zm5.6-8.5l-.7 5.9c-.1.9 0 1.6.2 2 .2.5.6.7 1.3.7.3 0 .7-.1 1-.3.3-.2.7-.4 1-.8.3-.3.6-.7.9-1.2s.5-1 .8-1.5l.6-4.9h.9l-1.1 9.3h-.4c-.1 0-.2 0-.3-.1-.1-.1-.1-.1-.1-.3l.3-2.6c-.3.5-.5.9-.8 1.3-.3.4-.6.7-1 1-.3.3-.7.5-1 .6-.4.1-.7.2-1.1.2-.8 0-1.4-.3-1.7-.9-.3-.6-.4-1.5-.3-2.6l.7-5.9h.8zm8.9 9.3l1.6-13.6h.9l-1.7 13.6h-.8zm5.6-1.6v-.8c0-.2 0-.4.1-.7l.6-5.3h-1.2c-.1 0-.1 0-.2-.1v-.5l1.5-.1.6-3.3c0-.1 0-.1.1-.1 0 0 .1-.1.2-.1h.4l-.4 3.5h2.7l-.1.7h-2.7l-.6 5.2c0 .3-.1.5-.1.6v.7c0 .4.1.7.3.9.2.2.4.3.7.3.2 0 .4 0 .5-.1.2-.1.3-.1.4-.2.1-.1.2-.1.3-.2.1-.1.1-.1.2-.1s.1 0 .1.1l.2.4c-.2.3-.5.5-.9.6-.4.2-.7.2-1.1.2-.5 0-.9-.1-1.2-.4-.3-.2-.4-.6-.4-1.2zm8.6-7.7l-.7 5.9c-.1.9 0 1.6.2 2 .2.5.6.7 1.3.7.3 0 .7-.1 1-.3.3-.2.7-.4 1-.8.3-.3.6-.7.9-1.2.3-.5.6-1 .8-1.5l.6-4.9h.9l-1.1 9.3h-.4c-.1 0-.2 0-.3-.1-.1-.1-.1-.1-.1-.3l.3-2.6c-.3.5-.5.9-.8 1.3-.3.4-.6.7-1 1-.3.3-.7.5-1 .6-.4.1-.7.2-1.1.2-.8 0-1.4-.3-1.7-.9-.3-.6-.4-1.5-.3-2.6l.7-5.9h.8zm8.8 9.3l1.1-9.3h.4c.2 0 .3.1.3.3l-.3 2.8c.3-.6.5-1.1.8-1.6.3-.4.6-.8 1-1.1s.7-.4 1.1-.5c.4-.1.7 0 1.1.1l-.2.8c-.4-.2-.8-.2-1.2-.1-.4.1-.7.3-1.1.6-.3.3-.6.7-.9 1.3-.3.5-.5 1.2-.8 1.9l-.6 4.7h-.7zm13.8-7.5c0 .3 0 .5-.1.7-.1.2-.2.4-.4.7-.2.2-.4.4-.7.6-.3.2-.7.4-1.1.5-.5.2-1 .3-1.7.4-.6.1-1.4.2-2.3.3v.8c0 .9.2 1.7.6 2.2.4.5 1.1.8 1.9.8.3 0 .6 0 .9-.1.3-.1.5-.2.7-.3.2-.1.4-.2.6-.4.2-.1.3-.2.4-.4l.3-.3c.1-.1.2-.1.2-.1s.1 0 .2.1l.2.2c-.3.3-.6.6-.9.8l-.9.6c-.3.1-.6.3-.9.3-.3.1-.7.1-1 .1-.5 0-1-.1-1.4-.3-.4-.2-.7-.4-1-.7-.3-.3-.5-.7-.6-1.1-.1-.5-.2-1-.2-1.5s0-.9.1-1.4c.1-.5.2-.9.4-1.4.2-.4.4-.8.7-1.2.3-.4.6-.7.9-1 .3-.3.7-.5 1.2-.7.4-.2.9-.2 1.4-.2.5 0 .8.1 1.2.2.3.1.6.3.8.5s.3.4.4.6c.1.3.1.5.1.7zm-2.5-1.3c-.5 0-.9.1-1.3.3s-.8.5-1.1.8c-.3.4-.6.8-.8 1.2-.2.5-.4.9-.5 1.5.8-.1 1.5-.2 2-.3.6-.1 1.1-.2 1.5-.4.4-.1.7-.3 1-.4.2-.2.4-.3.6-.5.1-.2.2-.3.3-.5 0-.2.1-.3.1-.5 0-.1 0-.3-.1-.4-.1-.2-.2-.3-.3-.4-.1-.1-.3-.2-.5-.3-.3 0-.6-.1-.9-.1zm13 3.4l-.7 5.3h-.9l1.6-13.2h3.2c1.3 0 2.3.3 2.9.9.6.6 1 1.4 1 2.4 0 .7-.1 1.3-.3 1.8-.2.6-.6 1-1 1.4-.4.4-.9.7-1.5.9-.6.2-1.3.3-2 .3h-2.3zm.8-7.1l-.8 6.4h2.2c.6 0 1.1-.1 1.6-.3.5-.2.9-.4 1.2-.8.3-.3.6-.7.8-1.2.2-.5.3-.9.3-1.5 0-.8-.3-1.5-.8-2s-1.3-.7-2.3-.7h-2.2zm8.1 12.5l1.1-9.3h.4c.2 0 .3.1.3.3l-.3 2.8c.3-.6.5-1.1.8-1.6.3-.4.6-.8 1-1.1s.7-.4 1.1-.5c.4-.1.7 0 1.1.1l-.2.8c-.4-.2-.8-.2-1.2-.1-.4.1-.7.3-1.1.6-.3.3-.6.7-.9 1.3-.3.5-.5 1.2-.8 1.9l-.6 4.7h-.7zm10 .1c-.5 0-.9-.1-1.4-.3-.4-.2-.8-.4-1-.8-.3-.3-.5-.7-.7-1.2-.2-.5-.2-1-.2-1.6 0-.8.1-1.5.3-2.2.2-.7.5-1.3.9-1.8s.9-.9 1.5-1.3c.6-.3 1.2-.5 1.8-.5.5 0 1 .1 1.4.3.4.2.8.4 1 .8.3.3.5.7.7 1.2.2.5.2 1 .2 1.6 0 .8-.1 1.5-.3 2.2s-.5 1.3-.9 1.8-.9 1-1.4 1.3c-.6.3-1.2.5-1.9.5zm.1-.7c.5 0 1-.1 1.5-.4.4-.3.8-.7 1.1-1.1s.6-1 .7-1.6c.2-.6.3-1.2.3-1.9 0-1-.2-1.8-.7-2.3-.4-.5-1.1-.8-1.8-.8-.5 0-1 .1-1.5.4-.4.3-.8.7-1.1 1.1-.3.5-.6 1-.7 1.6-.2.6-.3 1.2-.3 1.9 0 1 .2 1.8.7 2.3.4.5 1 .8 1.8.8zm9.4-8.7l-1.3 10.5c0 .3-.1.6-.2.9-.1.3-.3.5-.5.7-.2.2-.4.4-.7.5s-.6.2-.9.2h-.5c-.1 0-.3-.1-.4-.2l.1-.4c0-.1.1-.1.1-.1h.6c.5 0 .8-.1 1.1-.4.3-.3.4-.7.5-1.2l1.3-10.5h.8zm.7-3.2c0 .1 0 .2-.1.3 0 .1-.1.2-.2.3-.1.1-.2.1-.3.2-.1 0-.2.1-.3.1-.1 0-.2 0-.3-.1-.1 0-.2-.1-.2-.2-.1-.1-.1-.2-.2-.3 0-.1-.1-.2-.1-.3 0-.1 0-.2.1-.3 0-.1.1-.2.2-.3.1-.1.2-.1.2-.2.1 0 .2-.1.3-.1.1 0 .2 0 .3.1.1 0 .2.1.3.2s.1.2.2.3c0 .1.1.2.1.3zm9.3 5c0 .3 0 .5-.1.7-.1.2-.2.4-.4.7-.2.2-.4.4-.7.6-.3.2-.7.4-1.1.5s-1 .3-1.7.4c-.6.1-1.4.2-2.3.3v.8c0 .9.2 1.7.6 2.2.4.5 1.1.8 1.9.8.3 0 .6 0 .9-.1.3-.1.5-.2.7-.3.2-.1.4-.2.6-.4.2-.1.3-.2.4-.4l.3-.3c.1-.1.2-.1.2-.1s.1 0 .2.1l.2.2c-.3.3-.6.6-.9.8l-.9.6c-.3.1-.6.3-.9.3-.3.1-.7.1-1 .1-.5 0-1-.1-1.4-.3-.4-.2-.7-.4-1-.7-.3-.3-.5-.7-.6-1.1-.1-.5-.2-1-.2-1.5s0-.9.1-1.4c.1-.5.2-.9.4-1.4.2-.4.4-.8.7-1.2.3-.4.6-.7.9-1 .3-.3.7-.5 1.2-.7.4-.2.9-.2 1.4-.2.5 0 .8.1 1.2.2.3.1.6.3.8.5s.3.4.4.6c0 .3.1.5.1.7zm-2.5-1.3c-.5 0-.9.1-1.3.3s-.8.5-1.1.8c-.3.4-.6.8-.8 1.2-.2.5-.4.9-.5 1.5.8-.1 1.5-.2 2-.3.6-.1 1.1-.2 1.5-.4.4-.1.7-.3 1-.4.2-.2.4-.3.6-.5.1-.2.2-.3.3-.5 0-.2.1-.3.1-.5 0-.1 0-.3-.1-.4-.1-.2-.2-.3-.3-.4-.1-.1-.3-.2-.5-.3-.3 0-.6-.1-.9-.1zm10.9 8l-.9.6-.9.3c-.3 0-.6.1-.9.1-.5 0-1-.1-1.4-.3-.4-.2-.7-.4-1-.8-.3-.3-.5-.7-.6-1.2-.1-.5-.2-.9-.2-1.5 0-.5.1-1 .2-1.5s.3-.9.4-1.4c.2-.4.4-.8.7-1.2.3-.4.6-.7.9-1 .3-.3.7-.5 1.1-.6.4-.2.8-.2 1.3-.2.3 0 .6 0 .8.1.2.1.5.1.7.3.2.1.4.2.6.4l.5.5-.3.3c-.1.1-.1.1-.2.1s-.1-.1-.2-.1c-.1-.1-.2-.2-.4-.3-.2-.1-.3-.2-.6-.3s-.5-.1-.9-.1c-.5 0-1 .1-1.5.4s-.8.7-1.2 1.1c-.3.5-.6 1-.8 1.6-.2.6-.3 1.3-.3 1.9 0 .4 0 .8.1 1.2.1.4.2.7.4 1 .2.3.5.5.8.6.3.1.7.2 1.1.2.3 0 .6 0 .9-.1.3-.1.5-.2.7-.3.2-.1.4-.2.5-.3.2-.1.3-.2.4-.3l.3-.3c.1-.1.2-.1.2-.1s.1 0 .2.1l.2.2c-.1.3-.4.6-.7.9zm4.4-.8v-.8c0-.2 0-.4.1-.7l.6-5.3h-1.2c-.1 0-.1 0-.2-.1v-.5l1.5-.1.6-3.3c0-.1 0-.1.1-.1 0 0 .1-.1.2-.1h.4l-.4 3.5h2.7l-.1.7h-2.7l-.6 5.2c0 .3-.1.5-.1.6v.7c0 .4.1.7.3.9.2.2.4.3.7.3.2 0 .4 0 .5-.1.2-.1.3-.1.4-.2.1-.1.2-.1.3-.2.1-.1.1-.1.2-.1s.1 0 .1.1l.2.4c-.2.3-.5.5-.9.6s-.7.2-1.1.2c-.5 0-.9-.1-1.2-.4-.2-.2-.4-.6-.4-1.2zm12.5-6.6c-.1.1-.1.1-.2.1s-.1 0-.2-.1-.2-.2-.4-.3c-.2-.1-.3-.2-.6-.3-.2-.1-.5-.1-.9-.1-.3 0-.6.1-.9.2-.3.1-.5.2-.7.4-.2.2-.4.4-.5.6-.1.2-.2.5-.2.7 0 .3.1.5.2.6l.5.5c.2.1.4.2.7.3.2.1.5.2.8.3.3.1.5.2.8.3.2.1.5.3.7.4.2.2.4.4.5.6.1.2.2.5.2.8 0 .4-.1.8-.2 1.2-.2.4-.4.7-.7 1-.3.3-.7.5-1.1.7s-.9.3-1.4.3c-.6 0-1.1-.1-1.5-.3-.4-.2-.8-.5-1-.8l.2-.3c.1-.1.2-.1.3-.1.1 0 .1.1.2.1.1.1.2.2.4.3l.6.3c.3.1.6.1 1 .1s.7-.1 1-.2c.3-.1.6-.3.8-.5.2-.2.4-.5.5-.7.1-.3.2-.6.2-.9 0-.3-.1-.5-.2-.7-.1-.2-.3-.3-.5-.5-.2-.1-.4-.2-.7-.3-.2-.1-.5-.2-.8-.3-.3-.1-.5-.2-.8-.3-.2-.1-.5-.2-.7-.4-.2-.2-.4-.3-.5-.6-.1-.2-.2-.5-.2-.8 0-.4.1-.7.2-1 .2-.3.4-.6.7-.9.3-.3.6-.5 1-.6.4-.2.8-.2 1.3-.2s1 .1 1.4.2c.4.2.7.4 1 .7l-.3.5z"/></svg>