<?xml version="1.0" encoding="utf-8"?>
<!-- Generator: Adobe Illustrator 19.1.0, SVG Export Plug-In . SVG Version: 6.00 Build 0)  -->
<svg version="1.1" id="Layer_1" xmlns="http://www.w3.org/2000/svg" xmlns:xlink="http://www.w3.org/1999/xlink" x="0px" y="0px"
	 width="281px" height="127px" viewBox="-165 333 281 127" style="enable-background:new -165 333 281 127;" xml:space="preserve">
<style type="text/css">
	.st0{fill:#221F1F;}
	.st1{fill:#91CB86;}
	.st2{fill:#2B2240;}
</style>
<g>
	<g>
		<g>
			<path class="st0" d="M-118.8,387.2c-3.2,0.1-3.8,0.6-3.8,4v23c0,3.4,0.6,3.9,3.8,4v0.9c-1.5-0.1-3.8-0.1-5.9-0.1
				c-2.4,0-4.6,0-5.9,0.1v-0.9c3.2-0.1,3.7-0.6,3.7-4v-24.9l-11.2,30h-0.7l-11.7-30.1v24.5c0,3.4,0.6,4.3,4.2,4.5v0.9
				c-1.1-0.1-3.2-0.1-4.7-0.1c-1.6,0-3.3,0-4.3,0.1v-0.9c3.2-0.1,3.8-1.1,3.8-4.5v-22.6c0-3.4-0.6-3.9-3.8-4v-0.9
				c1,0.1,2.7,0.1,4.3,0.1c1.4,0,2.9,0,4-0.1l10.2,26.9l10-26.8h2.2c2.1,0,4.4,0,5.9-0.1V387.2z"/>
			<path class="st0" d="M-87.4,415.2c0.9,2.4,2.2,2.9,3.2,3v0.9c-1.3-0.1-3.2-0.1-5-0.1c-2.4,0-4.6,0-5.9,0.1v-0.9
				c2.2-0.1,3.3-0.4,3.3-1.7c0-0.5-0.2-1.2-0.5-2.2l-2.9-7.6h-11.2l-1.9,4.9c-0.6,1.6-0.9,2.9-0.9,3.8c0,2,1.4,2.7,4,2.8v0.9
				c-1.8-0.1-3.7-0.1-5.4-0.1c-1.6,0-2.5,0-3.5,0.1v-0.9c1.2-0.3,2.6-1.2,3.7-4l10.9-28.1h0.7L-87.4,415.2z M-100.8,391.9l-5.3,13.9
				h10.5L-100.8,391.9z"/>
			<path class="st0" d="M-72.3,414.2c0,3.4,0.8,3.9,4.7,4v0.9c-1.6-0.1-4.3-0.1-6.8-0.1c-2.4,0-4.6,0-5.9,0.1v-0.9
				c3.2-0.1,3.8-0.6,3.8-4v-23c0-3.4-0.6-3.9-3.8-4v-0.9c1.3,0.1,3.6,0.1,5.7,0.1c2.9,0,5.9-0.1,7-0.1c7.5,0,11.2,3.8,11.2,9.2
				c0,4.5-2.6,10.4-12.2,10.4h-3.6V414.2z M-72.3,391.2v13.7h3.1c6.6,0,8-4.2,8-9c0-5.8-2.1-8.8-7.7-8.8
				C-71.7,387.2-72.3,388-72.3,391.2z"/>
		</g>
		<g>
			<path class="st0" d="M-35.1,405.2v13.7h-1.3v-13.7l-12.1-18.9h1.1c0.1,0,0.2,0,0.3,0.1c0.1,0.1,0.2,0.1,0.2,0.3l10.3,16.2
				c0.2,0.3,0.3,0.5,0.4,0.8c0.1,0.2,0.3,0.5,0.3,0.7c0.1-0.3,0.2-0.5,0.4-0.8c0.1-0.2,0.3-0.5,0.4-0.8l10.3-16.2
				c0.1-0.2,0.3-0.3,0.5-0.3h1.1L-35.1,405.2z"/>
			<path class="st0" d="M-6,416.1c-0.3,0.4-0.7,0.8-1.3,1.1c-0.6,0.4-1.2,0.7-1.9,1c-0.7,0.3-1.5,0.5-2.3,0.7
				c-0.8,0.2-1.7,0.3-2.6,0.3c-1.6,0-3-0.3-4.2-0.8s-2.3-1.3-3.2-2.4c-0.9-1-1.6-2.3-2.1-3.8c-0.5-1.5-0.7-3.2-0.7-5.2
				c0-1.7,0.2-3.2,0.7-4.6c0.5-1.4,1.1-2.6,2-3.6c0.9-1,1.9-1.8,3.2-2.3c1.3-0.6,2.7-0.8,4.3-0.8c1.2,0,2.4,0.2,3.5,0.7
				c1.1,0.4,2,1.1,2.8,1.9c0.8,0.8,1.4,1.9,1.9,3.1c0.5,1.2,0.7,2.7,0.7,4.2c0,0.3-0.1,0.5-0.4,0.5h-17.3c0,0.2,0,0.3,0,0.5
				c0,0.1,0,0.3,0,0.5c0,1.8,0.2,3.4,0.7,4.8c0.4,1.4,1,2.6,1.8,3.5c0.8,0.9,1.7,1.7,2.9,2.1c1.1,0.5,2.4,0.7,3.7,0.7
				c1.2,0,2.3-0.1,3.2-0.4c0.9-0.3,1.6-0.6,2.3-0.9c0.6-0.3,1.1-0.6,1.4-0.9c0.3-0.3,0.5-0.4,0.6-0.4c0.1,0,0.2,0,0.3,0.1L-6,416.1z
				 M-6.5,405.3c0-1.4-0.2-2.6-0.6-3.7c-0.4-1.1-0.9-2-1.6-2.7c-0.7-0.7-1.5-1.3-2.4-1.7c-0.9-0.4-2-0.6-3.1-0.6
				c-1.3,0-2.5,0.2-3.5,0.6c-1,0.4-1.9,1-2.7,1.8c-0.7,0.8-1.3,1.7-1.8,2.7c-0.5,1.1-0.8,2.3-0.9,3.6H-6.5z"/>
			<path class="st0" d="M1.1,418.9V396h0.6c0.3,0,0.4,0.2,0.5,0.5l0.1,3.9c0.9-1.4,2-2.6,3.2-3.4c1.2-0.9,2.6-1.3,4-1.3
				c1.7,0,3.1,0.5,4.2,1.6c1,1.1,1.7,2.5,2,4.4c0.2-1,0.6-1.9,1.1-2.7c0.5-0.8,1.1-1.4,1.7-1.9c0.7-0.5,1.4-0.9,2.1-1.1
				c0.8-0.2,1.6-0.4,2.4-0.4c1.1,0,2.1,0.2,3,0.6c0.9,0.4,1.6,0.9,2.3,1.7c0.6,0.7,1.1,1.6,1.4,2.7c0.3,1.1,0.5,2.3,0.5,3.7v14.7
				h-1.2v-14.7c0-2.5-0.5-4.4-1.6-5.7c-1.1-1.3-2.6-2-4.5-2c-0.9,0-1.7,0.2-2.5,0.5c-0.8,0.3-1.5,0.8-2.1,1.4s-1.1,1.4-1.5,2.4
				c-0.4,1-0.6,2.1-0.6,3.3v14.7h-1.2v-14.7c0-2.4-0.5-4.3-1.4-5.6c-1-1.3-2.4-2-4.2-2c-1.4,0-2.7,0.4-3.8,1.3
				c-1.2,0.9-2.2,2.1-3.1,3.6v17.4H1.1z"/>
			<path class="st0" d="M55,416.1c-0.3,0.4-0.7,0.8-1.3,1.1c-0.6,0.4-1.2,0.7-1.9,1c-0.7,0.3-1.5,0.5-2.3,0.7s-1.7,0.3-2.6,0.3
				c-1.6,0-3-0.3-4.2-0.8s-2.3-1.3-3.2-2.4c-0.9-1-1.6-2.3-2.1-3.8c-0.5-1.5-0.7-3.2-0.7-5.2c0-1.7,0.2-3.2,0.7-4.6
				c0.5-1.4,1.1-2.6,2-3.6c0.9-1,1.9-1.8,3.2-2.3c1.3-0.6,2.7-0.8,4.3-0.8c1.2,0,2.4,0.2,3.5,0.7c1.1,0.4,2,1.1,2.8,1.9
				c0.8,0.8,1.4,1.9,1.9,3.1c0.5,1.2,0.7,2.7,0.7,4.2c0,0.3-0.1,0.5-0.4,0.5H37.8c0,0.2,0,0.3,0,0.5c0,0.1,0,0.3,0,0.5
				c0,1.8,0.2,3.4,0.7,4.8c0.4,1.4,1,2.6,1.8,3.5c0.8,0.9,1.7,1.7,2.9,2.1c1.1,0.5,2.4,0.7,3.7,0.7c1.2,0,2.3-0.1,3.2-0.4
				c0.9-0.3,1.6-0.6,2.3-0.9c0.6-0.3,1.1-0.6,1.4-0.9c0.3-0.3,0.5-0.4,0.6-0.4c0.1,0,0.2,0,0.3,0.1L55,416.1z M54.5,405.3
				c0-1.4-0.2-2.6-0.6-3.7c-0.4-1.1-0.9-2-1.6-2.7c-0.7-0.7-1.5-1.3-2.4-1.7c-0.9-0.4-2-0.6-3.1-0.6c-1.3,0-2.5,0.2-3.5,0.6
				c-1,0.4-1.9,1-2.7,1.8c-0.7,0.8-1.3,1.7-1.8,2.7c-0.5,1.1-0.8,2.3-0.9,3.6H54.5z"/>
			<path class="st0" d="M63.3,400.5c1.1-1.5,2.3-2.6,3.8-3.5c1.5-0.9,3.1-1.3,4.8-1.3c1.3,0,2.4,0.2,3.3,0.6c1,0.4,1.7,1,2.4,1.7
				c0.6,0.7,1.1,1.6,1.4,2.7s0.5,2.3,0.5,3.6v14.7h-1.2v-14.7c0-1.2-0.1-2.3-0.4-3.2c-0.3-0.9-0.7-1.7-1.2-2.4
				c-0.5-0.7-1.2-1.2-2.1-1.5c-0.8-0.3-1.8-0.5-2.9-0.5c-1.7,0-3.2,0.4-4.6,1.3c-1.4,0.9-2.7,2.1-3.8,3.6v17.3h-1.2V396h0.6
				c0.3,0,0.4,0.2,0.5,0.5L63.3,400.5z"/>
		</g>
	</g>
	<g>
		<g>
			<polygon class="st1" points="-153.4,369.6 -155.5,367.2 -131.1,345.6 -109.8,359.2 -111.6,361.9 -130.8,349.7 			"/>
		</g>
		<g>
			<g>
				
					<rect x="-112.7" y="358" transform="matrix(0.5547 0.8321 -0.8321 0.5547 249.7489 252.6009)" class="st1" width="3.3" height="3.3"/>
			</g>
			<g>
				<path class="st1" d="M-103.9,356.8l-1.8-2.7l5-3.3l1.8,2.7L-103.9,356.8z M-94,350.2l-1.8-2.7l5-3.3l1.8,2.7L-94,350.2z"/>
			</g>
			<g>
				
					<rect x="-85.2" y="339.7" transform="matrix(0.5547 0.8321 -0.8321 0.5547 246.7516 221.5548)" class="st1" width="3.3" height="3.3"/>
			</g>
		</g>
		<g>
			<polygon class="st1" points="-82.4,346.5 -85.6,345.7 -84.6,342.1 -88,342.2 -88,338.9 -80.3,338.8 			"/>
		</g>
	</g>
	<g>
		<path class="st2" d="M-147.8,444.7c0,0.1,0,0.1,0.1,0.2c0.1-0.1,0.1-0.3,0.2-0.4l5.9-9.3c0.1-0.1,0.1-0.1,0.2-0.1c0,0,0.1,0,0.2,0
			h0.6l-1.6,13.2h-0.8l1.4-11.3c0-0.1,0-0.1,0-0.2s0-0.2,0-0.3l-5.9,9.2c-0.1,0.2-0.2,0.2-0.4,0.2h-0.1c-0.2,0-0.3-0.1-0.3-0.2
			l-3.7-9.2c0,0.2,0,0.4,0,0.5l-1.4,11.3h-0.8l1.6-13.2h0.6c0.1,0,0.2,0,0.2,0c0,0,0.1,0.1,0.1,0.1l3.8,9.3
			C-147.8,444.5-147.8,444.6-147.8,444.7z"/>
		<path class="st2" d="M-134.9,448.3c-0.5,0-0.9-0.1-1.4-0.3c-0.4-0.2-0.8-0.4-1-0.8c-0.3-0.3-0.5-0.7-0.7-1.2s-0.2-1-0.2-1.6
			c0-0.8,0.1-1.5,0.3-2.2c0.2-0.7,0.5-1.3,0.9-1.8c0.4-0.5,0.9-0.9,1.4-1.3c0.6-0.3,1.2-0.5,1.8-0.5c0.5,0,0.9,0.1,1.4,0.3
			c0.4,0.2,0.8,0.4,1,0.8c0.3,0.3,0.5,0.7,0.7,1.2c0.2,0.5,0.2,1,0.2,1.6c0,0.8-0.1,1.5-0.3,2.2c-0.2,0.7-0.5,1.3-0.9,1.8
			c-0.4,0.5-0.9,1-1.4,1.3C-133.6,448.1-134.2,448.3-134.9,448.3z M-134.8,447.6c0.5,0,1-0.1,1.5-0.4c0.4-0.3,0.8-0.7,1.1-1.1
			c0.3-0.5,0.6-1,0.7-1.6c0.2-0.6,0.3-1.2,0.3-1.9c0-1-0.2-1.8-0.7-2.3c-0.4-0.5-1.1-0.8-1.8-0.8c-0.5,0-1,0.1-1.5,0.4
			c-0.4,0.3-0.8,0.7-1.1,1.1c-0.3,0.5-0.6,1-0.7,1.6c-0.2,0.6-0.3,1.2-0.3,1.9c0,1,0.2,1.8,0.7,2.3
			C-136.2,447.3-135.6,447.6-134.8,447.6z"/>
		<path class="st2" d="M-127.5,448.2l1.1-9.3h0.4c0.2,0,0.3,0.1,0.3,0.3l-0.3,2.7c0.3-0.5,0.5-0.9,0.8-1.3c0.3-0.4,0.6-0.7,1-1
			c0.3-0.3,0.7-0.5,1.1-0.6c0.4-0.1,0.7-0.2,1.1-0.2c0.4,0,0.7,0.1,1,0.2c0.3,0.2,0.5,0.4,0.7,0.7c0.2,0.3,0.3,0.7,0.3,1.1
			c0.1,0.4,0,0.9,0,1.5l-0.7,5.9h-0.9l0.7-5.9c0.1-0.9,0-1.6-0.2-2c-0.2-0.5-0.6-0.7-1.3-0.7c-0.3,0-0.7,0.1-1.1,0.3
			c-0.4,0.2-0.7,0.4-1,0.8c-0.3,0.3-0.6,0.7-0.9,1.2c-0.3,0.5-0.5,1-0.8,1.6l-0.6,4.9H-127.5z"/>
		<path class="st2" d="M-114.8,438.9l-1.1,9.3h-0.9l1.1-9.3H-114.8z M-114.1,435.7c0,0.1,0,0.2-0.1,0.3c0,0.1-0.1,0.2-0.2,0.3
			c-0.1,0.1-0.2,0.1-0.3,0.2c-0.1,0-0.2,0.1-0.3,0.1c-0.1,0-0.2,0-0.3-0.1c-0.1,0-0.2-0.1-0.2-0.2c-0.1-0.1-0.1-0.2-0.2-0.3
			c0-0.1-0.1-0.2-0.1-0.3s0-0.2,0.1-0.3c0-0.1,0.1-0.2,0.2-0.3c0.1-0.1,0.2-0.1,0.2-0.2c0.1,0,0.2-0.1,0.3-0.1c0.1,0,0.2,0,0.3,0.1
			c0.1,0,0.2,0.1,0.3,0.2c0.1,0.1,0.1,0.2,0.2,0.3C-114.1,435.5-114.1,435.6-114.1,435.7z"/>
		<path class="st2" d="M-111.2,446.6c0,0,0-0.1,0-0.1c0-0.1,0-0.1,0-0.3c0-0.1,0-0.3,0-0.4c0-0.2,0-0.4,0.1-0.7l0.6-5.3h-1.2
			c-0.1,0-0.1,0-0.1-0.1c0,0,0-0.1,0-0.2l0-0.3l1.5-0.1l0.6-3.3c0-0.1,0-0.1,0.1-0.1c0,0,0.1-0.1,0.2-0.1h0.4l-0.4,3.5h2.7l-0.1,0.7
			h-2.7l-0.6,5.2c0,0.3-0.1,0.5-0.1,0.6c0,0.2,0,0.3,0,0.4c0,0.1,0,0.2,0,0.2c0,0.1,0,0.1,0,0.1c0,0.4,0.1,0.7,0.3,0.9
			c0.2,0.2,0.4,0.3,0.7,0.3c0.2,0,0.4,0,0.5-0.1c0.2-0.1,0.3-0.1,0.4-0.2c0.1-0.1,0.2-0.1,0.3-0.2c0.1-0.1,0.1-0.1,0.2-0.1
			c0.1,0,0.1,0,0.1,0.1l0.2,0.4c-0.2,0.3-0.5,0.5-0.9,0.6c-0.4,0.2-0.7,0.2-1.1,0.2c-0.5,0-0.9-0.1-1.2-0.4
			C-111,447.6-111.2,447.2-111.2,446.6z"/>
		<path class="st2" d="M-101.4,448.3c-0.5,0-0.9-0.1-1.4-0.3c-0.4-0.2-0.8-0.4-1-0.8c-0.3-0.3-0.5-0.7-0.7-1.2
			c-0.2-0.5-0.2-1-0.2-1.6c0-0.8,0.1-1.5,0.3-2.2c0.2-0.7,0.5-1.3,0.9-1.8c0.4-0.5,0.9-0.9,1.4-1.3c0.6-0.3,1.2-0.5,1.8-0.5
			c0.5,0,0.9,0.1,1.4,0.3c0.4,0.2,0.8,0.4,1,0.8c0.3,0.3,0.5,0.7,0.7,1.2c0.2,0.5,0.2,1,0.2,1.6c0,0.8-0.1,1.5-0.3,2.2
			s-0.5,1.3-0.9,1.8c-0.4,0.5-0.9,1-1.4,1.3S-100.7,448.3-101.4,448.3z M-101.3,447.6c0.5,0,1-0.1,1.5-0.4c0.4-0.3,0.8-0.7,1.1-1.1
			c0.3-0.5,0.6-1,0.7-1.6c0.2-0.6,0.3-1.2,0.3-1.9c0-1-0.2-1.8-0.7-2.3c-0.4-0.5-1.1-0.8-1.8-0.8c-0.5,0-1,0.1-1.5,0.4
			c-0.4,0.3-0.8,0.7-1.1,1.1c-0.3,0.5-0.6,1-0.7,1.6c-0.2,0.6-0.3,1.2-0.3,1.9c0,1,0.2,1.8,0.7,2.3
			C-102.7,447.3-102.1,447.6-101.3,447.6z"/>
		<path class="st2" d="M-94,448.2l1.1-9.3h0.4c0.2,0,0.3,0.1,0.3,0.3l-0.3,2.8c0.3-0.6,0.5-1.1,0.8-1.6c0.3-0.4,0.6-0.8,1-1.1
			c0.3-0.3,0.7-0.4,1.1-0.5c0.4-0.1,0.7,0,1.1,0.1l-0.2,0.8c-0.4-0.2-0.8-0.2-1.2-0.1c-0.4,0.1-0.7,0.3-1.1,0.6
			c-0.3,0.3-0.6,0.7-0.9,1.3c-0.3,0.5-0.5,1.2-0.8,1.9l-0.6,4.7H-94z"/>
		<path class="st2" d="M-84.8,438.9l-1.1,9.3h-0.9l1.1-9.3H-84.8z M-84.1,435.7c0,0.1,0,0.2-0.1,0.3c0,0.1-0.1,0.2-0.2,0.3
			c-0.1,0.1-0.2,0.1-0.3,0.2c-0.1,0-0.2,0.1-0.3,0.1c-0.1,0-0.2,0-0.3-0.1c-0.1,0-0.2-0.1-0.2-0.2c-0.1-0.1-0.1-0.2-0.2-0.3
			c0-0.1-0.1-0.2-0.1-0.3s0-0.2,0.1-0.3c0-0.1,0.1-0.2,0.2-0.3c0.1-0.1,0.2-0.1,0.2-0.2c0.1,0,0.2-0.1,0.3-0.1c0.1,0,0.2,0,0.3,0.1
			c0.1,0,0.2,0.1,0.3,0.2c0.1,0.1,0.1,0.2,0.2,0.3C-84.1,435.5-84.1,435.6-84.1,435.7z"/>
		<path class="st2" d="M-81.9,448.2l1.1-9.3h0.4c0.2,0,0.3,0.1,0.3,0.3l-0.3,2.7c0.3-0.5,0.5-0.9,0.8-1.3c0.3-0.4,0.6-0.7,1-1
			c0.3-0.3,0.7-0.5,1.1-0.6c0.4-0.1,0.7-0.2,1.1-0.2c0.4,0,0.7,0.1,1,0.2c0.3,0.2,0.5,0.4,0.7,0.7c0.2,0.3,0.3,0.7,0.3,1.1
			c0.1,0.4,0,0.9,0,1.5l-0.7,5.9h-0.9l0.7-5.9c0.1-0.9,0-1.6-0.2-2c-0.2-0.5-0.6-0.7-1.3-0.7c-0.3,0-0.7,0.1-1.1,0.3
			c-0.4,0.2-0.7,0.4-1,0.8c-0.3,0.3-0.6,0.7-0.9,1.2c-0.3,0.5-0.5,1-0.8,1.6l-0.6,4.9H-81.9z"/>
		<path class="st2" d="M-64.8,441.3c0,0.3-0.1,0.7-0.1,0.9c-0.1,0.3-0.2,0.5-0.3,0.8s-0.3,0.4-0.4,0.7s-0.3,0.4-0.4,0.6
			s-0.2,0.4-0.3,0.6c-0.1,0.2-0.1,0.4-0.1,0.6c0,0.2,0,0.3,0.1,0.5c0.1,0.1,0.2,0.3,0.3,0.4c0.1,0.1,0.2,0.3,0.4,0.4
			s0.2,0.3,0.4,0.5c0.1,0.2,0.2,0.4,0.3,0.6c0.1,0.2,0.1,0.4,0.1,0.7c0,0.4-0.1,0.8-0.3,1.1c-0.2,0.4-0.5,0.7-0.8,1
			s-0.8,0.5-1.3,0.7c-0.5,0.2-1.1,0.3-1.7,0.3c-0.5,0-0.9,0-1.3-0.1c-0.4-0.1-0.8-0.2-1.1-0.4c-0.3-0.2-0.5-0.4-0.7-0.7
			c-0.2-0.3-0.2-0.6-0.2-0.9c0-0.5,0.2-1,0.5-1.4c0.3-0.4,0.7-0.7,1.3-0.9c0.5-0.2,1.1-0.4,1.8-0.5c0.7-0.1,1.4-0.1,2.1,0
			c-0.1-0.1-0.2-0.3-0.3-0.5c-0.1-0.2-0.1-0.3-0.1-0.5c0-0.2,0-0.4,0.1-0.7c0.1-0.2,0.2-0.5,0.4-0.8c-0.3,0.2-0.5,0.3-0.8,0.4
			c-0.3,0.1-0.6,0.1-0.9,0.1c-0.4,0-0.7-0.1-1-0.2c-0.3-0.1-0.6-0.3-0.8-0.5c-0.2-0.2-0.4-0.5-0.5-0.8c-0.1-0.3-0.2-0.7-0.2-1.1
			c0-0.4,0.1-0.8,0.2-1.3c0.2-0.4,0.4-0.8,0.7-1.1c0.3-0.3,0.6-0.6,1.1-0.8c0.4-0.2,0.9-0.3,1.4-0.3c0.6,0,1.2,0.2,1.6,0.5h2.4
			l0,0.3c0,0.1,0,0.1-0.1,0.2c0,0-0.1,0.1-0.2,0.1l-1.5,0.1c0.1,0.2,0.2,0.4,0.3,0.6C-64.8,440.8-64.8,441.1-64.8,441.3z
			 M-65.8,448.7c0-0.3,0-0.6-0.1-0.8c-0.1-0.2-0.2-0.4-0.4-0.6l0,0c-0.9-0.1-1.7-0.2-2.3-0.1c-0.7,0.1-1.2,0.2-1.7,0.4
			c-0.4,0.2-0.8,0.4-1,0.8c-0.2,0.3-0.3,0.6-0.3,1c0,0.3,0.1,0.5,0.2,0.7c0.1,0.2,0.3,0.4,0.5,0.5c0.2,0.1,0.5,0.2,0.8,0.3
			c0.3,0.1,0.7,0.1,1.1,0.1c0.5,0,0.9-0.1,1.3-0.2c0.4-0.1,0.7-0.3,1-0.5c0.3-0.2,0.5-0.5,0.7-0.7C-65.8,449.2-65.8,449-65.8,448.7z
			 M-68.1,444.2c0.4,0,0.8-0.1,1.1-0.3c0.3-0.2,0.6-0.4,0.8-0.7c0.2-0.3,0.4-0.6,0.5-0.9c0.1-0.3,0.2-0.7,0.2-1
			c0-0.6-0.2-1.1-0.5-1.5c-0.3-0.3-0.8-0.5-1.4-0.5c-0.4,0-0.8,0.1-1.1,0.2c-0.3,0.2-0.6,0.4-0.8,0.6c-0.2,0.3-0.4,0.6-0.5,0.9
			c-0.1,0.3-0.2,0.7-0.2,1c0,0.7,0.2,1.2,0.5,1.5C-69.1,444.1-68.6,444.2-68.1,444.2z"/>
		<path class="st2" d="M-46.7,448.2h-0.7c-0.1,0-0.2,0-0.2-0.1c0,0-0.1-0.1-0.1-0.2l-0.9-3.9h-5.9l-1.9,3.9c0,0.1-0.1,0.1-0.1,0.2
			c-0.1,0-0.1,0.1-0.2,0.1h-0.7l6.6-13.2h0.9L-46.7,448.2z M-54.2,443.4h5.4l-1.6-6.7c0-0.1,0-0.2-0.1-0.4c0-0.1,0-0.3-0.1-0.4
			c-0.1,0.1-0.1,0.3-0.2,0.4c-0.1,0.1-0.1,0.3-0.2,0.4L-54.2,443.4z"/>
		<path class="st2" d="M-37.5,441.3c0,0.3-0.1,0.7-0.1,0.9c-0.1,0.3-0.2,0.5-0.3,0.8c-0.1,0.2-0.3,0.4-0.4,0.7
			c-0.1,0.2-0.3,0.4-0.4,0.6s-0.2,0.4-0.3,0.6c-0.1,0.2-0.1,0.4-0.1,0.6c0,0.2,0,0.3,0.1,0.5c0.1,0.1,0.2,0.3,0.3,0.4
			c0.1,0.1,0.2,0.3,0.4,0.4c0.1,0.1,0.2,0.3,0.4,0.5c0.1,0.2,0.2,0.4,0.3,0.6c0.1,0.2,0.1,0.4,0.1,0.7c0,0.4-0.1,0.8-0.3,1.1
			c-0.2,0.4-0.5,0.7-0.8,1s-0.8,0.5-1.3,0.7c-0.5,0.2-1.1,0.3-1.7,0.3c-0.5,0-0.9,0-1.3-0.1c-0.4-0.1-0.8-0.2-1.1-0.4
			c-0.3-0.2-0.5-0.4-0.7-0.7c-0.2-0.3-0.2-0.6-0.2-0.9c0-0.5,0.2-1,0.5-1.4c0.3-0.4,0.7-0.7,1.3-0.9c0.5-0.2,1.1-0.4,1.8-0.5
			c0.7-0.1,1.4-0.1,2.1,0c-0.1-0.1-0.2-0.3-0.3-0.5c-0.1-0.2-0.1-0.3-0.1-0.5c0-0.2,0-0.4,0.1-0.7c0.1-0.2,0.2-0.5,0.4-0.8
			c-0.3,0.2-0.5,0.3-0.8,0.4c-0.3,0.1-0.6,0.1-0.9,0.1c-0.4,0-0.7-0.1-1-0.2c-0.3-0.1-0.6-0.3-0.8-0.5c-0.2-0.2-0.4-0.5-0.5-0.8
			c-0.1-0.3-0.2-0.7-0.2-1.1c0-0.4,0.1-0.8,0.2-1.3c0.2-0.4,0.4-0.8,0.7-1.1c0.3-0.3,0.6-0.6,1.1-0.8c0.4-0.2,0.9-0.3,1.4-0.3
			c0.6,0,1.2,0.2,1.6,0.5h2.4l0,0.3c0,0.1,0,0.1-0.1,0.2c0,0-0.1,0.1-0.2,0.1l-1.5,0.1c0.1,0.2,0.2,0.4,0.3,0.6
			C-37.5,440.8-37.5,441.1-37.5,441.3z M-38.5,448.7c0-0.3,0-0.6-0.1-0.8c-0.1-0.2-0.2-0.4-0.4-0.6l0,0c-0.9-0.1-1.7-0.2-2.3-0.1
			c-0.7,0.1-1.2,0.2-1.7,0.4c-0.4,0.2-0.8,0.4-1,0.8c-0.2,0.3-0.3,0.6-0.3,1c0,0.3,0.1,0.5,0.2,0.7c0.1,0.2,0.3,0.4,0.5,0.5
			c0.2,0.1,0.5,0.2,0.8,0.3c0.3,0.1,0.7,0.1,1.1,0.1c0.5,0,0.9-0.1,1.3-0.2c0.4-0.1,0.7-0.3,1-0.5c0.3-0.2,0.5-0.5,0.7-0.7
			C-38.6,449.2-38.5,449-38.5,448.7z M-40.8,444.2c0.4,0,0.8-0.1,1.1-0.3c0.3-0.2,0.6-0.4,0.8-0.7c0.2-0.3,0.4-0.6,0.5-0.9
			c0.1-0.3,0.2-0.7,0.2-1c0-0.6-0.2-1.1-0.5-1.5c-0.3-0.3-0.8-0.5-1.4-0.5c-0.4,0-0.8,0.1-1.1,0.2c-0.3,0.2-0.6,0.4-0.8,0.6
			c-0.2,0.3-0.4,0.6-0.5,0.9s-0.2,0.7-0.2,1c0,0.7,0.2,1.2,0.5,1.5C-41.8,444.1-41.4,444.2-40.8,444.2z"/>
		<path class="st2" d="M-34.3,448.2l1.1-9.3h0.4c0.2,0,0.3,0.1,0.3,0.3l-0.3,2.8c0.3-0.6,0.5-1.1,0.8-1.6c0.3-0.4,0.6-0.8,1-1.1
			c0.3-0.3,0.7-0.4,1.1-0.5c0.4-0.1,0.7,0,1.1,0.1l-0.2,0.8c-0.4-0.2-0.8-0.2-1.2-0.1c-0.4,0.1-0.7,0.3-1.1,0.6
			c-0.3,0.3-0.6,0.7-0.9,1.3c-0.3,0.5-0.5,1.2-0.8,1.9l-0.6,4.7H-34.3z"/>
		<path class="st2" d="M-25,438.9l-1.1,9.3H-27l1.1-9.3H-25z M-24.3,435.7c0,0.1,0,0.2-0.1,0.3c0,0.1-0.1,0.2-0.2,0.3
			c-0.1,0.1-0.2,0.1-0.3,0.2c-0.1,0-0.2,0.1-0.3,0.1c-0.1,0-0.2,0-0.3-0.1c-0.1,0-0.2-0.1-0.2-0.2c-0.1-0.1-0.1-0.2-0.2-0.3
			c0-0.1-0.1-0.2-0.1-0.3s0-0.2,0.1-0.3c0-0.1,0.1-0.2,0.2-0.3c0.1-0.1,0.2-0.1,0.2-0.2c0.1,0,0.2-0.1,0.3-0.1c0.1,0,0.2,0,0.3,0.1
			c0.1,0,0.2,0.1,0.3,0.2c0.1,0.1,0.1,0.2,0.2,0.3C-24.3,435.5-24.3,435.6-24.3,435.7z"/>
		<path class="st2" d="M-16.3,447.4c-0.3,0.2-0.6,0.4-0.9,0.6c-0.3,0.1-0.6,0.2-0.9,0.3c-0.3,0-0.6,0.1-0.9,0.1
			c-0.5,0-1-0.1-1.4-0.3c-0.4-0.2-0.7-0.4-1-0.8c-0.3-0.3-0.5-0.7-0.6-1.2c-0.1-0.5-0.2-0.9-0.2-1.5c0-0.5,0.1-1,0.2-1.5
			c0.1-0.5,0.2-0.9,0.4-1.4c0.2-0.4,0.4-0.8,0.7-1.2c0.3-0.4,0.6-0.7,0.9-0.9c0.3-0.3,0.7-0.5,1.1-0.6c0.4-0.2,0.8-0.2,1.3-0.2
			c0.3,0,0.6,0,0.8,0.1c0.2,0.1,0.5,0.1,0.7,0.3c0.2,0.1,0.4,0.2,0.6,0.4c0.2,0.2,0.3,0.3,0.5,0.5l-0.3,0.3
			c-0.1,0.1-0.1,0.1-0.2,0.1c-0.1,0-0.1-0.1-0.2-0.1c-0.1-0.1-0.2-0.2-0.4-0.3c-0.2-0.1-0.3-0.2-0.6-0.3c-0.2-0.1-0.5-0.1-0.9-0.1
			c-0.5,0-1,0.1-1.5,0.4c-0.4,0.3-0.8,0.7-1.2,1.1c-0.3,0.5-0.6,1-0.8,1.6c-0.2,0.6-0.3,1.3-0.3,1.9c0,0.4,0,0.8,0.1,1.2
			c0.1,0.4,0.2,0.7,0.4,0.9c0.2,0.3,0.5,0.5,0.8,0.6c0.3,0.1,0.7,0.2,1.1,0.2c0.3,0,0.6,0,0.9-0.1c0.3-0.1,0.5-0.2,0.7-0.3
			c0.2-0.1,0.4-0.2,0.5-0.3c0.2-0.1,0.3-0.2,0.4-0.3c0.1-0.1,0.2-0.2,0.3-0.3c0.1-0.1,0.2-0.1,0.2-0.1c0.1,0,0.1,0,0.2,0.1l0.2,0.2
			C-15.7,446.9-16,447.2-16.3,447.4z"/>
		<path class="st2" d="M-10.7,438.9l-0.7,5.9c-0.1,0.9,0,1.6,0.2,2c0.2,0.5,0.6,0.7,1.3,0.7c0.3,0,0.7-0.1,1-0.3
			c0.3-0.2,0.7-0.4,1-0.7c0.3-0.3,0.6-0.7,0.9-1.2c0.3-0.5,0.5-1,0.8-1.5l0.6-4.9h0.9l-1.1,9.3h-0.4c-0.1,0-0.2,0-0.3-0.1
			c-0.1-0.1-0.1-0.1-0.1-0.3l0.3-2.6c-0.3,0.5-0.5,0.9-0.8,1.3c-0.3,0.4-0.6,0.7-1,1c-0.3,0.3-0.7,0.5-1,0.6
			c-0.4,0.1-0.7,0.2-1.1,0.2c-0.8,0-1.4-0.3-1.7-0.9c-0.3-0.6-0.4-1.5-0.3-2.6l0.7-5.9H-10.7z"/>
		<path class="st2" d="M-1.8,448.2l1.6-13.5h0.9L-1,448.2H-1.8z"/>
		<path class="st2" d="M3.7,446.6c0,0,0-0.1,0-0.1c0-0.1,0-0.1,0-0.3c0-0.1,0-0.3,0-0.4c0-0.2,0-0.4,0.1-0.7l0.6-5.3H3.3
			c-0.1,0-0.1,0-0.1-0.1s0-0.1,0-0.2l0-0.3l1.5-0.1l0.6-3.3c0-0.1,0-0.1,0.1-0.1c0,0,0.1-0.1,0.2-0.1h0.4l-0.4,3.5h2.7l-0.1,0.7H5.4
			l-0.6,5.2c0,0.3-0.1,0.5-0.1,0.6c0,0.2,0,0.3,0,0.4c0,0.1,0,0.2,0,0.2c0,0.1,0,0.1,0,0.1c0,0.4,0.1,0.7,0.3,0.9
			c0.2,0.2,0.4,0.3,0.7,0.3c0.2,0,0.4,0,0.5-0.1c0.2-0.1,0.3-0.1,0.4-0.2c0.1-0.1,0.2-0.1,0.3-0.2C6.9,447,7,447,7,447
			c0.1,0,0.1,0,0.1,0.1l0.2,0.4c-0.2,0.3-0.5,0.5-0.9,0.6c-0.4,0.2-0.7,0.2-1.1,0.2c-0.5,0-0.9-0.1-1.2-0.4
			C3.9,447.6,3.7,447.2,3.7,446.6z"/>
		<path class="st2" d="M12.4,438.9l-0.7,5.9c-0.1,0.9,0,1.6,0.2,2c0.2,0.5,0.6,0.7,1.3,0.7c0.3,0,0.7-0.1,1-0.3
			c0.3-0.2,0.7-0.4,1-0.7c0.3-0.3,0.6-0.7,0.9-1.2s0.5-1,0.8-1.5l0.6-4.9h0.9l-1.1,9.3h-0.4c-0.1,0-0.2,0-0.3-0.1
			c-0.1-0.1-0.1-0.1-0.1-0.3l0.3-2.6c-0.3,0.5-0.5,0.9-0.8,1.3c-0.3,0.4-0.6,0.7-1,1c-0.3,0.3-0.7,0.5-1,0.6
			c-0.4,0.1-0.7,0.2-1.1,0.2c-0.8,0-1.4-0.3-1.7-0.9c-0.3-0.6-0.4-1.5-0.3-2.6l0.7-5.9H12.4z"/>
		<path class="st2" d="M21.1,448.2l1.1-9.3h0.4c0.2,0,0.3,0.1,0.3,0.3l-0.3,2.8c0.3-0.6,0.5-1.1,0.8-1.6c0.3-0.4,0.6-0.8,1-1.1
			c0.3-0.3,0.7-0.4,1.1-0.5c0.4-0.1,0.7,0,1.1,0.1l-0.2,0.8c-0.4-0.2-0.8-0.2-1.2-0.1c-0.4,0.1-0.7,0.3-1.1,0.6
			c-0.3,0.3-0.6,0.7-0.9,1.3c-0.3,0.5-0.5,1.2-0.8,1.9l-0.6,4.7H21.1z"/>
		<path class="st2" d="M34.9,440.7c0,0.3,0,0.5-0.1,0.7c-0.1,0.2-0.2,0.4-0.4,0.7c-0.2,0.2-0.4,0.4-0.7,0.6
			c-0.3,0.2-0.7,0.4-1.1,0.5s-1,0.3-1.7,0.4c-0.6,0.1-1.4,0.2-2.3,0.3c0,0.1,0,0.3,0,0.4c0,0.1,0,0.3,0,0.4c0,0.9,0.2,1.6,0.6,2.2
			c0.4,0.5,1,0.8,1.9,0.8c0.3,0,0.6,0,0.9-0.1c0.3-0.1,0.5-0.2,0.7-0.3c0.2-0.1,0.4-0.2,0.5-0.4c0.2-0.1,0.3-0.2,0.4-0.4
			c0.1-0.1,0.2-0.2,0.3-0.3c0.1-0.1,0.2-0.1,0.2-0.1s0.1,0,0.2,0.1l0.2,0.2c-0.3,0.3-0.6,0.6-0.9,0.8c-0.3,0.2-0.6,0.4-0.9,0.6
			s-0.6,0.3-0.9,0.3c-0.3,0.1-0.7,0.1-1,0.1c-0.5,0-1-0.1-1.4-0.3c-0.4-0.2-0.7-0.4-1-0.7c-0.3-0.3-0.5-0.7-0.6-1.1
			c-0.1-0.4-0.2-1-0.2-1.5c0-0.5,0-0.9,0.1-1.4c0.1-0.5,0.2-0.9,0.4-1.4c0.2-0.4,0.4-0.8,0.7-1.2c0.3-0.4,0.6-0.7,0.9-1
			c0.3-0.3,0.7-0.5,1.2-0.7c0.4-0.2,0.9-0.2,1.4-0.2c0.5,0,0.8,0.1,1.2,0.2c0.3,0.1,0.6,0.3,0.8,0.5c0.2,0.2,0.3,0.4,0.4,0.6
			C34.9,440.3,34.9,440.5,34.9,440.7z M32.4,439.4c-0.5,0-0.9,0.1-1.3,0.3s-0.8,0.5-1.1,0.8c-0.3,0.4-0.6,0.8-0.8,1.2
			c-0.2,0.5-0.4,0.9-0.5,1.4c0.8-0.1,1.5-0.2,2-0.3c0.6-0.1,1.1-0.2,1.5-0.4s0.7-0.3,1-0.4c0.2-0.1,0.4-0.3,0.6-0.5
			c0.1-0.2,0.2-0.3,0.3-0.5c0-0.2,0.1-0.3,0.1-0.5c0-0.1,0-0.3-0.1-0.4c-0.1-0.2-0.2-0.3-0.3-0.4c-0.1-0.1-0.3-0.2-0.5-0.3
			C33,439.5,32.7,439.4,32.4,439.4z"/>
		<path class="st2" d="M45.3,442.9l-0.7,5.3h-0.9l1.6-13.2h3.2c1.3,0,2.3,0.3,2.9,0.9c0.6,0.6,1,1.4,1,2.4c0,0.7-0.1,1.3-0.3,1.8
			s-0.6,1-1,1.4c-0.4,0.4-0.9,0.7-1.5,0.9c-0.6,0.2-1.3,0.3-2,0.3H45.3z M46.2,435.7l-0.8,6.4h2.2c0.6,0,1.1-0.1,1.6-0.3
			c0.5-0.2,0.9-0.4,1.2-0.8c0.3-0.3,0.6-0.7,0.8-1.2c0.2-0.5,0.3-0.9,0.3-1.5c0-0.8-0.3-1.5-0.8-2c-0.5-0.5-1.3-0.7-2.3-0.7H46.2z"
			/>
		<path class="st2" d="M54.3,448.2l1.1-9.3h0.4c0.2,0,0.3,0.1,0.3,0.3l-0.3,2.8c0.3-0.6,0.5-1.1,0.8-1.6c0.3-0.4,0.6-0.8,1-1.1
			c0.3-0.3,0.7-0.4,1.1-0.5c0.4-0.1,0.7,0,1.1,0.1l-0.2,0.8c-0.4-0.2-0.8-0.2-1.2-0.1c-0.4,0.1-0.7,0.3-1.1,0.6
			c-0.3,0.3-0.6,0.7-0.9,1.3c-0.3,0.5-0.5,1.2-0.8,1.9l-0.6,4.7H54.3z"/>
		<path class="st2" d="M64.3,448.3c-0.5,0-0.9-0.1-1.4-0.3c-0.4-0.2-0.8-0.4-1-0.8c-0.3-0.3-0.5-0.7-0.7-1.2c-0.2-0.5-0.2-1-0.2-1.6
			c0-0.8,0.1-1.5,0.3-2.2c0.2-0.7,0.5-1.3,0.9-1.8c0.4-0.5,0.9-0.9,1.4-1.3c0.6-0.3,1.2-0.5,1.8-0.5c0.5,0,0.9,0.1,1.4,0.3
			c0.4,0.2,0.8,0.4,1,0.8c0.3,0.3,0.5,0.7,0.7,1.2c0.2,0.5,0.2,1,0.2,1.6c0,0.8-0.1,1.5-0.3,2.2s-0.5,1.3-0.9,1.8
			c-0.4,0.5-0.9,1-1.4,1.3C65.5,448.1,64.9,448.3,64.3,448.3z M64.3,447.6c0.5,0,1-0.1,1.5-0.4c0.4-0.3,0.8-0.7,1.1-1.1
			c0.3-0.5,0.6-1,0.7-1.6c0.2-0.6,0.3-1.2,0.3-1.9c0-1-0.2-1.8-0.7-2.3c-0.4-0.5-1.1-0.8-1.8-0.8c-0.5,0-1,0.1-1.5,0.4
			c-0.4,0.3-0.8,0.7-1.1,1.1c-0.3,0.5-0.6,1-0.7,1.6c-0.2,0.6-0.3,1.2-0.3,1.9c0,1,0.2,1.8,0.7,2.3
			C62.9,447.3,63.5,447.6,64.3,447.6z"/>
		<path class="st2" d="M73.7,438.9l-1.3,10.4c0,0.3-0.1,0.6-0.2,0.9c-0.1,0.3-0.3,0.5-0.5,0.7c-0.2,0.2-0.4,0.4-0.7,0.5
			s-0.6,0.2-0.9,0.2c-0.2,0-0.3,0-0.5,0c-0.1,0-0.3-0.1-0.4-0.1l0.1-0.4c0-0.1,0.1-0.1,0.1-0.1c0,0,0.1,0,0.1,0c0,0,0.1,0,0.2,0
			c0.1,0,0.2,0,0.3,0c0.5,0,0.8-0.1,1.1-0.4c0.3-0.3,0.4-0.7,0.5-1.2l1.3-10.4H73.7z M74.4,435.7c0,0.1,0,0.2-0.1,0.3
			c0,0.1-0.1,0.2-0.2,0.3c-0.1,0.1-0.2,0.1-0.3,0.2c-0.1,0-0.2,0.1-0.3,0.1c-0.1,0-0.2,0-0.3-0.1c-0.1,0-0.2-0.1-0.2-0.2
			c-0.1-0.1-0.1-0.2-0.2-0.3c0-0.1-0.1-0.2-0.1-0.3s0-0.2,0.1-0.3c0-0.1,0.1-0.2,0.2-0.3c0.1-0.1,0.2-0.1,0.2-0.2
			c0.1,0,0.2-0.1,0.3-0.1c0.1,0,0.2,0,0.3,0.1c0.1,0,0.2,0.1,0.3,0.2c0.1,0.1,0.1,0.2,0.2,0.3C74.4,435.5,74.4,435.6,74.4,435.7z"/>
		<path class="st2" d="M83.7,440.7c0,0.3,0,0.5-0.1,0.7c-0.1,0.2-0.2,0.4-0.4,0.7c-0.2,0.2-0.4,0.4-0.7,0.6
			c-0.3,0.2-0.7,0.4-1.1,0.5c-0.5,0.2-1,0.3-1.7,0.4c-0.6,0.1-1.4,0.2-2.3,0.3c0,0.1,0,0.3,0,0.4c0,0.1,0,0.3,0,0.4
			c0,0.9,0.2,1.6,0.6,2.2c0.4,0.5,1,0.8,1.9,0.8c0.3,0,0.6,0,0.9-0.1c0.3-0.1,0.5-0.2,0.7-0.3c0.2-0.1,0.4-0.2,0.5-0.4
			c0.2-0.1,0.3-0.2,0.4-0.4c0.1-0.1,0.2-0.2,0.3-0.3c0.1-0.1,0.2-0.1,0.2-0.1c0.1,0,0.1,0,0.2,0.1l0.2,0.2c-0.3,0.3-0.6,0.6-0.9,0.8
			c-0.3,0.2-0.6,0.4-0.9,0.6c-0.3,0.1-0.6,0.3-0.9,0.3c-0.3,0.1-0.7,0.1-1,0.1c-0.5,0-1-0.1-1.4-0.3c-0.4-0.2-0.7-0.4-1-0.7
			c-0.3-0.3-0.5-0.7-0.6-1.1c-0.1-0.4-0.2-1-0.2-1.5c0-0.5,0-0.9,0.1-1.4c0.1-0.5,0.2-0.9,0.4-1.4c0.2-0.4,0.4-0.8,0.7-1.2
			c0.3-0.4,0.6-0.7,0.9-1c0.3-0.3,0.7-0.5,1.2-0.7c0.4-0.2,0.9-0.2,1.4-0.2c0.5,0,0.8,0.1,1.2,0.2c0.3,0.1,0.6,0.3,0.8,0.5
			c0.2,0.2,0.3,0.4,0.4,0.6C83.6,440.3,83.7,440.5,83.7,440.7z M81.2,439.4c-0.5,0-0.9,0.1-1.3,0.3c-0.4,0.2-0.8,0.5-1.1,0.8
			c-0.3,0.4-0.6,0.8-0.8,1.2c-0.2,0.5-0.4,0.9-0.5,1.4c0.8-0.1,1.5-0.2,2-0.3c0.6-0.1,1.1-0.2,1.5-0.4s0.7-0.3,1-0.4
			c0.2-0.1,0.4-0.3,0.6-0.5c0.1-0.2,0.2-0.3,0.3-0.5c0-0.2,0.1-0.3,0.1-0.5c0-0.1,0-0.3-0.1-0.4c-0.1-0.2-0.2-0.3-0.3-0.4
			c-0.1-0.1-0.3-0.2-0.5-0.3C81.8,439.5,81.5,439.4,81.2,439.4z"/>
		<path class="st2" d="M92.1,447.4c-0.3,0.2-0.6,0.4-0.9,0.6c-0.3,0.1-0.6,0.2-0.9,0.3c-0.3,0-0.6,0.1-0.9,0.1c-0.5,0-1-0.1-1.4-0.3
			c-0.4-0.2-0.7-0.4-1-0.8c-0.3-0.3-0.5-0.7-0.6-1.2c-0.1-0.5-0.2-0.9-0.2-1.5c0-0.5,0.1-1,0.2-1.5c0.1-0.5,0.2-0.9,0.4-1.4
			c0.2-0.4,0.4-0.8,0.7-1.2c0.3-0.4,0.6-0.7,0.9-0.9c0.3-0.3,0.7-0.5,1.1-0.6c0.4-0.2,0.8-0.2,1.3-0.2c0.3,0,0.6,0,0.8,0.1
			c0.2,0.1,0.5,0.1,0.7,0.3c0.2,0.1,0.4,0.2,0.6,0.4c0.2,0.2,0.3,0.3,0.5,0.5l-0.3,0.3c-0.1,0.1-0.1,0.1-0.2,0.1
			c-0.1,0-0.1-0.1-0.2-0.1c-0.1-0.1-0.2-0.2-0.4-0.3c-0.2-0.1-0.3-0.2-0.6-0.3c-0.2-0.1-0.5-0.1-0.9-0.1c-0.5,0-1,0.1-1.5,0.4
			c-0.4,0.3-0.8,0.7-1.2,1.1c-0.3,0.5-0.6,1-0.8,1.6c-0.2,0.6-0.3,1.3-0.3,1.9c0,0.4,0,0.8,0.1,1.2c0.1,0.4,0.2,0.7,0.4,0.9
			c0.2,0.3,0.5,0.5,0.8,0.6c0.3,0.1,0.7,0.2,1.1,0.2c0.3,0,0.6,0,0.9-0.1c0.3-0.1,0.5-0.2,0.7-0.3c0.2-0.1,0.4-0.2,0.5-0.3
			c0.2-0.1,0.3-0.2,0.4-0.3c0.1-0.1,0.2-0.2,0.3-0.3c0.1-0.1,0.2-0.1,0.2-0.1s0.1,0,0.2,0.1l0.2,0.2
			C92.7,446.9,92.3,447.2,92.1,447.4z"/>
		<path class="st2" d="M96.5,446.6c0,0,0-0.1,0-0.1c0-0.1,0-0.1,0-0.3c0-0.1,0-0.3,0-0.4c0-0.2,0-0.4,0.1-0.7l0.6-5.3h-1.2
			c-0.1,0-0.1,0-0.1-0.1s0-0.1,0-0.2l0-0.3l1.5-0.1l0.6-3.3c0-0.1,0-0.1,0.1-0.1c0,0,0.1-0.1,0.2-0.1h0.4l-0.4,3.5h2.7l-0.1,0.7
			h-2.7l-0.6,5.2c0,0.3-0.1,0.5-0.1,0.6c0,0.2,0,0.3,0,0.4c0,0.1,0,0.2,0,0.2c0,0.1,0,0.1,0,0.1c0,0.4,0.1,0.7,0.3,0.9
			c0.2,0.2,0.4,0.3,0.7,0.3c0.2,0,0.4,0,0.5-0.1c0.2-0.1,0.3-0.1,0.4-0.2c0.1-0.1,0.2-0.1,0.3-0.2c0.1-0.1,0.1-0.1,0.2-0.1
			c0.1,0,0.1,0,0.1,0.1l0.2,0.4c-0.2,0.3-0.5,0.5-0.9,0.6s-0.7,0.2-1.1,0.2c-0.5,0-0.9-0.1-1.2-0.4
			C96.6,447.6,96.5,447.2,96.5,446.6z"/>
		<path class="st2" d="M109,440.1c-0.1,0.1-0.1,0.1-0.2,0.1c-0.1,0-0.1,0-0.2-0.1c-0.1-0.1-0.2-0.2-0.4-0.3
			c-0.2-0.1-0.3-0.2-0.6-0.3c-0.2-0.1-0.5-0.1-0.9-0.1c-0.3,0-0.6,0.1-0.9,0.2c-0.3,0.1-0.5,0.2-0.7,0.4c-0.2,0.2-0.4,0.4-0.5,0.6
			c-0.1,0.2-0.2,0.5-0.2,0.7c0,0.3,0.1,0.5,0.2,0.6c0.1,0.2,0.3,0.3,0.5,0.5c0.2,0.1,0.4,0.2,0.7,0.3c0.2,0.1,0.5,0.2,0.8,0.3
			c0.3,0.1,0.5,0.2,0.8,0.3c0.2,0.1,0.5,0.3,0.7,0.4c0.2,0.2,0.4,0.4,0.5,0.6c0.1,0.2,0.2,0.5,0.2,0.8c0,0.4-0.1,0.8-0.2,1.2
			c-0.2,0.4-0.4,0.7-0.7,1c-0.3,0.3-0.6,0.5-1.1,0.7c-0.4,0.2-0.9,0.3-1.4,0.3c-0.6,0-1.1-0.1-1.5-0.3c-0.4-0.2-0.8-0.5-1-0.8
			l0.2-0.3c0.1-0.1,0.2-0.1,0.3-0.1c0.1,0,0.1,0.1,0.2,0.1c0.1,0.1,0.2,0.2,0.4,0.3c0.2,0.1,0.4,0.2,0.6,0.3c0.3,0.1,0.6,0.1,1,0.1
			c0.4,0,0.7-0.1,1-0.2c0.3-0.1,0.6-0.3,0.8-0.5c0.2-0.2,0.4-0.5,0.5-0.7c0.1-0.3,0.2-0.6,0.2-0.9c0-0.3-0.1-0.5-0.2-0.7
			c-0.1-0.2-0.3-0.3-0.5-0.5c-0.2-0.1-0.4-0.2-0.7-0.3c-0.2-0.1-0.5-0.2-0.8-0.3c-0.3-0.1-0.5-0.2-0.8-0.3c-0.2-0.1-0.5-0.2-0.7-0.4
			c-0.2-0.2-0.4-0.3-0.5-0.6c-0.1-0.2-0.2-0.5-0.2-0.8c0-0.4,0.1-0.7,0.2-1c0.2-0.3,0.4-0.6,0.7-0.9c0.3-0.3,0.6-0.5,1-0.6
			c0.4-0.2,0.8-0.2,1.3-0.2c0.5,0,1,0.1,1.4,0.2c0.4,0.2,0.7,0.4,1,0.7L109,440.1z"/>
	</g>
</g>
</svg>
