<?xml version="1.0" encoding="utf-8"?>
<!-- Generator: Adobe Illustrator 19.1.0, SVG Export Plug-In . SVG Version: 6.00 Build 0)  -->
<svg version="1.1" id="Layer_1" xmlns="http://www.w3.org/2000/svg" xmlns:xlink="http://www.w3.org/1999/xlink" x="0px" y="0px"
	 viewBox="0 0 281 127" style="enable-background:new 0 0 281 127;" xml:space="preserve">
<style type="text/css">
	.st0{fill:#2B2241;}
	.st1{fill:#93CD88;}
</style>
<g>
	<g>
		<g>
			<path class="st0" d="M42.7,54.9c-0.5,0.2-0.8,0.5-1,1.1c-0.2,0.5-0.3,1.3-0.3,2.5v22.6c0,1.1,0.1,2,0.3,2.5
				c0.2,0.5,0.5,0.9,1,1.1c0.5,0.2,1.3,0.3,2.4,0.4v0.9c-1.4-0.1-3.3-0.1-5.8-0.1c-2.6,0-4.5,0-5.8,0.1V85c1.1,0,1.9-0.2,2.4-0.4
				s0.8-0.5,1-1.1c0.2-0.5,0.3-1.3,0.3-2.5V56.7L26.2,86.1h-0.7L14,56.6v24c0,1.2,0.1,2.1,0.3,2.6c0.2,0.6,0.6,1,1.2,1.3
				s1.5,0.4,2.7,0.5v0.9c-1.1-0.1-2.6-0.1-4.6-0.1c-1.8,0-3.2,0-4.2,0.1V85c1.1,0,1.8-0.2,2.3-0.5s0.9-0.7,1.1-1.3
				c0.2-0.6,0.3-1.5,0.3-2.6V58.5c0-1.1-0.1-2-0.3-2.5c-0.2-0.5-0.5-0.9-1-1.1c-0.5-0.2-1.3-0.3-2.4-0.4v-0.9c1,0.1,2.4,0.1,4.2,0.1
				c1.6,0,2.9,0,3.9-0.1l10,26.4l9.8-26.2h2.2c2.4,0,4.4,0,5.8-0.1v0.9C44,54.6,43.2,54.8,42.7,54.9z"/>
			<path class="st0" d="M79.6,85v0.9c-1.2-0.1-2.9-0.1-4.9-0.1c-2.6,0-4.5,0-5.8,0.1V85c1.2,0,2-0.2,2.5-0.4
				c0.5-0.2,0.7-0.7,0.7-1.3c0-0.5-0.2-1.2-0.5-2.1l-2.8-7.5h-11L56,78.5C55.4,80,55,81.3,55,82.2c0,1,0.3,1.7,1,2.1
				c0.6,0.4,1.6,0.6,3,0.7v0.9c-1.7-0.1-3.5-0.1-5.2-0.1c-1.4,0-2.5,0-3.4,0.1V85c1.5-0.3,2.7-1.7,3.6-4l10.7-27.6h0.7l11.1,28.6
				C77.2,83.9,78.2,84.9,79.6,85z M63.4,59.2l-5.2,13.6h10.3L63.4,59.2z"/>
			<path class="st0" d="M91.8,81.1c0,1.1,0.1,2,0.4,2.5c0.2,0.5,0.7,0.9,1.3,1.1s1.6,0.3,3,0.4v0.9c-1.6-0.1-3.8-0.1-6.7-0.1
				c-2.6,0-4.5,0-5.8,0.1V85c1.1,0,1.9-0.2,2.4-0.4c0.5-0.2,0.8-0.5,1-1.1c0.2-0.5,0.3-1.3,0.3-2.5V58.5c0-1.1-0.1-2-0.3-2.5
				c-0.2-0.5-0.5-0.9-1-1.1c-0.5-0.2-1.3-0.3-2.4-0.4v-0.9c1.3,0.1,3.1,0.1,5.6,0.1c0.5,0,2.2,0,4.9-0.1l1.9,0c2.4,0,4.4,0.4,6,1.1
				c1.6,0.7,2.9,1.8,3.7,3.1c0.8,1.3,1.2,2.9,1.2,4.7c0,1.7-0.4,3.3-1.1,4.8c-0.7,1.5-2,2.8-3.8,3.8c-1.8,1-4.1,1.5-7.1,1.5h-3.5
				V81.1z M93.1,54.9c-0.5,0.2-0.8,0.6-1,1.1c-0.2,0.5-0.3,1.4-0.3,2.4V72h3.1c3,0,5-0.8,6.1-2.4s1.7-3.7,1.7-6.4
				c0-2-0.3-3.6-0.8-4.8c-0.5-1.3-1.3-2.2-2.4-2.8c-1.1-0.6-2.6-0.9-4.4-0.9C94.3,54.6,93.5,54.7,93.1,54.9z"/>
		</g>
	</g>
	<g>
		<g>
			<path class="st0" d="M137.9,53.7v1.1h-17.6v14.2h14.8v1h-14.8v14.6h17.7l0,1.1H119v-32H137.9z"/>
			<path class="st0" d="M150.7,62.9c1,0,1.9,0.1,2.7,0.4s1.6,0.6,2.2,1h5.6v0.4c0,0.1,0,0.2-0.1,0.3s-0.2,0.1-0.3,0.1l-4,0.2
				c0.6,0.6,1,1.3,1.3,2.1s0.5,1.7,0.5,2.6c0,1.1-0.2,2.1-0.6,2.9c-0.4,0.9-0.9,1.6-1.6,2.3s-1.5,1.1-2.4,1.5c-1,0.3-2,0.5-3.2,0.5
				c-0.7,0-1.4-0.1-2-0.2c-0.6-0.1-1.2-0.3-1.8-0.6c-0.7,0.4-1.3,0.9-1.7,1.5c-0.4,0.6-0.6,1.1-0.6,1.7c0,0.7,0.2,1.3,0.7,1.6
				c0.5,0.4,1.1,0.7,1.8,0.8s1.6,0.3,2.6,0.4c1,0.1,2,0.1,3,0.1c1,0,2,0.1,3,0.2s1.8,0.3,2.6,0.7s1.4,0.8,1.8,1.4s0.7,1.4,0.7,2.4
				c0,0.9-0.2,1.8-0.7,2.6c-0.5,0.8-1.1,1.6-2,2.2c-0.9,0.6-1.9,1.1-3.1,1.5c-1.2,0.4-2.6,0.6-4.1,0.6c-1.5,0-2.9-0.2-4.1-0.5
				s-2.2-0.8-3-1.3c-0.8-0.6-1.4-1.2-1.8-1.9c-0.4-0.7-0.6-1.5-0.6-2.3c0-1.2,0.4-2.3,1.2-3.2c0.8-0.9,2-1.6,3.4-2.1
				c-0.8-0.2-1.5-0.6-2-1.1c-0.5-0.5-0.7-1.1-0.7-2c0-0.3,0.1-0.6,0.2-1c0.1-0.3,0.3-0.7,0.5-1c0.2-0.3,0.5-0.6,0.9-0.9
				c0.3-0.3,0.7-0.6,1.1-0.8c-1-0.6-1.9-1.4-2.4-2.5c-0.6-1-0.9-2.2-0.9-3.6c0-1.1,0.2-2,0.5-2.9c0.4-0.9,0.9-1.6,1.6-2.3
				c0.7-0.6,1.5-1.1,2.4-1.5S149.5,62.9,150.7,62.9z M159.8,87.4c0-0.8-0.2-1.4-0.6-1.9s-0.9-0.8-1.6-1.1c-0.7-0.3-1.4-0.5-2.3-0.6
				s-1.8-0.2-2.7-0.2c-0.9-0.1-1.9-0.1-2.8-0.1c-0.9,0-1.8-0.1-2.6-0.3c-0.7,0.2-1.3,0.5-1.8,0.9c-0.6,0.3-1,0.7-1.4,1.1
				c-0.4,0.4-0.7,0.9-0.9,1.4c-0.2,0.5-0.3,1-0.3,1.6c0,0.7,0.2,1.4,0.6,2c0.4,0.6,0.9,1.2,1.6,1.6c0.7,0.5,1.6,0.8,2.6,1.1
				c1,0.3,2.2,0.4,3.5,0.4c1.2,0,2.3-0.1,3.4-0.4c1.1-0.3,2-0.7,2.8-1.2c0.8-0.5,1.4-1.1,1.9-1.9S159.8,88.2,159.8,87.4z
				 M150.7,76.3c1,0,2-0.2,2.8-0.5c0.8-0.3,1.5-0.7,2.1-1.3c0.6-0.6,1-1.2,1.3-2s0.4-1.6,0.4-2.6c0-0.9-0.2-1.8-0.5-2.5
				c-0.3-0.8-0.7-1.4-1.3-2s-1.3-1-2.1-1.3c-0.8-0.3-1.8-0.5-2.8-0.5c-1,0-2,0.2-2.8,0.5c-0.8,0.3-1.5,0.7-2.1,1.3s-1,1.2-1.3,2
				c-0.3,0.8-0.5,1.6-0.5,2.5c0,0.9,0.2,1.8,0.5,2.6c0.3,0.8,0.7,1.4,1.3,2c0.6,0.6,1.3,1,2.1,1.3C148.7,76.2,149.7,76.3,150.7,76.3
				z"/>
			<path class="st0" d="M171,93.2c-0.1,0.2-0.2,0.3-0.3,0.4c-0.1,0.1-0.3,0.2-0.5,0.2h-0.8l3.9-8.7l-9.6-21.9h0.9
				c0.2,0,0.3,0,0.4,0.1s0.2,0.2,0.2,0.3l8.4,19.2c0.1,0.3,0.2,0.7,0.3,1c0.1-0.3,0.2-0.7,0.4-1l8.3-19.2c0.1-0.1,0.1-0.2,0.2-0.3
				c0.1-0.1,0.2-0.1,0.3-0.1h0.8L171,93.2z"/>
			<path class="st0" d="M189.1,93.8V63.3h0.6c0.3,0,0.4,0.2,0.5,0.5l0.1,3.9c1-1.5,2.2-2.6,3.6-3.5c1.4-0.8,2.9-1.3,4.6-1.3
				c2.8,0,5,0.9,6.6,2.8c1.5,1.9,2.3,4.8,2.3,8.6c0,1.6-0.2,3.2-0.6,4.6c-0.4,1.4-1,2.6-1.9,3.7s-1.8,1.9-3.1,2.5
				c-1.2,0.6-2.6,0.9-4.2,0.9c-3.2,0-5.6-1.2-7.2-3.7v11.5H189.1z M198.2,63.8c-1.6,0-3,0.4-4.4,1.3c-1.3,0.9-2.5,2.1-3.5,3.6V81
				c0.9,1.5,2,2.5,3.1,3.1c1.1,0.6,2.4,0.9,3.9,0.9c1.5,0,2.8-0.3,3.8-0.8c1.1-0.5,2-1.3,2.7-2.2c0.7-1,1.3-2.1,1.6-3.4
				c0.4-1.3,0.5-2.7,0.5-4.3c0-3.6-0.7-6.2-2-7.9C202.7,64.7,200.8,63.8,198.2,63.8z"/>
			<path class="st0" d="M219.4,86c-1.4,0-2.5-0.4-3.3-1.1c-0.8-0.8-1.2-2-1.2-3.7V65h-3.5c-0.3,0-0.4-0.1-0.4-0.3v-0.4l3.9-0.2
				l0.3-8.6c0-0.1,0.1-0.2,0.1-0.3c0.1-0.1,0.1-0.1,0.2-0.1h0.5v9h7.4V65h-7.4v16.1c0,0.7,0.1,1.3,0.3,1.8s0.4,0.9,0.7,1.2
				c0.3,0.3,0.7,0.5,1.1,0.7c0.4,0.1,0.9,0.2,1.4,0.2c0.6,0,1.1-0.1,1.6-0.3c0.4-0.2,0.8-0.4,1.1-0.6s0.6-0.4,0.8-0.6
				c0.2-0.2,0.3-0.3,0.4-0.3c0.1,0,0.2,0,0.2,0.1l0.3,0.4c-0.3,0.3-0.6,0.6-0.9,0.9c-0.3,0.3-0.7,0.5-1.1,0.7s-0.8,0.3-1.3,0.4
				C220.3,86,219.9,86,219.4,86z"/>
		</g>
	</g>
</g>
<g>
	<g>
		<polygon class="st1" points="11.6,36.9 9.5,34.5 33.4,13.3 54.3,26.6 52.6,29.3 33.7,17.3 		"/>
	</g>
	<g>
		<g>
			
				<rect x="51.5" y="25.5" transform="matrix(0.5547 0.8321 -0.8321 0.5547 46.147 -32.1044)" class="st1" width="3.2" height="3.2"/>
		</g>
		<g>
			<path class="st1" d="M60.2,24.3l-1.8-2.7l4.9-3.2L65,21L60.2,24.3z M69.9,17.8l-1.8-2.7l4.9-3.2l1.8,2.7L69.9,17.8z"/>
		</g>
		<g>
			
				<rect x="78.5" y="7.5" transform="matrix(0.5547 0.8321 -0.8321 0.5547 43.2055 -62.5721)" class="st1" width="3.2" height="3.2"/>
		</g>
	</g>
	<g>
		<polygon class="st1" points="81.2,14.2 78.2,13.4 79.1,9.9 75.8,9.9 75.7,6.7 83.3,6.6 		"/>
	</g>
</g>
<g>
	<path class="st0" d="M16.8,111.6c0,0.1,0,0.1,0.1,0.2c0.1-0.1,0.1-0.3,0.2-0.4l6-9.3c0.1-0.1,0.1-0.1,0.2-0.1c0,0,0.1,0,0.2,0h0.6
		l-1.6,13.2h-0.8l1.4-11.3c0-0.1,0-0.1,0-0.2s0-0.2,0-0.3l-5.9,9.2c-0.1,0.2-0.2,0.2-0.4,0.2h-0.1c-0.2,0-0.3-0.1-0.3-0.2l-3.7-9.3
		c0,0.2,0,0.4,0,0.5l-1.4,11.3h-0.8l1.6-13.2h0.6c0.1,0,0.2,0,0.2,0c0,0,0.1,0.1,0.1,0.1l3.8,9.3C16.8,111.4,16.8,111.5,16.8,111.6z
		"/>
	<path class="st0" d="M29.8,115.2c-0.5,0-0.9-0.1-1.4-0.3c-0.4-0.2-0.8-0.4-1-0.8c-0.3-0.3-0.5-0.7-0.7-1.2c-0.2-0.5-0.2-1-0.2-1.6
		c0-0.8,0.1-1.5,0.3-2.2c0.2-0.7,0.5-1.3,0.9-1.8c0.4-0.5,0.9-0.9,1.5-1.3c0.6-0.3,1.2-0.5,1.8-0.5c0.5,0,0.9,0.1,1.4,0.3
		c0.4,0.2,0.8,0.4,1,0.8c0.3,0.3,0.5,0.7,0.7,1.2c0.2,0.5,0.2,1,0.2,1.6c0,0.8-0.1,1.5-0.3,2.2s-0.5,1.3-0.9,1.8
		c-0.4,0.5-0.9,1-1.4,1.3C31.1,115,30.4,115.2,29.8,115.2z M29.8,114.5c0.5,0,1-0.1,1.5-0.4c0.4-0.3,0.8-0.7,1.1-1.1
		c0.3-0.5,0.6-1,0.7-1.6c0.2-0.6,0.3-1.2,0.3-1.9c0-1-0.2-1.8-0.7-2.3c-0.4-0.5-1.1-0.8-1.8-0.8c-0.5,0-1,0.1-1.5,0.4
		c-0.4,0.3-0.8,0.7-1.1,1.1c-0.3,0.5-0.6,1-0.7,1.6c-0.2,0.6-0.3,1.2-0.3,1.9c0,1,0.2,1.8,0.7,2.3C28.4,114.2,29.1,114.5,29.8,114.5
		z"/>
	<path class="st0" d="M37.1,115.1l1.1-9.3h0.4c0.2,0,0.3,0.1,0.3,0.3l-0.3,2.7c0.3-0.5,0.5-0.9,0.8-1.3c0.3-0.4,0.6-0.7,1-1
		c0.3-0.3,0.7-0.5,1.1-0.6c0.4-0.1,0.7-0.2,1.1-0.2c0.4,0,0.7,0.1,1,0.2c0.3,0.2,0.5,0.4,0.7,0.7c0.2,0.3,0.3,0.7,0.3,1.1
		c0.1,0.4,0,0.9,0,1.5l-0.7,5.9h-0.9l0.7-5.9c0.1-0.9,0-1.6-0.2-2c-0.2-0.5-0.6-0.7-1.3-0.7c-0.3,0-0.7,0.1-1.1,0.3
		c-0.4,0.2-0.7,0.4-1,0.8c-0.3,0.3-0.6,0.7-0.9,1.2c-0.3,0.5-0.5,1-0.8,1.6l-0.6,4.9H37.1z"/>
	<path class="st0" d="M49.9,105.8l-1.1,9.3h-0.9l1.1-9.3H49.9z M50.6,102.6c0,0.1,0,0.2-0.1,0.3c0,0.1-0.1,0.2-0.2,0.3
		c-0.1,0.1-0.2,0.1-0.3,0.2c-0.1,0-0.2,0.1-0.3,0.1c-0.1,0-0.2,0-0.3-0.1c-0.1,0-0.2-0.1-0.2-0.2c-0.1-0.1-0.1-0.2-0.2-0.3
		c0-0.1-0.1-0.2-0.1-0.3c0-0.1,0-0.2,0.1-0.3c0-0.1,0.1-0.2,0.2-0.3c0.1-0.1,0.2-0.1,0.2-0.2c0.1,0,0.2-0.1,0.3-0.1
		c0.1,0,0.2,0,0.3,0.1c0.1,0,0.2,0.1,0.3,0.2c0.1,0.1,0.1,0.2,0.2,0.3C50.6,102.4,50.6,102.5,50.6,102.6z"/>
	<path class="st0" d="M53.5,113.5c0,0,0-0.1,0-0.1c0-0.1,0-0.1,0-0.3c0-0.1,0-0.3,0-0.4c0-0.2,0-0.4,0.1-0.7l0.6-5.3h-1.2
		c-0.1,0-0.1,0-0.1-0.1c0,0,0-0.1,0-0.2l0-0.3l1.5-0.1l0.6-3.3c0-0.1,0-0.1,0.1-0.1c0,0,0.1-0.1,0.2-0.1h0.4l-0.4,3.5h2.7l-0.1,0.7
		h-2.7l-0.6,5.2c0,0.3-0.1,0.5-0.1,0.6c0,0.2,0,0.3,0,0.4c0,0.1,0,0.2,0,0.2c0,0.1,0,0.1,0,0.1c0,0.4,0.1,0.7,0.3,0.9
		c0.2,0.2,0.4,0.3,0.7,0.3c0.2,0,0.4,0,0.5-0.1c0.2-0.1,0.3-0.1,0.4-0.2c0.1-0.1,0.2-0.1,0.3-0.2c0.1-0.1,0.1-0.1,0.2-0.1
		c0.1,0,0.1,0,0.1,0.1l0.2,0.4c-0.2,0.3-0.6,0.5-0.9,0.6c-0.4,0.2-0.7,0.2-1.1,0.2c-0.5,0-0.9-0.1-1.2-0.4S53.5,114.1,53.5,113.5z"
		/>
	<path class="st0" d="M63.3,115.2c-0.5,0-0.9-0.1-1.4-0.3c-0.4-0.2-0.8-0.4-1-0.8c-0.3-0.3-0.5-0.7-0.7-1.2c-0.2-0.5-0.2-1-0.2-1.6
		c0-0.8,0.1-1.5,0.3-2.2c0.2-0.7,0.5-1.3,0.9-1.8c0.4-0.5,0.9-0.9,1.5-1.3c0.6-0.3,1.2-0.5,1.8-0.5c0.5,0,0.9,0.1,1.4,0.3
		c0.4,0.2,0.8,0.4,1,0.8c0.3,0.3,0.5,0.7,0.7,1.2c0.2,0.5,0.2,1,0.2,1.6c0,0.8-0.1,1.5-0.3,2.2s-0.5,1.3-0.9,1.8
		c-0.4,0.5-0.9,1-1.4,1.3S64,115.2,63.3,115.2z M63.4,114.5c0.5,0,1-0.1,1.5-0.4c0.4-0.3,0.8-0.7,1.1-1.1c0.3-0.5,0.6-1,0.7-1.6
		c0.2-0.6,0.3-1.2,0.3-1.9c0-1-0.2-1.8-0.7-2.3c-0.4-0.5-1.1-0.8-1.8-0.8c-0.5,0-1,0.1-1.5,0.4c-0.4,0.3-0.8,0.7-1.1,1.1
		c-0.3,0.5-0.6,1-0.7,1.6c-0.2,0.6-0.3,1.2-0.3,1.9c0,1,0.2,1.8,0.7,2.3C62,114.2,62.6,114.5,63.4,114.5z"/>
	<path class="st0" d="M70.7,115.1l1.1-9.3h0.4c0.2,0,0.3,0.1,0.3,0.3l-0.3,2.8c0.3-0.6,0.5-1.1,0.8-1.6c0.3-0.4,0.6-0.8,1-1.1
		c0.3-0.3,0.7-0.4,1.1-0.5c0.4-0.1,0.7,0,1.1,0.1l-0.2,0.8c-0.4-0.2-0.8-0.2-1.2-0.1c-0.4,0.1-0.7,0.3-1.1,0.6
		c-0.3,0.3-0.6,0.7-0.9,1.3c-0.3,0.5-0.5,1.2-0.8,1.9l-0.6,4.7H70.7z"/>
	<path class="st0" d="M80,105.8l-1.1,9.3H78l1.1-9.3H80z M80.6,102.6c0,0.1,0,0.2-0.1,0.3c0,0.1-0.1,0.2-0.2,0.3
		c-0.1,0.1-0.2,0.1-0.3,0.2c-0.1,0-0.2,0.1-0.3,0.1c-0.1,0-0.2,0-0.3-0.1c-0.1,0-0.2-0.1-0.2-0.2c-0.1-0.1-0.1-0.2-0.2-0.3
		c0-0.1-0.1-0.2-0.1-0.3c0-0.1,0-0.2,0.1-0.3c0-0.1,0.1-0.2,0.2-0.3c0.1-0.1,0.2-0.1,0.2-0.2c0.1,0,0.2-0.1,0.3-0.1
		c0.1,0,0.2,0,0.3,0.1c0.1,0,0.2,0.1,0.3,0.2c0.1,0.1,0.1,0.2,0.2,0.3C80.6,102.4,80.6,102.5,80.6,102.6z"/>
	<path class="st0" d="M82.9,115.1l1.1-9.3h0.4c0.2,0,0.3,0.1,0.3,0.3l-0.3,2.7c0.3-0.5,0.5-0.9,0.8-1.3c0.3-0.4,0.6-0.7,1-1
		c0.3-0.3,0.7-0.5,1.1-0.6c0.4-0.1,0.7-0.2,1.1-0.2c0.4,0,0.7,0.1,1,0.2c0.3,0.2,0.5,0.4,0.7,0.7c0.2,0.3,0.3,0.7,0.3,1.1
		c0.1,0.4,0,0.9,0,1.5l-0.7,5.9h-0.9l0.7-5.9c0.1-0.9,0-1.6-0.2-2c-0.2-0.5-0.6-0.7-1.3-0.7c-0.3,0-0.7,0.1-1.1,0.3
		c-0.4,0.2-0.7,0.4-1,0.8c-0.3,0.3-0.6,0.7-0.9,1.2c-0.3,0.5-0.5,1-0.8,1.6l-0.6,4.9H82.9z"/>
	<path class="st0" d="M100,108.2c0,0.3-0.1,0.7-0.1,0.9c-0.1,0.3-0.2,0.5-0.3,0.8c-0.1,0.2-0.3,0.5-0.4,0.7
		c-0.1,0.2-0.3,0.4-0.4,0.6s-0.2,0.4-0.3,0.6c-0.1,0.2-0.1,0.4-0.1,0.6c0,0.2,0,0.3,0.1,0.5c0.1,0.1,0.2,0.3,0.3,0.4
		c0.1,0.2,0.2,0.3,0.4,0.4c0.1,0.1,0.2,0.3,0.4,0.5c0.1,0.2,0.2,0.4,0.3,0.6c0.1,0.2,0.1,0.4,0.1,0.7c0,0.4-0.1,0.8-0.3,1.1
		c-0.2,0.4-0.5,0.7-0.8,1c-0.4,0.3-0.8,0.5-1.3,0.7c-0.5,0.2-1.1,0.3-1.7,0.3c-0.5,0-0.9,0-1.3-0.1c-0.4-0.1-0.8-0.2-1.1-0.4
		c-0.3-0.2-0.5-0.4-0.7-0.7s-0.2-0.6-0.2-0.9c0-0.5,0.2-1,0.5-1.4c0.3-0.4,0.7-0.7,1.3-0.9s1.1-0.4,1.8-0.5c0.7-0.1,1.4-0.1,2.1,0
		c-0.1-0.1-0.2-0.3-0.3-0.5c-0.1-0.2-0.1-0.3-0.1-0.5c0-0.2,0-0.4,0.1-0.7c0.1-0.2,0.2-0.5,0.4-0.8c-0.3,0.2-0.5,0.3-0.8,0.4
		c-0.3,0.1-0.6,0.1-0.9,0.1c-0.4,0-0.7-0.1-1-0.2c-0.3-0.1-0.6-0.3-0.8-0.5c-0.2-0.2-0.4-0.5-0.5-0.8c-0.1-0.3-0.2-0.7-0.2-1.1
		c0-0.4,0.1-0.9,0.2-1.3c0.2-0.4,0.4-0.8,0.7-1.1c0.3-0.3,0.6-0.6,1.1-0.8c0.4-0.2,0.9-0.3,1.4-0.3c0.6,0,1.2,0.2,1.6,0.5h2.4l0,0.3
		c0,0.1,0,0.1-0.1,0.2c0,0-0.1,0.1-0.2,0.1l-1.5,0.1c0.1,0.2,0.2,0.4,0.3,0.6C100,107.7,100,107.9,100,108.2z M99,115.6
		c0-0.3,0-0.6-0.1-0.8c-0.1-0.2-0.2-0.4-0.4-0.6l0,0c-0.9-0.1-1.7-0.2-2.3-0.1c-0.7,0.1-1.2,0.2-1.7,0.4c-0.4,0.2-0.8,0.5-1,0.8
		c-0.2,0.3-0.3,0.6-0.3,1c0,0.3,0.1,0.5,0.2,0.7c0.1,0.2,0.3,0.4,0.5,0.5c0.2,0.1,0.5,0.2,0.8,0.3c0.3,0.1,0.7,0.1,1.1,0.1
		c0.5,0,0.9-0.1,1.3-0.2c0.4-0.1,0.7-0.3,1-0.5c0.3-0.2,0.5-0.5,0.7-0.7C98.9,116.1,99,115.9,99,115.6z M96.7,111.1
		c0.4,0,0.8-0.1,1.1-0.3c0.3-0.2,0.6-0.4,0.8-0.7c0.2-0.3,0.4-0.6,0.5-0.9c0.1-0.3,0.2-0.7,0.2-1c0-0.6-0.2-1.1-0.5-1.5
		c-0.3-0.3-0.8-0.5-1.4-0.5c-0.4,0-0.8,0.1-1.1,0.2c-0.3,0.2-0.6,0.4-0.8,0.6c-0.2,0.3-0.4,0.6-0.5,0.9c-0.1,0.3-0.2,0.7-0.2,1
		c0,0.7,0.2,1.2,0.5,1.5C95.7,110.9,96.1,111.1,96.7,111.1z"/>
	<path class="st0" d="M118.1,115.1h-0.7c-0.1,0-0.2,0-0.2-0.1c0,0-0.1-0.1-0.1-0.2l-0.9-3.9h-5.9l-1.9,3.9c0,0.1-0.1,0.1-0.1,0.2
		c-0.1,0-0.1,0.1-0.2,0.1h-0.7l6.6-13.2h0.9L118.1,115.1z M110.6,110.3h5.4l-1.6-6.7c0-0.1,0-0.2-0.1-0.4c0-0.1,0-0.3-0.1-0.4
		c-0.1,0.1-0.1,0.3-0.2,0.4c-0.1,0.1-0.1,0.3-0.2,0.4L110.6,110.3z"/>
	<path class="st0" d="M127.4,108.2c0,0.3-0.1,0.7-0.1,0.9c-0.1,0.3-0.2,0.5-0.3,0.8c-0.1,0.2-0.3,0.5-0.4,0.7
		c-0.1,0.2-0.3,0.4-0.4,0.6s-0.2,0.4-0.3,0.6c-0.1,0.2-0.1,0.4-0.1,0.6c0,0.2,0,0.3,0.1,0.5c0.1,0.1,0.2,0.3,0.3,0.4
		c0.1,0.2,0.2,0.3,0.4,0.4c0.1,0.1,0.2,0.3,0.4,0.5c0.1,0.2,0.2,0.4,0.3,0.6c0.1,0.2,0.1,0.4,0.1,0.7c0,0.4-0.1,0.8-0.3,1.1
		c-0.2,0.4-0.5,0.7-0.8,1c-0.4,0.3-0.8,0.5-1.3,0.7c-0.5,0.2-1.1,0.3-1.7,0.3c-0.5,0-0.9,0-1.3-0.1c-0.4-0.1-0.8-0.2-1.1-0.4
		c-0.3-0.2-0.5-0.4-0.7-0.7s-0.2-0.6-0.2-0.9c0-0.5,0.2-1,0.5-1.4c0.3-0.4,0.7-0.7,1.3-0.9s1.1-0.4,1.8-0.5c0.7-0.1,1.4-0.1,2.1,0
		c-0.1-0.1-0.2-0.3-0.3-0.5c-0.1-0.2-0.1-0.3-0.1-0.5c0-0.2,0-0.4,0.1-0.7c0.1-0.2,0.2-0.5,0.4-0.8c-0.3,0.2-0.5,0.3-0.8,0.4
		c-0.3,0.1-0.6,0.1-0.9,0.1c-0.4,0-0.7-0.1-1-0.2c-0.3-0.1-0.6-0.3-0.8-0.5c-0.2-0.2-0.4-0.5-0.5-0.8c-0.1-0.3-0.2-0.7-0.2-1.1
		c0-0.4,0.1-0.9,0.2-1.3c0.2-0.4,0.4-0.8,0.7-1.1c0.3-0.3,0.6-0.6,1.1-0.8c0.4-0.2,0.9-0.3,1.4-0.3c0.6,0,1.2,0.2,1.6,0.5h2.4l0,0.3
		c0,0.1,0,0.1-0.1,0.2c0,0-0.1,0.1-0.2,0.1l-1.5,0.1c0.1,0.2,0.2,0.4,0.3,0.6C127.3,107.7,127.4,107.9,127.4,108.2z M126.4,115.6
		c0-0.3,0-0.6-0.1-0.8c-0.1-0.2-0.2-0.4-0.4-0.6l0,0c-0.9-0.1-1.7-0.2-2.3-0.1c-0.7,0.1-1.2,0.2-1.7,0.4c-0.4,0.2-0.8,0.5-1,0.8
		c-0.2,0.3-0.3,0.6-0.3,1c0,0.3,0.1,0.5,0.2,0.7c0.1,0.2,0.3,0.4,0.5,0.5c0.2,0.1,0.5,0.2,0.8,0.3c0.3,0.1,0.7,0.1,1.1,0.1
		c0.5,0,0.9-0.1,1.3-0.2c0.4-0.1,0.7-0.3,1-0.5c0.3-0.2,0.5-0.5,0.7-0.7C126.3,116.1,126.4,115.9,126.4,115.6z M124,111.1
		c0.4,0,0.8-0.1,1.1-0.3c0.3-0.2,0.6-0.4,0.8-0.7c0.2-0.3,0.4-0.6,0.5-0.9c0.1-0.3,0.2-0.7,0.2-1c0-0.6-0.2-1.1-0.5-1.5
		c-0.3-0.3-0.8-0.5-1.4-0.5c-0.4,0-0.8,0.1-1.1,0.2c-0.3,0.2-0.6,0.4-0.8,0.6c-0.2,0.3-0.4,0.6-0.5,0.9c-0.1,0.3-0.2,0.7-0.2,1
		c0,0.7,0.2,1.2,0.5,1.5C123,110.9,123.5,111.1,124,111.1z"/>
	<path class="st0" d="M130.6,115.1l1.1-9.3h0.4c0.2,0,0.3,0.1,0.3,0.3l-0.3,2.8c0.3-0.6,0.5-1.1,0.8-1.6c0.3-0.4,0.6-0.8,1-1.1
		c0.3-0.3,0.7-0.4,1.1-0.5c0.4-0.1,0.7,0,1.1,0.1l-0.2,0.8c-0.4-0.2-0.8-0.2-1.2-0.1c-0.4,0.1-0.7,0.3-1.1,0.6
		c-0.3,0.3-0.6,0.7-0.9,1.3c-0.3,0.5-0.5,1.2-0.8,1.9l-0.6,4.7H130.6z"/>
	<path class="st0" d="M139.9,105.8l-1.1,9.3h-0.9l1.1-9.3H139.9z M140.6,102.6c0,0.1,0,0.2-0.1,0.3c0,0.1-0.1,0.2-0.2,0.3
		c-0.1,0.1-0.2,0.1-0.3,0.2c-0.1,0-0.2,0.1-0.3,0.1c-0.1,0-0.2,0-0.3-0.1c-0.1,0-0.2-0.1-0.2-0.2c-0.1-0.1-0.1-0.2-0.2-0.3
		c0-0.1-0.1-0.2-0.1-0.3c0-0.1,0-0.2,0.1-0.3c0-0.1,0.1-0.2,0.2-0.3c0.1-0.1,0.2-0.1,0.2-0.2c0.1,0,0.2-0.1,0.3-0.1
		c0.1,0,0.2,0,0.3,0.1c0.1,0,0.2,0.1,0.3,0.2c0.1,0.1,0.1,0.2,0.2,0.3C140.5,102.4,140.6,102.5,140.6,102.6z"/>
	<path class="st0" d="M148.6,114.3c-0.3,0.2-0.6,0.4-0.9,0.6c-0.3,0.1-0.6,0.2-0.9,0.3c-0.3,0-0.6,0.1-0.9,0.1c-0.5,0-1-0.1-1.4-0.3
		c-0.4-0.2-0.7-0.4-1-0.8c-0.3-0.3-0.5-0.7-0.6-1.2c-0.1-0.5-0.2-0.9-0.2-1.5c0-0.5,0.1-1,0.2-1.5c0.1-0.5,0.3-0.9,0.4-1.4
		c0.2-0.4,0.4-0.8,0.7-1.2c0.3-0.4,0.6-0.7,0.9-1c0.3-0.3,0.7-0.5,1.1-0.6c0.4-0.2,0.8-0.2,1.3-0.2c0.3,0,0.6,0,0.8,0.1
		c0.2,0.1,0.5,0.1,0.7,0.3c0.2,0.1,0.4,0.2,0.6,0.4c0.2,0.2,0.3,0.3,0.5,0.5l-0.3,0.3c-0.1,0.1-0.1,0.1-0.2,0.1
		c-0.1,0-0.1-0.1-0.2-0.1c-0.1-0.1-0.2-0.2-0.4-0.3c-0.2-0.1-0.3-0.2-0.6-0.3c-0.2-0.1-0.5-0.1-0.9-0.1c-0.5,0-1,0.1-1.5,0.4
		c-0.5,0.3-0.8,0.7-1.2,1.1c-0.3,0.5-0.6,1-0.8,1.6c-0.2,0.6-0.3,1.3-0.3,1.9c0,0.4,0,0.8,0.1,1.2c0.1,0.4,0.2,0.7,0.4,1
		c0.2,0.3,0.5,0.5,0.8,0.6c0.3,0.1,0.7,0.2,1.1,0.2c0.3,0,0.6,0,0.9-0.1c0.3-0.1,0.5-0.2,0.7-0.3c0.2-0.1,0.4-0.2,0.5-0.3
		c0.2-0.1,0.3-0.2,0.4-0.3c0.1-0.1,0.2-0.2,0.3-0.3c0.1-0.1,0.2-0.1,0.2-0.1c0.1,0,0.1,0,0.2,0.1l0.2,0.2
		C149.2,113.7,148.9,114,148.6,114.3z"/>
	<path class="st0" d="M154.2,105.8l-0.7,5.9c-0.1,0.9,0,1.6,0.2,2c0.2,0.5,0.6,0.7,1.3,0.7c0.3,0,0.7-0.1,1-0.3
		c0.3-0.2,0.7-0.4,1-0.8c0.3-0.3,0.6-0.7,0.9-1.2s0.5-1,0.8-1.5l0.6-4.9h0.9l-1.1,9.3h-0.4c-0.1,0-0.2,0-0.3-0.1
		c-0.1-0.1-0.1-0.1-0.1-0.3l0.3-2.6c-0.3,0.5-0.5,0.9-0.8,1.3c-0.3,0.4-0.6,0.7-1,1c-0.3,0.3-0.7,0.5-1,0.6
		c-0.4,0.1-0.7,0.2-1.1,0.2c-0.8,0-1.4-0.3-1.7-0.9c-0.3-0.6-0.4-1.5-0.3-2.6l0.7-5.9H154.2z"/>
	<path class="st0" d="M163.1,115.1l1.6-13.6h0.9l-1.7,13.6H163.1z"/>
	<path class="st0" d="M168.7,113.5c0,0,0-0.1,0-0.1c0-0.1,0-0.1,0-0.3c0-0.1,0-0.3,0-0.4c0-0.2,0-0.4,0.1-0.7l0.6-5.3h-1.2
		c-0.1,0-0.1,0-0.2-0.1c0,0,0-0.1,0-0.2l0-0.3l1.5-0.1l0.6-3.3c0-0.1,0-0.1,0.1-0.1c0,0,0.1-0.1,0.2-0.1h0.4l-0.4,3.5h2.7l-0.1,0.7
		h-2.7l-0.6,5.2c0,0.3-0.1,0.5-0.1,0.6c0,0.2,0,0.3,0,0.4c0,0.1,0,0.2,0,0.2c0,0.1,0,0.1,0,0.1c0,0.4,0.1,0.7,0.3,0.9
		c0.2,0.2,0.4,0.3,0.7,0.3c0.2,0,0.4,0,0.5-0.1c0.2-0.1,0.3-0.1,0.4-0.2c0.1-0.1,0.2-0.1,0.3-0.2c0.1-0.1,0.1-0.1,0.2-0.1
		c0.1,0,0.1,0,0.1,0.1l0.2,0.4c-0.2,0.3-0.5,0.5-0.9,0.6c-0.4,0.2-0.7,0.2-1.1,0.2c-0.5,0-0.9-0.1-1.2-0.4
		C168.8,114.5,168.7,114.1,168.7,113.5z"/>
	<path class="st0" d="M177.3,105.8l-0.7,5.9c-0.1,0.9,0,1.6,0.2,2c0.2,0.5,0.6,0.7,1.3,0.7c0.3,0,0.7-0.1,1-0.3
		c0.3-0.2,0.7-0.4,1-0.8c0.3-0.3,0.6-0.7,0.9-1.2c0.3-0.5,0.6-1,0.8-1.5l0.6-4.9h0.9l-1.1,9.3h-0.4c-0.1,0-0.2,0-0.3-0.1
		c-0.1-0.1-0.1-0.1-0.1-0.3l0.3-2.6c-0.3,0.5-0.5,0.9-0.8,1.3c-0.3,0.4-0.6,0.7-1,1c-0.3,0.3-0.7,0.5-1,0.6
		c-0.4,0.1-0.7,0.2-1.1,0.2c-0.8,0-1.4-0.3-1.7-0.9c-0.3-0.6-0.4-1.5-0.3-2.6l0.7-5.9H177.3z"/>
	<path class="st0" d="M186.1,115.1l1.1-9.3h0.4c0.2,0,0.3,0.1,0.3,0.3l-0.3,2.8c0.3-0.6,0.5-1.1,0.8-1.6c0.3-0.4,0.6-0.8,1-1.1
		s0.7-0.4,1.1-0.5c0.4-0.1,0.7,0,1.1,0.1l-0.2,0.8c-0.4-0.2-0.8-0.2-1.2-0.1c-0.4,0.1-0.7,0.3-1.1,0.6c-0.3,0.3-0.6,0.7-0.9,1.3
		c-0.3,0.5-0.5,1.2-0.8,1.9l-0.6,4.7H186.1z"/>
	<path class="st0" d="M199.9,107.6c0,0.3,0,0.5-0.1,0.7c-0.1,0.2-0.2,0.4-0.4,0.7c-0.2,0.2-0.4,0.4-0.7,0.6
		c-0.3,0.2-0.7,0.4-1.1,0.5c-0.5,0.2-1,0.3-1.7,0.4c-0.6,0.1-1.4,0.2-2.3,0.3c0,0.1,0,0.3,0,0.4c0,0.1,0,0.3,0,0.4
		c0,0.9,0.2,1.7,0.6,2.2c0.4,0.5,1.1,0.8,1.9,0.8c0.3,0,0.6,0,0.9-0.1c0.3-0.1,0.5-0.2,0.7-0.3c0.2-0.1,0.4-0.2,0.6-0.4
		c0.2-0.1,0.3-0.2,0.4-0.4c0.1-0.1,0.2-0.2,0.3-0.3c0.1-0.1,0.2-0.1,0.2-0.1s0.1,0,0.2,0.1l0.2,0.2c-0.3,0.3-0.6,0.6-0.9,0.8
		c-0.3,0.2-0.6,0.4-0.9,0.6c-0.3,0.1-0.6,0.3-0.9,0.3c-0.3,0.1-0.7,0.1-1,0.1c-0.5,0-1-0.1-1.4-0.3c-0.4-0.2-0.7-0.4-1-0.7
		c-0.3-0.3-0.5-0.7-0.6-1.1c-0.1-0.5-0.2-1-0.2-1.5c0-0.5,0-0.9,0.1-1.4c0.1-0.5,0.2-0.9,0.4-1.4c0.2-0.4,0.4-0.8,0.7-1.2
		c0.3-0.4,0.6-0.7,0.9-1c0.3-0.3,0.7-0.5,1.2-0.7c0.4-0.2,0.9-0.2,1.4-0.2c0.5,0,0.8,0.1,1.2,0.2c0.3,0.1,0.6,0.3,0.8,0.5
		s0.3,0.4,0.4,0.6C199.9,107.2,199.9,107.4,199.9,107.6z M197.4,106.3c-0.5,0-0.9,0.1-1.3,0.3s-0.8,0.5-1.1,0.8
		c-0.3,0.4-0.6,0.8-0.8,1.2c-0.2,0.5-0.4,0.9-0.5,1.5c0.8-0.1,1.5-0.2,2-0.3c0.6-0.1,1.1-0.2,1.5-0.4c0.4-0.1,0.7-0.3,1-0.4
		c0.2-0.2,0.4-0.3,0.6-0.5c0.1-0.2,0.2-0.3,0.3-0.5c0-0.2,0.1-0.3,0.1-0.5c0-0.1,0-0.3-0.1-0.4c-0.1-0.2-0.2-0.3-0.3-0.4
		c-0.1-0.1-0.3-0.2-0.5-0.3C198,106.4,197.7,106.3,197.4,106.3z"/>
	<path class="st0" d="M210.4,109.7l-0.7,5.3h-0.9l1.6-13.2h3.2c1.3,0,2.3,0.3,2.9,0.9c0.6,0.6,1,1.4,1,2.4c0,0.7-0.1,1.3-0.3,1.8
		c-0.2,0.6-0.6,1-1,1.4c-0.4,0.4-0.9,0.7-1.5,0.9c-0.6,0.2-1.3,0.3-2,0.3H210.4z M211.2,102.6l-0.8,6.4h2.2c0.6,0,1.1-0.1,1.6-0.3
		c0.5-0.2,0.9-0.4,1.2-0.8c0.3-0.3,0.6-0.7,0.8-1.2c0.2-0.5,0.3-0.9,0.3-1.5c0-0.8-0.3-1.5-0.8-2c-0.5-0.5-1.3-0.7-2.3-0.7H211.2z"
		/>
	<path class="st0" d="M219.3,115.1l1.1-9.3h0.4c0.2,0,0.3,0.1,0.3,0.3l-0.3,2.8c0.3-0.6,0.5-1.1,0.8-1.6c0.3-0.4,0.6-0.8,1-1.1
		s0.7-0.4,1.1-0.5c0.4-0.1,0.7,0,1.1,0.1l-0.2,0.8c-0.4-0.2-0.8-0.2-1.2-0.1c-0.4,0.1-0.7,0.3-1.1,0.6c-0.3,0.3-0.6,0.7-0.9,1.3
		c-0.3,0.5-0.5,1.2-0.8,1.9l-0.6,4.7H219.3z"/>
	<path class="st0" d="M229.3,115.2c-0.5,0-0.9-0.1-1.4-0.3c-0.4-0.2-0.8-0.4-1-0.8c-0.3-0.3-0.5-0.7-0.7-1.2c-0.2-0.5-0.2-1-0.2-1.6
		c0-0.8,0.1-1.5,0.3-2.2c0.2-0.7,0.5-1.3,0.9-1.8c0.4-0.5,0.9-0.9,1.5-1.3c0.6-0.3,1.2-0.5,1.8-0.5c0.5,0,1,0.1,1.4,0.3
		c0.4,0.2,0.8,0.4,1,0.8c0.3,0.3,0.5,0.7,0.7,1.2c0.2,0.5,0.2,1,0.2,1.6c0,0.8-0.1,1.5-0.3,2.2s-0.5,1.3-0.9,1.8
		c-0.4,0.5-0.9,1-1.4,1.3C230.6,115,230,115.2,229.3,115.2z M229.4,114.5c0.5,0,1-0.1,1.5-0.4c0.4-0.3,0.8-0.7,1.1-1.1
		s0.6-1,0.7-1.6c0.2-0.6,0.3-1.2,0.3-1.9c0-1-0.2-1.8-0.7-2.3c-0.4-0.5-1.1-0.8-1.8-0.8c-0.5,0-1,0.1-1.5,0.4
		c-0.4,0.3-0.8,0.7-1.1,1.1c-0.3,0.5-0.6,1-0.7,1.6c-0.2,0.6-0.3,1.2-0.3,1.9c0,1,0.2,1.8,0.7,2.3
		C228,114.2,228.6,114.5,229.4,114.5z"/>
	<path class="st0" d="M238.8,105.8l-1.3,10.5c0,0.3-0.1,0.6-0.2,0.9c-0.1,0.3-0.3,0.5-0.5,0.7c-0.2,0.2-0.4,0.4-0.7,0.5
		s-0.6,0.2-0.9,0.2c-0.2,0-0.3,0-0.5,0c-0.1,0-0.3-0.1-0.4-0.2l0.1-0.4c0-0.1,0.1-0.1,0.1-0.1c0,0,0.1,0,0.1,0c0,0,0.1,0,0.2,0
		c0.1,0,0.2,0,0.3,0c0.5,0,0.8-0.1,1.1-0.4c0.3-0.3,0.4-0.7,0.5-1.2l1.3-10.5H238.8z M239.5,102.6c0,0.1,0,0.2-0.1,0.3
		c0,0.1-0.1,0.2-0.2,0.3c-0.1,0.1-0.2,0.1-0.3,0.2c-0.1,0-0.2,0.1-0.3,0.1c-0.1,0-0.2,0-0.3-0.1c-0.1,0-0.2-0.1-0.2-0.2
		c-0.1-0.1-0.1-0.2-0.2-0.3c0-0.1-0.1-0.2-0.1-0.3c0-0.1,0-0.2,0.1-0.3c0-0.1,0.1-0.2,0.2-0.3c0.1-0.1,0.2-0.1,0.2-0.2
		c0.1,0,0.2-0.1,0.3-0.1c0.1,0,0.2,0,0.3,0.1c0.1,0,0.2,0.1,0.3,0.2s0.1,0.2,0.2,0.3C239.4,102.4,239.5,102.5,239.5,102.6z"/>
	<path class="st0" d="M248.8,107.6c0,0.3,0,0.5-0.1,0.7c-0.1,0.2-0.2,0.4-0.4,0.7c-0.2,0.2-0.4,0.4-0.7,0.6
		c-0.3,0.2-0.7,0.4-1.1,0.5s-1,0.3-1.7,0.4c-0.6,0.1-1.4,0.2-2.3,0.3c0,0.1,0,0.3,0,0.4c0,0.1,0,0.3,0,0.4c0,0.9,0.2,1.7,0.6,2.2
		c0.4,0.5,1.1,0.8,1.9,0.8c0.3,0,0.6,0,0.9-0.1c0.3-0.1,0.5-0.2,0.7-0.3c0.2-0.1,0.4-0.2,0.6-0.4c0.2-0.1,0.3-0.2,0.4-0.4
		c0.1-0.1,0.2-0.2,0.3-0.3c0.1-0.1,0.2-0.1,0.2-0.1s0.1,0,0.2,0.1l0.2,0.2c-0.3,0.3-0.6,0.6-0.9,0.8c-0.3,0.2-0.6,0.4-0.9,0.6
		c-0.3,0.1-0.6,0.3-0.9,0.3c-0.3,0.1-0.7,0.1-1,0.1c-0.5,0-1-0.1-1.4-0.3c-0.4-0.2-0.7-0.4-1-0.7c-0.3-0.3-0.5-0.7-0.6-1.1
		c-0.1-0.5-0.2-1-0.2-1.5c0-0.5,0-0.9,0.1-1.4c0.1-0.5,0.2-0.9,0.4-1.4c0.2-0.4,0.4-0.8,0.7-1.2c0.3-0.4,0.6-0.7,0.9-1
		c0.3-0.3,0.7-0.5,1.2-0.7c0.4-0.2,0.9-0.2,1.4-0.2c0.5,0,0.8,0.1,1.2,0.2c0.3,0.1,0.6,0.3,0.8,0.5s0.3,0.4,0.4,0.6
		C248.7,107.2,248.8,107.4,248.8,107.6z M246.3,106.3c-0.5,0-0.9,0.1-1.3,0.3s-0.8,0.5-1.1,0.8c-0.3,0.4-0.6,0.8-0.8,1.2
		c-0.2,0.5-0.4,0.9-0.5,1.5c0.8-0.1,1.5-0.2,2-0.3c0.6-0.1,1.1-0.2,1.5-0.4c0.4-0.1,0.7-0.3,1-0.4c0.2-0.2,0.4-0.3,0.6-0.5
		c0.1-0.2,0.2-0.3,0.3-0.5c0-0.2,0.1-0.3,0.1-0.5c0-0.1,0-0.3-0.1-0.4c-0.1-0.2-0.2-0.3-0.3-0.4c-0.1-0.1-0.3-0.2-0.5-0.3
		C246.9,106.4,246.6,106.3,246.3,106.3z"/>
	<path class="st0" d="M257.2,114.3c-0.3,0.2-0.6,0.4-0.9,0.6c-0.3,0.1-0.6,0.2-0.9,0.3c-0.3,0-0.6,0.1-0.9,0.1c-0.5,0-1-0.1-1.4-0.3
		c-0.4-0.2-0.7-0.4-1-0.8c-0.3-0.3-0.5-0.7-0.6-1.2c-0.1-0.5-0.2-0.9-0.2-1.5c0-0.5,0.1-1,0.2-1.5c0.1-0.5,0.3-0.9,0.4-1.4
		c0.2-0.4,0.4-0.8,0.7-1.2c0.3-0.4,0.6-0.7,0.9-1c0.3-0.3,0.7-0.5,1.1-0.6c0.4-0.2,0.8-0.2,1.3-0.2c0.3,0,0.6,0,0.8,0.1
		c0.2,0.1,0.5,0.1,0.7,0.3c0.2,0.1,0.4,0.2,0.6,0.4c0.2,0.2,0.3,0.3,0.5,0.5l-0.3,0.3c-0.1,0.1-0.1,0.1-0.2,0.1
		c-0.1,0-0.1-0.1-0.2-0.1c-0.1-0.1-0.2-0.2-0.4-0.3c-0.2-0.1-0.3-0.2-0.6-0.3s-0.5-0.1-0.9-0.1c-0.5,0-1,0.1-1.5,0.4
		s-0.8,0.7-1.2,1.1c-0.3,0.5-0.6,1-0.8,1.6c-0.2,0.6-0.3,1.3-0.3,1.9c0,0.4,0,0.8,0.1,1.2c0.1,0.4,0.2,0.7,0.4,1
		c0.2,0.3,0.5,0.5,0.8,0.6c0.3,0.1,0.7,0.2,1.1,0.2c0.3,0,0.6,0,0.9-0.1c0.3-0.1,0.5-0.2,0.7-0.3c0.2-0.1,0.4-0.2,0.5-0.3
		c0.2-0.1,0.3-0.2,0.4-0.3c0.1-0.1,0.2-0.2,0.3-0.3c0.1-0.1,0.2-0.1,0.2-0.1s0.1,0,0.2,0.1l0.2,0.2
		C257.8,113.7,257.5,114,257.2,114.3z"/>
	<path class="st0" d="M261.6,113.5c0,0,0-0.1,0-0.1c0-0.1,0-0.1,0-0.3c0-0.1,0-0.3,0-0.4c0-0.2,0-0.4,0.1-0.7l0.6-5.3h-1.2
		c-0.1,0-0.1,0-0.2-0.1c0,0,0-0.1,0-0.2l0-0.3l1.5-0.1l0.6-3.3c0-0.1,0-0.1,0.1-0.1c0,0,0.1-0.1,0.2-0.1h0.4l-0.4,3.5h2.7l-0.1,0.7
		h-2.7l-0.6,5.2c0,0.3-0.1,0.5-0.1,0.6c0,0.2,0,0.3,0,0.4c0,0.1,0,0.2,0,0.2c0,0.1,0,0.1,0,0.1c0,0.4,0.1,0.7,0.3,0.9
		c0.2,0.2,0.4,0.3,0.7,0.3c0.2,0,0.4,0,0.5-0.1c0.2-0.1,0.3-0.1,0.4-0.2c0.1-0.1,0.2-0.1,0.3-0.2c0.1-0.1,0.1-0.1,0.2-0.1
		c0.1,0,0.1,0,0.1,0.1l0.2,0.4c-0.2,0.3-0.5,0.5-0.9,0.6s-0.7,0.2-1.1,0.2c-0.5,0-0.9-0.1-1.2-0.4
		C261.8,114.5,261.6,114.1,261.6,113.5z"/>
	<path class="st0" d="M274.1,106.9c-0.1,0.1-0.1,0.1-0.2,0.1c-0.1,0-0.1,0-0.2-0.1c-0.1-0.1-0.2-0.2-0.4-0.3
		c-0.2-0.1-0.3-0.2-0.6-0.3c-0.2-0.1-0.5-0.1-0.9-0.1c-0.3,0-0.6,0.1-0.9,0.2c-0.3,0.1-0.5,0.2-0.7,0.4c-0.2,0.2-0.4,0.4-0.5,0.6
		c-0.1,0.2-0.2,0.5-0.2,0.7c0,0.3,0.1,0.5,0.2,0.6s0.3,0.3,0.5,0.5c0.2,0.1,0.4,0.2,0.7,0.3c0.2,0.1,0.5,0.2,0.8,0.3
		c0.3,0.1,0.5,0.2,0.8,0.3c0.2,0.1,0.5,0.3,0.7,0.4c0.2,0.2,0.4,0.4,0.5,0.6c0.1,0.2,0.2,0.5,0.2,0.8c0,0.4-0.1,0.8-0.2,1.2
		c-0.2,0.4-0.4,0.7-0.7,1c-0.3,0.3-0.7,0.5-1.1,0.7s-0.9,0.3-1.4,0.3c-0.6,0-1.1-0.1-1.5-0.3c-0.4-0.2-0.8-0.5-1-0.8l0.2-0.3
		c0.1-0.1,0.2-0.1,0.3-0.1c0.1,0,0.1,0.1,0.2,0.1c0.1,0.1,0.2,0.2,0.4,0.3c0.2,0.1,0.4,0.2,0.6,0.3c0.3,0.1,0.6,0.1,1,0.1
		c0.4,0,0.7-0.1,1-0.2c0.3-0.1,0.6-0.3,0.8-0.5c0.2-0.2,0.4-0.5,0.5-0.7c0.1-0.3,0.2-0.6,0.2-0.9c0-0.3-0.1-0.5-0.2-0.7
		c-0.1-0.2-0.3-0.3-0.5-0.5c-0.2-0.1-0.4-0.2-0.7-0.3c-0.2-0.1-0.5-0.2-0.8-0.3c-0.3-0.1-0.5-0.2-0.8-0.3c-0.2-0.1-0.5-0.2-0.7-0.4
		c-0.2-0.2-0.4-0.3-0.5-0.6c-0.1-0.2-0.2-0.5-0.2-0.8c0-0.4,0.1-0.7,0.2-1c0.2-0.3,0.4-0.6,0.7-0.9c0.3-0.3,0.6-0.5,1-0.6
		c0.4-0.2,0.8-0.2,1.3-0.2c0.5,0,1,0.1,1.4,0.2c0.4,0.2,0.7,0.4,1,0.7L274.1,106.9z"/>
</g>
</svg>
