<svg id="Layer_1" data-name="Layer 1" xmlns="http://www.w3.org/2000/svg" viewBox="0 0 259.8 98.97"><defs><style>.cls-1{fill:#2b2241;}.cls-2{fill:#93cd88;}.cls-3{font-size:50px;fill:#3f3931;font-family:Lato-Thin, Lato;}.cls-4{letter-spacing:-0.1em;}</style></defs><title>logo</title><path class="cls-1" d="M45.84,60.78a1.84,1.84,0,0,0-1.11,1.16,8.73,8.73,0,0,0-.3,2.7V89.1a8.71,8.71,0,0,0,.3,2.7A1.84,1.84,0,0,0,45.84,93a8.76,8.76,0,0,0,2.59.39v1q-2.31-.14-6.26-.14-4.24,0-6.31.14v-1A8.61,8.61,0,0,0,38.44,93a1.84,1.84,0,0,0,1.1-1.16,8.73,8.73,0,0,0,.3-2.7V62.71L28,94.57h-.79l-12.42-32v26a9.19,9.19,0,0,0,.34,2.87,2.29,2.29,0,0,0,1.26,1.38,8.11,8.11,0,0,0,2.88.49v1q-1.76-.14-5-.14-2.94,0-4.57.14v-1a6.49,6.49,0,0,0,2.54-.49,2.26,2.26,0,0,0,1.14-1.38,9.88,9.88,0,0,0,.31-2.87v-24a8.72,8.72,0,0,0-.3-2.7,1.84,1.84,0,0,0-1.11-1.16,8.76,8.76,0,0,0-2.59-.39v-1q1.61.14,4.57.15,2.6,0,4.21-.15L29.24,88,39.83,59.56h2.34q3.95,0,6.26-.15v1A8.76,8.76,0,0,0,45.84,60.78Z" transform="translate(-9.61 -8.41)"/><path class="cls-1" d="M85.84,93.34v1q-2-.14-5.3-.14-4.21,0-6.31.14v-1a7.4,7.4,0,0,0,2.68-.46,1.39,1.39,0,0,0,.81-1.37,6.82,6.82,0,0,0-.58-2.31l-3-8.09H62.22l-2,5.22a11.72,11.72,0,0,0-1,4,2.46,2.46,0,0,0,1,2.24,6.37,6.37,0,0,0,3.24.72v1q-2.82-.14-5.68-.14-2.22,0-3.68.14v-1q2.46-.55,3.88-4.29L69.61,59.17h.79l12,31Q83.63,93.24,85.84,93.34ZM68.24,65.41,62.58,80.12H73.75Z" transform="translate(-9.61 -8.41)"/><path class="cls-1" d="M99.1,89.1a6.93,6.93,0,0,0,.38,2.7,2.13,2.13,0,0,0,1.4,1.16,13.34,13.34,0,0,0,3.2.39v1q-2.55-.14-7.25-.14-4.24,0-6.31.14v-1A8.76,8.76,0,0,0,93.12,93a1.84,1.84,0,0,0,1.11-1.16,8.71,8.71,0,0,0,.3-2.7V64.64a8.72,8.72,0,0,0-.3-2.7,1.84,1.84,0,0,0-1.11-1.16,8.76,8.76,0,0,0-2.59-.39v-1q2,.14,6,.15l5.35-.07,2.09,0a15.78,15.78,0,0,1,6.55,1.22,8.8,8.8,0,0,1,4,3.41,9.61,9.61,0,0,1,1.34,5.1,11.87,11.87,0,0,1-1.2,5.2,9.71,9.71,0,0,1-4.11,4.17,15.37,15.37,0,0,1-7.67,1.66H99.1Zm1.35-28.35A1.94,1.94,0,0,0,99.39,62a9.15,9.15,0,0,0-.29,2.65V79.23h3.32q4.82,0,6.67-2.58a11.64,11.64,0,0,0,1.85-6.93,14.23,14.23,0,0,0-.82-5.23,6,6,0,0,0-2.61-3.07,9.57,9.57,0,0,0-4.76-1A5.85,5.85,0,0,0,100.45,60.75Z" transform="translate(-9.61 -8.41)"/><polygon class="cls-2" points="2.47 32.76 0.18 30.16 26.16 7.23 48.83 21.64 46.97 24.56 26.5 11.56 2.47 32.76"/><rect class="cls-2" x="55.33" y="28.81" width="3.47" height="3.47" transform="translate(-16.97 28.38) rotate(-33.69)"/><path class="cls-2" d="M64.75,27.51l-1.92-2.88,5.28-3.52L70,24Zm10.56-7-1.92-2.88,5.28-3.51L80.58,17Z" transform="translate(-9.61 -8.41)"/><rect class="cls-2" x="84.6" y="9.31" width="3.47" height="3.47" transform="translate(-1.24 41.34) rotate(-33.69)"/><polygon class="cls-2" points="78 8.2 74.66 7.3 75.67 3.52 72.06 3.56 72.02 0.1 80.21 0 78 8.2"/><text class="cls-3" transform="translate(117.08 85.92)"><tspan class="cls-4">Y</tspan><tspan x="23.85" y="0">emen</tspan></text></svg>