<?xml version="1.0" encoding="utf-8"?>
<!-- Generator: Adobe Illustrator 19.1.0, SVG Export Plug-In . SVG Version: 6.00 Build 0)  -->
<svg version="1.1" id="Layer_1" xmlns="http://www.w3.org/2000/svg" xmlns:xlink="http://www.w3.org/1999/xlink" x="0px" y="0px"
	 viewBox="0 0 235.5 126" style="enable-background:new 0 0 235.5 126;" xml:space="preserve">
<style type="text/css">
	.st0{fill:#2B2241;}
	.st1{fill:#93CD88;}
</style>
<g>
	<g>
		<g>
			<path class="st0" d="M40.3,58.1c-0.5,0.2-0.8,0.5-1,1.1c-0.2,0.5-0.3,1.3-0.3,2.5v22.6c0,1.1,0.1,2,0.3,2.5
				c0.2,0.5,0.5,0.9,1,1.1c0.5,0.2,1.3,0.3,2.4,0.4v0.9c-1.4-0.1-3.3-0.1-5.8-0.1c-2.6,0-4.5,0-5.8,0.1v-0.9c1.1,0,1.9-0.2,2.4-0.4
				s0.8-0.5,1-1.1c0.2-0.5,0.3-1.3,0.3-2.5V59.9L23.8,89.3H23L11.6,59.8v24c0,1.2,0.1,2.1,0.3,2.6c0.2,0.6,0.6,1,1.2,1.3
				s1.5,0.4,2.7,0.5v0.9c-1.1-0.1-2.6-0.1-4.6-0.1c-1.8,0-3.2,0-4.2,0.1v-0.9c1.1,0,1.8-0.2,2.3-0.5s0.9-0.7,1.1-1.3
				c0.2-0.6,0.3-1.5,0.3-2.6V61.7c0-1.1-0.1-2-0.3-2.5c-0.2-0.5-0.5-0.9-1-1.1c-0.5-0.2-1.3-0.3-2.4-0.4v-0.9c1,0.1,2.4,0.1,4.2,0.1
				c1.6,0,2.9,0,3.9-0.1l10,26.4L34.7,57h2.2c2.4,0,4.4,0,5.8-0.1v0.9C41.6,57.8,40.8,57.9,40.3,58.1z"/>
			<path class="st0" d="M77.1,88.2v0.9c-1.2-0.1-2.9-0.1-4.9-0.1c-2.6,0-4.5,0-5.8,0.1v-0.9c1.2,0,2-0.2,2.5-0.4
				c0.5-0.2,0.7-0.7,0.7-1.3c0-0.5-0.2-1.2-0.5-2.1l-2.8-7.5h-11l-1.9,4.8c-0.6,1.5-0.9,2.8-0.9,3.7c0,1,0.3,1.7,1,2.1
				c0.6,0.4,1.6,0.6,3,0.7v0.9c-1.7-0.1-3.5-0.1-5.2-0.1c-1.4,0-2.5,0-3.4,0.1v-0.9c1.5-0.3,2.7-1.7,3.6-4l10.7-27.6h0.7L74,85.2
				C74.7,87.1,75.8,88.1,77.1,88.2z M60.9,62.4L55.7,76H66L60.9,62.4z"/>
			<path class="st0" d="M89.4,84.2c0,1.1,0.1,2,0.4,2.5c0.2,0.5,0.7,0.9,1.3,1.1s1.6,0.3,3,0.4v0.9c-1.6-0.1-3.8-0.1-6.7-0.1
				c-2.6,0-4.5,0-5.8,0.1v-0.9c1.1,0,1.9-0.2,2.4-0.4c0.5-0.2,0.8-0.5,1-1.1c0.2-0.5,0.3-1.3,0.3-2.5V61.7c0-1.1-0.1-2-0.3-2.5
				c-0.2-0.5-0.5-0.9-1-1.1c-0.5-0.2-1.3-0.3-2.4-0.4v-0.9C82.7,57,84.6,57,87,57c0.5,0,2.2,0,4.9-0.1l1.9,0c2.4,0,4.4,0.4,6,1.1
				c1.6,0.7,2.9,1.8,3.7,3.1c0.8,1.3,1.2,2.9,1.2,4.7c0,1.7-0.4,3.3-1.1,4.8c-0.7,1.5-2,2.8-3.8,3.8c-1.8,1-4.1,1.5-7.1,1.5h-3.5
				V84.2z M90.6,58.1c-0.5,0.2-0.8,0.6-1,1.1c-0.2,0.5-0.3,1.4-0.3,2.4v13.5h3.1c3,0,5-0.8,6.1-2.4s1.7-3.7,1.7-6.4
				c0-2-0.3-3.6-0.8-4.8c-0.5-1.3-1.3-2.2-2.4-2.8c-1.1-0.6-2.6-0.9-4.4-0.9C91.8,57.8,91.1,57.9,90.6,58.1z"/>
		</g>
	</g>
	<g>
		<g>
			<path class="st0" d="M135.4,56.9V58h-17.6v14.2h14.8v1h-14.8v14.6h17.7l0,1.1h-18.9v-32H135.4z"/>
			<path class="st0" d="M148.2,66.1c1,0,1.9,0.1,2.7,0.4s1.6,0.6,2.2,1h5.6v0.4c0,0.1,0,0.2-0.1,0.3s-0.2,0.1-0.3,0.1l-4,0.2
				c0.6,0.6,1,1.3,1.3,2.1s0.5,1.7,0.5,2.6c0,1.1-0.2,2.1-0.6,2.9c-0.4,0.9-0.9,1.6-1.6,2.3s-1.5,1.1-2.4,1.5c-1,0.3-2,0.5-3.2,0.5
				c-0.7,0-1.4-0.1-2-0.2c-0.6-0.1-1.2-0.3-1.8-0.6c-0.7,0.4-1.3,0.9-1.7,1.5c-0.4,0.6-0.6,1.1-0.6,1.7c0,0.7,0.2,1.3,0.7,1.6
				c0.5,0.4,1.1,0.7,1.8,0.8s1.6,0.3,2.6,0.4c1,0.1,2,0.1,3,0.1c1,0,2,0.1,3,0.2s1.8,0.3,2.6,0.7s1.4,0.8,1.8,1.4s0.7,1.4,0.7,2.4
				c0,0.9-0.2,1.8-0.7,2.6c-0.5,0.8-1.1,1.6-2,2.2c-0.9,0.6-1.9,1.1-3.1,1.5c-1.2,0.4-2.6,0.6-4.1,0.6c-1.5,0-2.9-0.2-4.1-0.5
				s-2.2-0.8-3-1.3c-0.8-0.6-1.4-1.2-1.8-1.9c-0.4-0.7-0.6-1.5-0.6-2.3c0-1.2,0.4-2.3,1.2-3.2c0.8-0.9,2-1.6,3.4-2.1
				c-0.8-0.2-1.5-0.6-2-1.1c-0.5-0.5-0.7-1.1-0.7-2c0-0.3,0.1-0.6,0.2-1c0.1-0.3,0.3-0.7,0.5-1c0.2-0.3,0.5-0.6,0.9-0.9
				c0.3-0.3,0.7-0.6,1.1-0.8c-1-0.6-1.9-1.4-2.4-2.5c-0.6-1-0.9-2.2-0.9-3.6c0-1.1,0.2-2,0.5-2.9c0.4-0.9,0.9-1.6,1.6-2.3
				c0.7-0.6,1.5-1.1,2.4-1.5S147.1,66.1,148.2,66.1z M157.3,90.5c0-0.8-0.2-1.4-0.6-1.9s-0.9-0.8-1.6-1.1c-0.7-0.3-1.4-0.5-2.3-0.6
				s-1.8-0.2-2.7-0.2c-0.9-0.1-1.9-0.1-2.8-0.1c-0.9,0-1.8-0.1-2.6-0.3c-0.7,0.2-1.3,0.5-1.8,0.9c-0.6,0.3-1,0.7-1.4,1.1
				c-0.4,0.4-0.7,0.9-0.9,1.4c-0.2,0.5-0.3,1-0.3,1.6c0,0.7,0.2,1.4,0.6,2c0.4,0.6,0.9,1.2,1.6,1.6c0.7,0.5,1.6,0.8,2.6,1.1
				c1,0.3,2.2,0.4,3.5,0.4c1.2,0,2.3-0.1,3.4-0.4c1.1-0.3,2-0.7,2.8-1.2c0.8-0.5,1.4-1.1,1.9-1.9S157.3,91.4,157.3,90.5z
				 M148.2,79.5c1,0,2-0.2,2.8-0.5c0.8-0.3,1.5-0.7,2.1-1.3c0.6-0.6,1-1.2,1.3-2s0.4-1.6,0.4-2.6c0-0.9-0.2-1.8-0.5-2.5
				c-0.3-0.8-0.7-1.4-1.3-2s-1.3-1-2.1-1.3c-0.8-0.3-1.8-0.5-2.8-0.5c-1,0-2,0.2-2.8,0.5c-0.8,0.3-1.5,0.7-2.1,1.3s-1,1.2-1.3,2
				c-0.3,0.8-0.5,1.6-0.5,2.5c0,0.9,0.2,1.8,0.5,2.6c0.3,0.8,0.7,1.4,1.3,2c0.6,0.6,1.3,1,2.1,1.3C146.3,79.4,147.2,79.5,148.2,79.5
				z"/>
			<path class="st0" d="M168.5,96.4c-0.1,0.2-0.2,0.3-0.3,0.4c-0.1,0.1-0.3,0.2-0.5,0.2H167l3.9-8.7l-9.6-21.9h0.9
				c0.2,0,0.3,0,0.4,0.1s0.2,0.2,0.2,0.3l8.4,19.2c0.1,0.3,0.2,0.7,0.3,1c0.1-0.3,0.2-0.7,0.4-1l8.3-19.2c0.1-0.1,0.1-0.2,0.2-0.3
				c0.1-0.1,0.2-0.1,0.3-0.1h0.8L168.5,96.4z"/>
			<path class="st0" d="M186.6,97V66.5h0.6c0.3,0,0.4,0.2,0.5,0.5l0.1,3.9c1-1.5,2.2-2.6,3.6-3.5c1.4-0.8,2.9-1.3,4.6-1.3
				c2.8,0,5,0.9,6.6,2.8c1.5,1.9,2.3,4.8,2.3,8.6c0,1.6-0.2,3.2-0.6,4.6c-0.4,1.4-1,2.6-1.9,3.7s-1.8,1.9-3.1,2.5
				c-1.2,0.6-2.6,0.9-4.2,0.9c-3.2,0-5.6-1.2-7.2-3.7V97H186.6z M195.7,67c-1.6,0-3,0.4-4.4,1.3c-1.3,0.9-2.5,2.1-3.5,3.6v12.3
				c0.9,1.5,2,2.5,3.1,3.1c1.1,0.6,2.4,0.9,3.9,0.9c1.5,0,2.8-0.3,3.8-0.8c1.1-0.5,2-1.3,2.7-2.2c0.7-1,1.3-2.1,1.6-3.4
				c0.4-1.3,0.5-2.7,0.5-4.3c0-3.6-0.7-6.2-2-7.9C200.3,67.9,198.3,67,195.7,67z"/>
			<path class="st0" d="M217,89.2c-1.4,0-2.5-0.4-3.3-1.1c-0.8-0.8-1.2-2-1.2-3.7V68.2H209c-0.3,0-0.4-0.1-0.4-0.3v-0.4l3.9-0.2
				l0.3-8.6c0-0.1,0.1-0.2,0.1-0.3c0.1-0.1,0.1-0.1,0.2-0.1h0.5v9h7.4v0.9h-7.4v16.1c0,0.7,0.1,1.3,0.3,1.8s0.4,0.9,0.7,1.2
				c0.3,0.3,0.7,0.5,1.1,0.7c0.4,0.1,0.9,0.2,1.4,0.2c0.6,0,1.1-0.1,1.6-0.3c0.4-0.2,0.8-0.4,1.1-0.6s0.6-0.4,0.8-0.6
				c0.2-0.2,0.3-0.3,0.4-0.3c0.1,0,0.2,0,0.2,0.1l0.3,0.4c-0.3,0.3-0.6,0.6-0.9,0.9c-0.3,0.3-0.7,0.5-1.1,0.7s-0.8,0.3-1.3,0.4
				C217.9,89.2,217.4,89.2,217,89.2z"/>
		</g>
	</g>
</g>
<g>
	<g>
		<polygon class="st1" points="9.1,40 7,37.7 31,16.5 51.9,29.8 50.2,32.5 31.3,20.5 		"/>
	</g>
	<g>
		<g>
			
				<rect x="49" y="28.7" transform="matrix(0.5547 0.8321 -0.8321 0.5547 47.7138 -28.6406)" class="st1" width="3.2" height="3.2"/>
		</g>
		<g>
			<path class="st1" d="M57.7,27.5l-1.8-2.7l4.9-3.2l1.8,2.7L57.7,27.5z M67.4,21l-1.8-2.7l4.9-3.2l1.8,2.7L67.4,21z"/>
		</g>
		<g>
			
				<rect x="76" y="10.7" transform="matrix(0.5547 0.8321 -0.8321 0.5547 44.7723 -59.1084)" class="st1" width="3.2" height="3.2"/>
		</g>
	</g>
	<g>
		<polygon class="st1" points="78.8,17.4 75.7,16.6 76.6,13.1 73.3,13.1 73.3,9.9 80.8,9.8 		"/>
	</g>
</g>
<g>
	<path class="st0" d="M13.6,112.9c0,0.1,0,0.1,0,0.2c0.1-0.1,0.1-0.2,0.2-0.3l4.8-7.5c0.1-0.1,0.1-0.1,0.1-0.1c0,0,0.1,0,0.2,0h0.5
		l-1.3,10.7h-0.7l1.1-9.2c0-0.1,0-0.1,0-0.2s0-0.1,0-0.2l-4.8,7.5c-0.1,0.1-0.2,0.2-0.3,0.2h-0.1c-0.1,0-0.2-0.1-0.3-0.2l-3-7.5
		c0,0.2,0,0.3,0,0.4L9,115.7H8.3L9.7,105h0.5c0.1,0,0.1,0,0.2,0s0.1,0.1,0.1,0.1l3.1,7.5C13.5,112.7,13.5,112.8,13.6,112.9z"/>
	<path class="st0" d="M24.1,115.8c-0.4,0-0.8-0.1-1.1-0.2c-0.3-0.1-0.6-0.3-0.8-0.6s-0.4-0.6-0.5-1s-0.2-0.8-0.2-1.3
		c0-0.6,0.1-1.2,0.3-1.8c0.2-0.6,0.4-1.1,0.8-1.5c0.3-0.4,0.7-0.8,1.2-1c0.5-0.3,1-0.4,1.5-0.4c0.4,0,0.8,0.1,1.1,0.2
		s0.6,0.3,0.8,0.6c0.2,0.3,0.4,0.6,0.5,1c0.1,0.4,0.2,0.8,0.2,1.3c0,0.6-0.1,1.2-0.3,1.8s-0.4,1.1-0.8,1.5c-0.3,0.4-0.7,0.8-1.2,1
		S24.6,115.8,24.1,115.8z M24.1,115.2c0.4,0,0.8-0.1,1.2-0.3c0.4-0.2,0.7-0.5,0.9-0.9c0.3-0.4,0.5-0.8,0.6-1.3
		c0.1-0.5,0.2-1,0.2-1.5c0-0.8-0.2-1.4-0.5-1.9c-0.4-0.4-0.9-0.7-1.5-0.7c-0.4,0-0.8,0.1-1.2,0.3c-0.4,0.2-0.7,0.5-0.9,0.9
		c-0.3,0.4-0.5,0.8-0.6,1.3c-0.1,0.5-0.2,1-0.2,1.5c0,0.8,0.2,1.4,0.5,1.9C23,115,23.5,115.2,24.1,115.2z"/>
	<path class="st0" d="M30.1,115.7l0.9-7.6h0.3c0.2,0,0.3,0.1,0.3,0.3l-0.2,2.2c0.2-0.4,0.4-0.8,0.7-1.1c0.2-0.3,0.5-0.6,0.8-0.8
		c0.3-0.2,0.6-0.4,0.9-0.5c0.3-0.1,0.6-0.2,0.9-0.2c0.3,0,0.6,0.1,0.8,0.2c0.2,0.1,0.4,0.3,0.6,0.6c0.1,0.2,0.2,0.5,0.3,0.9
		c0,0.4,0,0.8,0,1.2l-0.6,4.8h-0.7l0.6-4.8c0.1-0.7,0-1.3-0.1-1.7c-0.2-0.4-0.5-0.6-1-0.6c-0.3,0-0.6,0.1-0.9,0.2
		c-0.3,0.1-0.6,0.3-0.8,0.6c-0.3,0.3-0.5,0.6-0.8,1c-0.2,0.4-0.4,0.8-0.6,1.3l-0.5,4H30.1z"/>
	<path class="st0" d="M40.4,108.2l-0.9,7.5h-0.7l0.9-7.5H40.4z M41,105.6c0,0.1,0,0.2-0.1,0.3c0,0.1-0.1,0.1-0.1,0.2
		c-0.1,0.1-0.1,0.1-0.2,0.1c-0.1,0-0.2,0.1-0.2,0.1c-0.1,0-0.2,0-0.2-0.1s-0.1-0.1-0.2-0.1c-0.1-0.1-0.1-0.1-0.1-0.2
		c0-0.1-0.1-0.2-0.1-0.3s0-0.2,0.1-0.3c0-0.1,0.1-0.2,0.1-0.2C40,105,40,105,40.1,105s0.2-0.1,0.2-0.1c0.1,0,0.2,0,0.2,0.1
		c0.1,0,0.1,0.1,0.2,0.1c0.1,0.1,0.1,0.1,0.1,0.2C41,105.4,41,105.5,41,105.6z"/>
	<path class="st0" d="M43.4,114.5c0,0,0-0.1,0-0.1c0,0,0-0.1,0-0.2c0-0.1,0-0.2,0-0.4c0-0.1,0-0.3,0.1-0.5L44,109h-1
		c-0.1,0-0.1,0-0.1,0s0-0.1,0-0.1l0-0.3l1.2-0.1l0.5-2.7c0,0,0-0.1,0.1-0.1c0,0,0.1-0.1,0.1-0.1h0.3l-0.4,2.9H47l-0.1,0.5h-2.2
		l-0.5,4.3c0,0.2,0,0.4-0.1,0.5c0,0.1,0,0.2,0,0.3c0,0.1,0,0.1,0,0.2c0,0,0,0.1,0,0.1c0,0.3,0.1,0.6,0.2,0.7
		c0.2,0.1,0.4,0.2,0.6,0.2c0.2,0,0.3,0,0.4-0.1c0.1-0.1,0.2-0.1,0.3-0.2s0.2-0.1,0.2-0.2c0.1-0.1,0.1-0.1,0.1-0.1
		c0.1,0,0.1,0,0.1,0.1l0.1,0.3c-0.2,0.2-0.4,0.4-0.7,0.5c-0.3,0.1-0.6,0.2-0.9,0.2c-0.4,0-0.7-0.1-1-0.3S43.4,114.9,43.4,114.5z"/>
	<path class="st0" d="M51.3,115.8c-0.4,0-0.8-0.1-1.1-0.2c-0.3-0.1-0.6-0.3-0.8-0.6s-0.4-0.6-0.5-1s-0.2-0.8-0.2-1.3
		c0-0.6,0.1-1.2,0.3-1.8c0.2-0.6,0.4-1.1,0.8-1.5c0.3-0.4,0.7-0.8,1.2-1c0.5-0.3,1-0.4,1.5-0.4c0.4,0,0.8,0.1,1.1,0.2
		s0.6,0.3,0.8,0.6c0.2,0.3,0.4,0.6,0.5,1c0.1,0.4,0.2,0.8,0.2,1.3c0,0.6-0.1,1.2-0.3,1.8s-0.4,1.1-0.8,1.5c-0.3,0.4-0.7,0.8-1.2,1
		S51.9,115.8,51.3,115.8z M51.4,115.2c0.4,0,0.8-0.1,1.2-0.3c0.4-0.2,0.7-0.5,0.9-0.9c0.3-0.4,0.5-0.8,0.6-1.3
		c0.1-0.5,0.2-1,0.2-1.5c0-0.8-0.2-1.4-0.5-1.9c-0.4-0.4-0.9-0.7-1.5-0.7c-0.4,0-0.8,0.1-1.2,0.3c-0.4,0.2-0.7,0.5-0.9,0.9
		c-0.3,0.4-0.5,0.8-0.6,1.3c-0.1,0.5-0.2,1-0.2,1.5c0,0.8,0.2,1.4,0.5,1.9C50.3,115,50.8,115.2,51.4,115.2z"/>
	<path class="st0" d="M57.3,115.7l0.9-7.6h0.3c0.2,0,0.3,0.1,0.3,0.3l-0.2,2.2c0.2-0.5,0.4-0.9,0.7-1.3c0.2-0.4,0.5-0.7,0.8-0.9
		c0.3-0.2,0.6-0.3,0.9-0.4c0.3-0.1,0.6,0,0.9,0.1l-0.1,0.7c-0.3-0.1-0.7-0.2-1-0.1c-0.3,0.1-0.6,0.2-0.9,0.5c-0.3,0.3-0.5,0.6-0.8,1
		c-0.2,0.4-0.4,0.9-0.6,1.5l-0.5,3.8H57.3z"/>
	<path class="st0" d="M64.9,108.2l-0.9,7.5h-0.7l0.9-7.5H64.9z M65.4,105.6c0,0.1,0,0.2-0.1,0.3c0,0.1-0.1,0.1-0.1,0.2
		c-0.1,0.1-0.1,0.1-0.2,0.1c-0.1,0-0.2,0.1-0.2,0.1c-0.1,0-0.2,0-0.2-0.1s-0.1-0.1-0.2-0.1c-0.1-0.1-0.1-0.1-0.1-0.2
		c0-0.1-0.1-0.2-0.1-0.3s0-0.2,0.1-0.3c0-0.1,0.1-0.2,0.1-0.2c0.1-0.1,0.1-0.1,0.2-0.1s0.2-0.1,0.2-0.1c0.1,0,0.2,0,0.2,0.1
		c0.1,0,0.1,0.1,0.2,0.1c0.1,0.1,0.1,0.1,0.1,0.2C65.4,105.4,65.4,105.5,65.4,105.6z"/>
	<path class="st0" d="M67.2,115.7l0.9-7.6h0.3c0.2,0,0.3,0.1,0.3,0.3l-0.2,2.2c0.2-0.4,0.4-0.8,0.7-1.1c0.2-0.3,0.5-0.6,0.8-0.8
		c0.3-0.2,0.6-0.4,0.9-0.5c0.3-0.1,0.6-0.2,0.9-0.2c0.3,0,0.6,0.1,0.8,0.2c0.2,0.1,0.4,0.3,0.6,0.6c0.1,0.2,0.2,0.5,0.3,0.9
		c0,0.4,0,0.8,0,1.2l-0.6,4.8h-0.7l0.6-4.8c0.1-0.7,0-1.3-0.1-1.7c-0.2-0.4-0.5-0.6-1-0.6c-0.3,0-0.6,0.1-0.9,0.2
		c-0.3,0.1-0.6,0.3-0.8,0.6c-0.3,0.3-0.5,0.6-0.8,1c-0.2,0.4-0.4,0.8-0.6,1.3l-0.5,4H67.2z"/>
	<path class="st0" d="M81.2,110.1c0,0.3,0,0.5-0.1,0.8c-0.1,0.2-0.2,0.4-0.3,0.6s-0.2,0.4-0.3,0.5s-0.2,0.3-0.3,0.5
		s-0.2,0.3-0.2,0.5c-0.1,0.2-0.1,0.3-0.1,0.5c0,0.1,0,0.3,0.1,0.4c0.1,0.1,0.1,0.2,0.2,0.4c0.1,0.1,0.2,0.2,0.3,0.4s0.2,0.3,0.3,0.4
		c0.1,0.1,0.2,0.3,0.2,0.5c0.1,0.2,0.1,0.4,0.1,0.6c0,0.3-0.1,0.6-0.2,0.9c-0.2,0.3-0.4,0.6-0.7,0.8s-0.6,0.4-1.1,0.5
		c-0.4,0.1-0.9,0.2-1.4,0.2c-0.4,0-0.8,0-1.1-0.1c-0.3-0.1-0.6-0.2-0.9-0.4c-0.2-0.2-0.4-0.3-0.6-0.6s-0.2-0.5-0.2-0.8
		c0-0.4,0.1-0.8,0.4-1.1c0.3-0.3,0.6-0.6,1-0.8s0.9-0.3,1.5-0.4c0.6-0.1,1.1,0,1.7,0c-0.1-0.1-0.2-0.2-0.2-0.4
		c-0.1-0.1-0.1-0.3-0.1-0.4c0-0.2,0-0.4,0.1-0.5s0.2-0.4,0.3-0.7c-0.2,0.1-0.4,0.2-0.7,0.3c-0.2,0.1-0.5,0.1-0.8,0.1
		c-0.3,0-0.6,0-0.8-0.1c-0.2-0.1-0.5-0.2-0.6-0.4c-0.2-0.2-0.3-0.4-0.4-0.7c-0.1-0.3-0.2-0.6-0.2-0.9c0-0.3,0.1-0.7,0.2-1
		c0.1-0.3,0.3-0.6,0.5-0.9s0.5-0.5,0.9-0.6c0.3-0.2,0.7-0.2,1.2-0.2c0.5,0,1,0.1,1.3,0.4h2l0,0.2c0,0.1,0,0.1-0.1,0.1
		c0,0-0.1,0.1-0.2,0.1l-1.2,0.1c0.1,0.2,0.2,0.3,0.2,0.5C81.1,109.7,81.2,109.9,81.2,110.1z M80.3,116.1c0-0.2,0-0.5-0.1-0.6
		c-0.1-0.2-0.2-0.3-0.3-0.5l0,0c-0.7-0.1-1.4-0.1-1.9-0.1s-1,0.2-1.3,0.3c-0.4,0.2-0.6,0.4-0.8,0.6c-0.2,0.2-0.3,0.5-0.3,0.8
		c0,0.2,0,0.4,0.1,0.6s0.2,0.3,0.4,0.4c0.2,0.1,0.4,0.2,0.7,0.3c0.3,0.1,0.5,0.1,0.9,0.1c0.4,0,0.8-0.1,1.1-0.2
		c0.3-0.1,0.6-0.2,0.8-0.4s0.4-0.4,0.5-0.6C80.3,116.6,80.3,116.4,80.3,116.1z M78.5,112.5c0.3,0,0.6-0.1,0.9-0.2
		c0.3-0.1,0.5-0.3,0.6-0.5s0.3-0.5,0.4-0.8s0.1-0.6,0.1-0.8c0-0.5-0.1-0.9-0.4-1.2c-0.3-0.3-0.7-0.4-1.1-0.4c-0.3,0-0.6,0.1-0.9,0.2
		c-0.3,0.1-0.5,0.3-0.6,0.5c-0.2,0.2-0.3,0.5-0.4,0.7s-0.1,0.6-0.1,0.8c0,0.5,0.1,0.9,0.4,1.2C77.6,112.4,78,112.5,78.5,112.5z"/>
	<path class="st0" d="M95.9,115.7h-0.6c-0.1,0-0.1,0-0.2-0.1s-0.1-0.1-0.1-0.1l-0.8-3.1h-4.8l-1.5,3.1c0,0.1-0.1,0.1-0.1,0.1
		c-0.1,0-0.1,0.1-0.2,0.1h-0.6l5.4-10.7h0.8L95.9,115.7z M89.8,111.8h4.4l-1.3-5.5c0-0.1,0-0.2-0.1-0.3c0-0.1,0-0.2-0.1-0.3
		c-0.1,0.1-0.1,0.2-0.1,0.3c0,0.1-0.1,0.2-0.1,0.3L89.8,111.8z"/>
	<path class="st0" d="M103.4,110.1c0,0.3,0,0.5-0.1,0.8c-0.1,0.2-0.2,0.4-0.3,0.6s-0.2,0.4-0.3,0.5s-0.2,0.3-0.3,0.5
		s-0.2,0.3-0.2,0.5c-0.1,0.2-0.1,0.3-0.1,0.5c0,0.1,0,0.3,0.1,0.4c0.1,0.1,0.1,0.2,0.2,0.4c0.1,0.1,0.2,0.2,0.3,0.4s0.2,0.3,0.3,0.4
		c0.1,0.1,0.2,0.3,0.2,0.5c0.1,0.2,0.1,0.4,0.1,0.6c0,0.3-0.1,0.6-0.2,0.9c-0.2,0.3-0.4,0.6-0.7,0.8s-0.6,0.4-1.1,0.5
		c-0.4,0.1-0.9,0.2-1.4,0.2c-0.4,0-0.8,0-1.1-0.1c-0.3-0.1-0.6-0.2-0.9-0.4c-0.2-0.2-0.4-0.3-0.6-0.6s-0.2-0.5-0.2-0.8
		c0-0.4,0.1-0.8,0.4-1.1c0.3-0.3,0.6-0.6,1-0.8s0.9-0.3,1.5-0.4c0.6-0.1,1.1,0,1.7,0c-0.1-0.1-0.2-0.2-0.2-0.4
		c-0.1-0.1-0.1-0.3-0.1-0.4c0-0.2,0-0.4,0.1-0.5s0.2-0.4,0.3-0.7c-0.2,0.1-0.4,0.2-0.7,0.3c-0.2,0.1-0.5,0.1-0.8,0.1
		c-0.3,0-0.6,0-0.8-0.1c-0.2-0.1-0.5-0.2-0.6-0.4c-0.2-0.2-0.3-0.4-0.4-0.7c-0.1-0.3-0.2-0.6-0.2-0.9c0-0.3,0.1-0.7,0.2-1
		c0.1-0.3,0.3-0.6,0.5-0.9s0.5-0.5,0.9-0.6c0.3-0.2,0.7-0.2,1.2-0.2c0.5,0,1,0.1,1.3,0.4h2l0,0.2c0,0.1,0,0.1-0.1,0.1
		c0,0-0.1,0.1-0.2,0.1l-1.2,0.1c0.1,0.2,0.2,0.3,0.2,0.5C103.4,109.7,103.4,109.9,103.4,110.1z M102.6,116.1c0-0.2,0-0.5-0.1-0.6
		c-0.1-0.2-0.2-0.3-0.3-0.5l0,0c-0.7-0.1-1.4-0.1-1.9-0.1s-1,0.2-1.3,0.3c-0.4,0.2-0.6,0.4-0.8,0.6c-0.2,0.2-0.3,0.5-0.3,0.8
		c0,0.2,0,0.4,0.1,0.6s0.2,0.3,0.4,0.4c0.2,0.1,0.4,0.2,0.7,0.3c0.3,0.1,0.5,0.1,0.9,0.1c0.4,0,0.8-0.1,1.1-0.2
		c0.3-0.1,0.6-0.2,0.8-0.4s0.4-0.4,0.5-0.6C102.5,116.6,102.6,116.4,102.6,116.1z M100.7,112.5c0.3,0,0.6-0.1,0.9-0.2
		c0.3-0.1,0.5-0.3,0.6-0.5s0.3-0.5,0.4-0.8s0.1-0.6,0.1-0.8c0-0.5-0.1-0.9-0.4-1.2c-0.3-0.3-0.7-0.4-1.1-0.4c-0.3,0-0.6,0.1-0.9,0.2
		c-0.3,0.1-0.5,0.3-0.6,0.5c-0.2,0.2-0.3,0.5-0.4,0.7s-0.1,0.6-0.1,0.8c0,0.5,0.1,0.9,0.4,1.2C99.8,112.4,100.2,112.5,100.7,112.5z"
		/>
	<path class="st0" d="M106,115.7l0.9-7.6h0.3c0.2,0,0.3,0.1,0.3,0.3l-0.2,2.2c0.2-0.5,0.4-0.9,0.7-1.3c0.2-0.4,0.5-0.7,0.8-0.9
		c0.3-0.2,0.6-0.3,0.9-0.4c0.3-0.1,0.6,0,0.9,0.1l-0.1,0.7c-0.3-0.1-0.7-0.2-1-0.1c-0.3,0.1-0.6,0.2-0.9,0.5c-0.3,0.3-0.5,0.6-0.8,1
		c-0.2,0.4-0.4,0.9-0.6,1.5l-0.5,3.8H106z"/>
	<path class="st0" d="M113.5,108.2l-0.9,7.5h-0.7l0.9-7.5H113.5z M114.1,105.6c0,0.1,0,0.2-0.1,0.3c0,0.1-0.1,0.1-0.1,0.2
		c-0.1,0.1-0.1,0.1-0.2,0.1c-0.1,0-0.2,0.1-0.2,0.1c-0.1,0-0.2,0-0.2-0.1s-0.1-0.1-0.2-0.1c-0.1-0.1-0.1-0.1-0.1-0.2
		c0-0.1-0.1-0.2-0.1-0.3s0-0.2,0.1-0.3c0-0.1,0.1-0.2,0.1-0.2c0.1-0.1,0.1-0.1,0.2-0.1s0.2-0.1,0.2-0.1c0.1,0,0.2,0,0.2,0.1
		c0.1,0,0.1,0.1,0.2,0.1c0.1,0.1,0.1,0.1,0.1,0.2C114.1,105.4,114.1,105.5,114.1,105.6z"/>
	<path class="st0" d="M120.6,115.1c-0.2,0.2-0.5,0.3-0.7,0.5c-0.2,0.1-0.5,0.2-0.7,0.2c-0.2,0-0.5,0.1-0.8,0.1
		c-0.4,0-0.8-0.1-1.1-0.2c-0.3-0.1-0.6-0.4-0.8-0.6c-0.2-0.3-0.4-0.6-0.5-1c-0.1-0.4-0.2-0.8-0.2-1.2c0-0.4,0-0.8,0.1-1.2
		c0.1-0.4,0.2-0.8,0.4-1.1c0.2-0.4,0.3-0.7,0.6-1c0.2-0.3,0.5-0.6,0.8-0.8c0.3-0.2,0.6-0.4,0.9-0.5s0.7-0.2,1-0.2
		c0.2,0,0.5,0,0.7,0.1c0.2,0,0.4,0.1,0.5,0.2c0.2,0.1,0.3,0.2,0.5,0.3c0.1,0.1,0.3,0.3,0.4,0.4l-0.2,0.2c0,0.1-0.1,0.1-0.2,0.1
		c0,0-0.1,0-0.2-0.1c-0.1-0.1-0.2-0.2-0.3-0.3c-0.1-0.1-0.3-0.2-0.5-0.3c-0.2-0.1-0.4-0.1-0.7-0.1c-0.4,0-0.8,0.1-1.2,0.3
		c-0.4,0.2-0.7,0.5-1,0.9c-0.3,0.4-0.5,0.8-0.6,1.3c-0.2,0.5-0.2,1-0.2,1.6c0,0.3,0,0.7,0.1,1c0.1,0.3,0.2,0.6,0.4,0.8
		c0.2,0.2,0.4,0.4,0.6,0.5s0.5,0.2,0.9,0.2c0.3,0,0.5,0,0.7-0.1c0.2-0.1,0.4-0.1,0.6-0.2s0.3-0.2,0.4-0.3c0.1-0.1,0.2-0.2,0.3-0.3
		c0.1-0.1,0.2-0.2,0.2-0.2c0.1-0.1,0.1-0.1,0.2-0.1c0.1,0,0.1,0,0.2,0.1l0.2,0.2C121.1,114.6,120.8,114.9,120.6,115.1z"/>
	<path class="st0" d="M125.2,108.2l-0.6,4.8c-0.1,0.7,0,1.3,0.1,1.7s0.5,0.6,1,0.6c0.3,0,0.6-0.1,0.8-0.2c0.3-0.1,0.6-0.3,0.8-0.6
		c0.3-0.3,0.5-0.6,0.8-1s0.4-0.8,0.6-1.3l0.5-4h0.7l-0.9,7.5h-0.3c-0.1,0-0.2,0-0.2-0.1c0,0-0.1-0.1-0.1-0.2l0.2-2.1
		c-0.2,0.4-0.4,0.8-0.7,1.1s-0.5,0.6-0.8,0.8s-0.6,0.4-0.9,0.5c-0.3,0.1-0.6,0.2-0.9,0.2c-0.6,0-1.1-0.2-1.4-0.7
		c-0.3-0.5-0.4-1.2-0.2-2.1l0.6-4.8H125.2z"/>
	<path class="st0" d="M132.4,115.7l1.3-11h0.7l-1.3,11H132.4z"/>
	<path class="st0" d="M136.9,114.5c0,0,0-0.1,0-0.1c0,0,0-0.1,0-0.2c0-0.1,0-0.2,0-0.4c0-0.1,0-0.3,0.1-0.5l0.5-4.3h-1
		c-0.1,0-0.1,0-0.1,0s0-0.1,0-0.1l0-0.3l1.2-0.1l0.5-2.7c0,0,0-0.1,0.1-0.1c0,0,0.1-0.1,0.1-0.1h0.3l-0.4,2.9h2.2l-0.1,0.5h-2.2
		l-0.5,4.3c0,0.2,0,0.4-0.1,0.5c0,0.1,0,0.2,0,0.3c0,0.1,0,0.1,0,0.2c0,0,0,0.1,0,0.1c0,0.3,0.1,0.6,0.2,0.7
		c0.2,0.1,0.4,0.2,0.6,0.2c0.2,0,0.3,0,0.4-0.1c0.1-0.1,0.2-0.1,0.3-0.2s0.2-0.1,0.2-0.2c0.1-0.1,0.1-0.1,0.1-0.1
		c0.1,0,0.1,0,0.1,0.1l0.1,0.3c-0.2,0.2-0.4,0.4-0.7,0.5s-0.6,0.2-0.9,0.2c-0.4,0-0.7-0.1-1-0.3
		C137.1,115.3,136.9,114.9,136.9,114.5z"/>
	<path class="st0" d="M144,108.2l-0.6,4.8c-0.1,0.7,0,1.3,0.1,1.7s0.5,0.6,1,0.6c0.3,0,0.6-0.1,0.8-0.2c0.3-0.1,0.6-0.3,0.8-0.6
		c0.3-0.3,0.5-0.6,0.8-1s0.4-0.8,0.6-1.3l0.5-4h0.7l-0.9,7.5h-0.3c-0.1,0-0.2,0-0.2-0.1c0,0-0.1-0.1-0.1-0.2l0.2-2.1
		c-0.2,0.4-0.4,0.8-0.7,1.1c-0.3,0.3-0.5,0.6-0.8,0.8s-0.6,0.4-0.9,0.5c-0.3,0.1-0.6,0.2-0.9,0.2c-0.6,0-1.1-0.2-1.4-0.7
		c-0.3-0.5-0.4-1.2-0.2-2.1l0.6-4.8H144z"/>
	<path class="st0" d="M151.1,115.7l0.9-7.6h0.3c0.2,0,0.3,0.1,0.3,0.3l-0.2,2.2c0.2-0.5,0.4-0.9,0.7-1.3c0.2-0.4,0.5-0.7,0.8-0.9
		s0.6-0.3,0.9-0.4c0.3-0.1,0.6,0,0.9,0.1l-0.1,0.7c-0.3-0.1-0.7-0.2-1-0.1c-0.3,0.1-0.6,0.2-0.9,0.5c-0.3,0.3-0.5,0.6-0.8,1
		c-0.2,0.4-0.4,0.9-0.6,1.5l-0.5,3.8H151.1z"/>
	<path class="st0" d="M162.3,109.6c0,0.2,0,0.4-0.1,0.6c-0.1,0.2-0.2,0.4-0.3,0.5c-0.1,0.2-0.3,0.3-0.6,0.5
		c-0.2,0.1-0.6,0.3-0.9,0.4s-0.8,0.2-1.4,0.3s-1.1,0.2-1.8,0.3c0,0.1,0,0.2,0,0.3c0,0.1,0,0.2,0,0.3c0,0.8,0.2,1.3,0.5,1.8
		c0.3,0.4,0.9,0.6,1.5,0.6c0.3,0,0.5,0,0.7-0.1c0.2-0.1,0.4-0.1,0.6-0.2c0.2-0.1,0.3-0.2,0.4-0.3c0.1-0.1,0.2-0.2,0.3-0.3
		c0.1-0.1,0.2-0.2,0.3-0.2c0.1-0.1,0.1-0.1,0.2-0.1s0.1,0,0.2,0.1l0.2,0.2c-0.2,0.3-0.5,0.5-0.7,0.7c-0.2,0.2-0.5,0.3-0.7,0.5
		s-0.5,0.2-0.7,0.3c-0.3,0.1-0.5,0.1-0.8,0.1c-0.4,0-0.8-0.1-1.1-0.2c-0.3-0.1-0.6-0.3-0.8-0.6c-0.2-0.3-0.4-0.6-0.5-0.9
		s-0.2-0.8-0.2-1.2c0-0.4,0-0.8,0.1-1.1c0.1-0.4,0.2-0.8,0.3-1.1c0.1-0.4,0.3-0.7,0.6-1c0.2-0.3,0.5-0.6,0.8-0.8
		c0.3-0.2,0.6-0.4,0.9-0.5c0.3-0.1,0.7-0.2,1.1-0.2c0.4,0,0.7,0.1,0.9,0.2c0.3,0.1,0.5,0.2,0.6,0.4s0.3,0.3,0.3,0.5
		C162.3,109.3,162.3,109.5,162.3,109.6z M160.3,108.6c-0.4,0-0.8,0.1-1.1,0.3s-0.6,0.4-0.9,0.7c-0.3,0.3-0.5,0.6-0.6,1
		c-0.2,0.4-0.3,0.8-0.4,1.2c0.6-0.1,1.2-0.2,1.7-0.2c0.5-0.1,0.9-0.2,1.2-0.3s0.6-0.2,0.8-0.3c0.2-0.1,0.4-0.2,0.5-0.4
		c0.1-0.1,0.2-0.3,0.2-0.4c0-0.1,0.1-0.3,0.1-0.4c0-0.1,0-0.2-0.1-0.3c0-0.1-0.1-0.2-0.2-0.3c-0.1-0.1-0.3-0.2-0.4-0.3
		C160.8,108.6,160.5,108.6,160.3,108.6z"/>
	<path class="st0" d="M170.8,111.4l-0.5,4.3h-0.8l1.3-10.7h2.6c1.1,0,1.8,0.2,2.4,0.7c0.5,0.5,0.8,1.1,0.8,2c0,0.5-0.1,1-0.3,1.5
		s-0.5,0.8-0.8,1.2c-0.3,0.3-0.8,0.6-1.2,0.8c-0.5,0.2-1,0.3-1.6,0.3H170.8z M171.5,105.6l-0.6,5.2h1.8c0.5,0,0.9-0.1,1.3-0.2
		c0.4-0.2,0.7-0.4,1-0.6c0.3-0.3,0.5-0.6,0.6-1c0.1-0.4,0.2-0.8,0.2-1.2c0-0.7-0.2-1.2-0.6-1.6c-0.4-0.4-1-0.6-1.9-0.6H171.5z"/>
	<path class="st0" d="M178.1,115.7l0.9-7.6h0.3c0.2,0,0.3,0.1,0.3,0.3l-0.2,2.2c0.2-0.5,0.4-0.9,0.7-1.3c0.2-0.4,0.5-0.7,0.8-0.9
		s0.6-0.3,0.9-0.4c0.3-0.1,0.6,0,0.9,0.1l-0.1,0.7c-0.3-0.1-0.7-0.2-1-0.1c-0.3,0.1-0.6,0.2-0.9,0.5c-0.3,0.3-0.5,0.6-0.8,1
		c-0.2,0.4-0.4,0.9-0.6,1.5l-0.5,3.8H178.1z"/>
	<path class="st0" d="M186.2,115.8c-0.4,0-0.8-0.1-1.1-0.2c-0.3-0.1-0.6-0.3-0.8-0.6c-0.2-0.3-0.4-0.6-0.5-1s-0.2-0.8-0.2-1.3
		c0-0.6,0.1-1.2,0.3-1.8c0.2-0.6,0.4-1.1,0.8-1.5s0.7-0.8,1.2-1c0.5-0.3,1-0.4,1.5-0.4c0.4,0,0.8,0.1,1.1,0.2
		c0.3,0.1,0.6,0.3,0.8,0.6c0.2,0.3,0.4,0.6,0.5,1c0.1,0.4,0.2,0.8,0.2,1.3c0,0.6-0.1,1.2-0.3,1.8s-0.4,1.1-0.8,1.5
		c-0.3,0.4-0.7,0.8-1.2,1C187.3,115.7,186.8,115.8,186.2,115.8z M186.3,115.2c0.4,0,0.8-0.1,1.2-0.3c0.4-0.2,0.7-0.5,0.9-0.9
		s0.5-0.8,0.6-1.3c0.1-0.5,0.2-1,0.2-1.5c0-0.8-0.2-1.4-0.5-1.9c-0.4-0.4-0.9-0.7-1.5-0.7c-0.4,0-0.8,0.1-1.2,0.3
		c-0.4,0.2-0.7,0.5-0.9,0.9c-0.3,0.4-0.5,0.8-0.6,1.3c-0.1,0.5-0.2,1-0.2,1.5c0,0.8,0.2,1.4,0.5,1.9
		C185.1,115,185.6,115.2,186.3,115.2z"/>
	<path class="st0" d="M193.9,108.2l-1,8.5c0,0.3-0.1,0.5-0.2,0.7c-0.1,0.2-0.2,0.4-0.4,0.6s-0.3,0.3-0.6,0.4s-0.5,0.1-0.7,0.1
		c-0.1,0-0.3,0-0.4,0c-0.1,0-0.2-0.1-0.3-0.1l0.1-0.4c0,0,0-0.1,0.1-0.1c0,0,0.1,0,0.1,0c0,0,0.1,0,0.1,0c0.1,0,0.1,0,0.2,0
		c0.4,0,0.7-0.1,0.9-0.3c0.2-0.2,0.3-0.5,0.4-0.9l1-8.5H193.9z M194.5,105.6c0,0.1,0,0.2-0.1,0.3c0,0.1-0.1,0.1-0.1,0.2
		c-0.1,0.1-0.1,0.1-0.2,0.1c-0.1,0-0.2,0.1-0.2,0.1c-0.1,0-0.2,0-0.2-0.1c-0.1,0-0.1-0.1-0.2-0.1c-0.1-0.1-0.1-0.1-0.1-0.2
		c0-0.1-0.1-0.2-0.1-0.3s0-0.2,0.1-0.3c0-0.1,0.1-0.2,0.1-0.2c0.1-0.1,0.1-0.1,0.2-0.1c0.1,0,0.2-0.1,0.2-0.1c0.1,0,0.2,0,0.2,0.1
		c0.1,0,0.1,0.1,0.2,0.1s0.1,0.1,0.1,0.2C194.4,105.4,194.5,105.5,194.5,105.6z"/>
	<path class="st0" d="M202,109.6c0,0.2,0,0.4-0.1,0.6c-0.1,0.2-0.2,0.4-0.3,0.5c-0.1,0.2-0.3,0.3-0.6,0.5c-0.2,0.1-0.6,0.3-0.9,0.4
		s-0.8,0.2-1.4,0.3s-1.1,0.2-1.8,0.3c0,0.1,0,0.2,0,0.3c0,0.1,0,0.2,0,0.3c0,0.8,0.2,1.3,0.5,1.8c0.3,0.4,0.9,0.6,1.5,0.6
		c0.3,0,0.5,0,0.7-0.1c0.2-0.1,0.4-0.1,0.6-0.2c0.2-0.1,0.3-0.2,0.4-0.3c0.1-0.1,0.2-0.2,0.3-0.3c0.1-0.1,0.2-0.2,0.3-0.2
		c0.1-0.1,0.1-0.1,0.2-0.1s0.1,0,0.2,0.1l0.2,0.2c-0.2,0.3-0.5,0.5-0.7,0.7c-0.2,0.2-0.5,0.3-0.7,0.5s-0.5,0.2-0.7,0.3
		c-0.3,0.1-0.5,0.1-0.8,0.1c-0.4,0-0.8-0.1-1.1-0.2c-0.3-0.1-0.6-0.3-0.8-0.6c-0.2-0.3-0.4-0.6-0.5-0.9s-0.2-0.8-0.2-1.2
		c0-0.4,0-0.8,0.1-1.1c0.1-0.4,0.2-0.8,0.3-1.1c0.1-0.4,0.3-0.7,0.6-1c0.2-0.3,0.5-0.6,0.8-0.8c0.3-0.2,0.6-0.4,0.9-0.5
		c0.3-0.1,0.7-0.2,1.1-0.2c0.4,0,0.7,0.1,0.9,0.2c0.3,0.1,0.5,0.2,0.6,0.4s0.3,0.3,0.3,0.5C202,109.3,202,109.5,202,109.6z
		 M200,108.6c-0.4,0-0.8,0.1-1.1,0.3s-0.6,0.4-0.9,0.7c-0.3,0.3-0.5,0.6-0.6,1c-0.2,0.4-0.3,0.8-0.4,1.2c0.6-0.1,1.2-0.2,1.7-0.2
		c0.5-0.1,0.9-0.2,1.2-0.3s0.6-0.2,0.8-0.3c0.2-0.1,0.4-0.2,0.5-0.4c0.1-0.1,0.2-0.3,0.2-0.4c0-0.1,0.1-0.3,0.1-0.4
		c0-0.1,0-0.2-0.1-0.3c0-0.1-0.1-0.2-0.2-0.3c-0.1-0.1-0.3-0.2-0.4-0.3C200.5,108.6,200.2,108.6,200,108.6z"/>
	<path class="st0" d="M208.8,115.1c-0.2,0.2-0.5,0.3-0.7,0.5c-0.2,0.1-0.5,0.2-0.7,0.2c-0.2,0-0.5,0.1-0.8,0.1
		c-0.4,0-0.8-0.1-1.1-0.2c-0.3-0.1-0.6-0.4-0.8-0.6c-0.2-0.3-0.4-0.6-0.5-1c-0.1-0.4-0.2-0.8-0.2-1.2c0-0.4,0-0.8,0.1-1.2
		c0.1-0.4,0.2-0.8,0.4-1.1c0.2-0.4,0.3-0.7,0.6-1c0.2-0.3,0.5-0.6,0.8-0.8c0.3-0.2,0.6-0.4,0.9-0.5s0.7-0.2,1-0.2
		c0.2,0,0.5,0,0.7,0.1c0.2,0,0.4,0.1,0.5,0.2c0.2,0.1,0.3,0.2,0.5,0.3c0.1,0.1,0.3,0.3,0.4,0.4l-0.2,0.2c0,0.1-0.1,0.1-0.2,0.1
		c-0.1,0-0.1,0-0.2-0.1c-0.1-0.1-0.2-0.2-0.3-0.3s-0.3-0.2-0.5-0.3s-0.4-0.1-0.7-0.1c-0.4,0-0.8,0.1-1.2,0.3s-0.7,0.5-1,0.9
		c-0.3,0.4-0.5,0.8-0.6,1.3c-0.2,0.5-0.2,1-0.2,1.6c0,0.3,0,0.7,0.1,1c0.1,0.3,0.2,0.6,0.4,0.8s0.4,0.4,0.6,0.5
		c0.2,0.1,0.5,0.2,0.9,0.2c0.3,0,0.5,0,0.7-0.1c0.2-0.1,0.4-0.1,0.6-0.2c0.2-0.1,0.3-0.2,0.4-0.3s0.2-0.2,0.3-0.3
		c0.1-0.1,0.2-0.2,0.2-0.2c0.1-0.1,0.1-0.1,0.2-0.1s0.1,0,0.2,0.1l0.2,0.2C209.3,114.6,209.1,114.9,208.8,115.1z"/>
	<path class="st0" d="M212.5,114.5c0,0,0-0.1,0-0.1c0,0,0-0.1,0-0.2c0-0.1,0-0.2,0-0.4c0-0.1,0-0.3,0.1-0.5l0.5-4.3h-1
		c-0.1,0-0.1,0-0.1,0s0-0.1,0-0.1l0-0.3l1.2-0.1l0.5-2.7c0,0,0-0.1,0.1-0.1c0,0,0.1-0.1,0.1-0.1h0.3l-0.4,2.9h2.2L216,109h-2.2
		l-0.5,4.3c0,0.2,0,0.4-0.1,0.5c0,0.1,0,0.2,0,0.3c0,0.1,0,0.1,0,0.2c0,0,0,0.1,0,0.1c0,0.3,0.1,0.6,0.2,0.7
		c0.2,0.1,0.4,0.2,0.6,0.2c0.2,0,0.3,0,0.4-0.1c0.1-0.1,0.2-0.1,0.3-0.2s0.2-0.1,0.2-0.2c0.1-0.1,0.1-0.1,0.1-0.1
		c0.1,0,0.1,0,0.1,0.1l0.1,0.3c-0.2,0.2-0.4,0.4-0.7,0.5s-0.6,0.2-0.9,0.2c-0.4,0-0.7-0.1-1-0.3
		C212.6,115.3,212.5,114.9,212.5,114.5z"/>
	<path class="st0" d="M222.6,109.1c0,0.1-0.1,0.1-0.2,0.1c-0.1,0-0.1,0-0.2-0.1c-0.1-0.1-0.2-0.1-0.3-0.2s-0.3-0.1-0.5-0.2
		c-0.2-0.1-0.4-0.1-0.7-0.1c-0.3,0-0.5,0-0.7,0.1c-0.2,0.1-0.4,0.2-0.6,0.3c-0.2,0.1-0.3,0.3-0.4,0.5s-0.1,0.4-0.1,0.6
		c0,0.2,0,0.4,0.1,0.5s0.2,0.3,0.4,0.4c0.2,0.1,0.3,0.2,0.5,0.3c0.2,0.1,0.4,0.2,0.6,0.2c0.2,0.1,0.4,0.2,0.6,0.3
		c0.2,0.1,0.4,0.2,0.5,0.3c0.2,0.1,0.3,0.3,0.4,0.5c0.1,0.2,0.1,0.4,0.1,0.7c0,0.3-0.1,0.6-0.2,0.9c-0.1,0.3-0.3,0.6-0.6,0.8
		c-0.2,0.2-0.5,0.4-0.9,0.6s-0.7,0.2-1.1,0.2c-0.5,0-0.9-0.1-1.2-0.3c-0.3-0.2-0.6-0.4-0.9-0.7l0.2-0.3c0.1-0.1,0.1-0.1,0.2-0.1
		c0.1,0,0.1,0,0.2,0.1c0.1,0.1,0.2,0.2,0.3,0.3c0.1,0.1,0.3,0.2,0.5,0.3c0.2,0.1,0.5,0.1,0.8,0.1c0.3,0,0.6,0,0.8-0.1
		c0.2-0.1,0.5-0.2,0.6-0.4c0.2-0.2,0.3-0.4,0.4-0.6c0.1-0.2,0.1-0.5,0.1-0.7c0-0.2,0-0.4-0.1-0.6c-0.1-0.2-0.2-0.3-0.4-0.4
		c-0.2-0.1-0.3-0.2-0.5-0.3c-0.2-0.1-0.4-0.1-0.6-0.2c-0.2-0.1-0.4-0.2-0.6-0.2c-0.2-0.1-0.4-0.2-0.5-0.3c-0.2-0.1-0.3-0.3-0.4-0.5
		s-0.1-0.4-0.1-0.7c0-0.3,0.1-0.6,0.2-0.8c0.1-0.3,0.3-0.5,0.5-0.7c0.2-0.2,0.5-0.4,0.8-0.5c0.3-0.1,0.7-0.2,1-0.2
		c0.4,0,0.8,0.1,1.1,0.2c0.3,0.1,0.6,0.3,0.8,0.6L222.6,109.1z"/>
</g>
</svg>
